<?xml version="1.0" standalone="no"?>
<!DOCTYPE svg PUBLIC "-//W3C//DTD SVG 1.1//EN" "http://www.w3.org/Graphics/SVG/1.1/DTD/svg11.dtd" >
<svg xmlns="http://www.w3.org/2000/svg">
<metadata>
This is a custom SVG webfont generated by Font Squirrel.
Copyright   : Copyright c FontShop 1999 All rights reserved Added to full character set by D Steffmann
</metadata>
<defs>
<font id="webfontzPrvb56S" horiz-adv-x="1038" >
<font-face units-per-em="2048" ascent="1638" descent="-410" />
<missing-glyph horiz-adv-x="772" />
<glyph unicode=" "  horiz-adv-x="772" />
<glyph unicode="&#x09;" horiz-adv-x="772" />
<glyph unicode="&#xa0;" horiz-adv-x="772" />
<glyph unicode="!" horiz-adv-x="983" d="M877 1223q4 16 4 26q0 66 -82 92q-55 20 -94 21q-53 0 -68 -43q-6 -20 -37 -130l-86 -308l-84 -303q-29 -104 -31 -117q-8 -51 43 -66q82 -20 103 11q14 25 166 401l116 290q42 103 50 126zM477 82q8 27 8 57q0 104 -100 113q-61 6 -96 -18.5t-58 -104.5q-6 -25 -6 -45 q0 -86 92 -94q53 -6 99.5 17.5t60.5 74.5z" />
<glyph unicode="&#x22;" horiz-adv-x="983" d="M938 1427q-8 39 -90 25q-31 -4 -54.5 -13t-39.5 -20q-23 -16 -25 -39q-14 -121 -37 -168q-59 -121 -90 -151q-16 -16 -16 -35q0 -23 21.5 -40t43.5 -17q18 0 45 16q98 66 176 203q70 121 70 201q0 10 -1 19t-3 19zM557 1427q-8 39 -90 25q-31 -4 -54.5 -13t-39.5 -20 q-23 -16 -25 -39q-14 -121 -37 -168q-59 -121 -90 -151q-16 -16 -16 -35q0 -23 21.5 -40t43.5 -17q18 0 45 16q98 66 177 203q70 121 69 201q0 10 -1 19t-3 19z" />
<glyph unicode="#" horiz-adv-x="985" d="M848 457h-152l33 233h166l2 107h-154l50 352h-121l-47 -352h-197l49 352h-121l-49 -352h-172l-2 -107h160l-33 -233h-168l-6 -107h160l-51 -350h120l50 350h196l-49 -350h119l49 350h166zM608 690l-33 -233h-196l33 233h196z" />
<glyph unicode="$" horiz-adv-x="1073" d="M1010 1143q-84 74 -185 106q-25 10 -26 13q-2 6 5 25.5t7 27.5q0 23 -45 24q-51 6 -64 -24q-10 -31 -47 -31q-92 0 -184 -41q-121 -55 -170 -166q-33 -74 -33 -151q0 -174 140 -283q39 -31 38 -47q0 -12 -8 -35l-60 -173l-67 -177q-12 -31 -57 -25q-70 10 -170 56 q-31 14 -51 14q-31 0 -51 -55q-20 -53 -21 -82q0 -31 23 -53q51 -55 192 -68q51 -6 51 -23q0 -12 -26 -77q-12 -35 -21 -56l-12 -30q-20 -45 31 -52q53 -6 63 19l39 102l27 78q10 25 18 27q6 2 37 0q96 -8 227 39q195 74 234 247q12 49 12 99q0 137 -94 250q-20 27 -121 114 q-25 20 -14 56q39 115 64.5 182t35.5 90q8 16 16 20q6 2 33 -6q94 -33 144 -94q27 -33 43 -33q27 0 49 54q20 43 20 77q1 39 -22 62zM627 1090q0 -25 -84 -228q-10 -18 -19 -18q-10 0 -22 14q-47 53 -47 94q0 31 14 58q33 74 104 92q54 17 54 -12zM641 309 q-43 -115 -184 -135q-53 -8 -43 23l65 186q27 76 43 117q12 31 25 30q10 0 22 -12q82 -76 82 -153q0 -25 -10 -56z" />
<glyph unicode="%" horiz-adv-x="1554" d="M479 1139q-158 0 -278 -158q-111 -145 -111 -307q0 -236 215 -236q156 0 273 148q106 135 116 293q106 4 267 90l83 45l5 -4l-119 -138l-157 -189l-142 -185q-369 -504 -369 -559q0 -27 25 -66q27 -39 49 -39q23 0 59 57q10 20 22.5 39t22.5 39q174 293 545 760l74 90 l76 92q115 145 114 168q0 25 -41 72q-41 49 -57 49q-8 0 -80 -51q-45 -33 -86 -57.5t-80 -42.5q-113 -57 -217 -68q-37 158 -209 158zM467 1016q49 0 72 -35q-16 -4 -17 -23q0 -41 33 -59q2 -109 -61 -215q-74 -123 -175 -123q-90 0 -90 125q0 102 68 211q74 119 170 119z M1253 717q-158 0 -278 -158q-111 -145 -111 -307q0 -236 215 -236q160 0 281 158q111 143 110 307q0 236 -217 236zM1241 594q90 0 90 -125q0 -102 -65 -211q-76 -119 -172 -119q-90 0 -90 125q0 102 67 211q74 119 170 119z" />
<glyph unicode="&#x26;" horiz-adv-x="1681" d="M1444 395q41 0 67.5 34t26.5 75q0 37 -41 41q-137 2 -256 3t-221 1q-59 6 -92 -64q-23 -51 -23 -65q0 -23 29 -19h125q31 0 31 -10q0 -6 -9 -20q-16 -27 -45.5 -56.5t-74.5 -62.5q-133 -96 -275 -96q-37 0 -70 6q-160 27 -159 147q0 29 10 66q49 158 182 223 q82 41 166 41q66 0 84 45q10 31 10 41q0 27 -41 39q-90 29 -90 110q0 55 33 127q43 96 127 150q76 47 156 47q25 0 60.5 -12t49.5 -12q43 0 43 79q0 70 -43 88q-74 29 -139 29q-49 0 -119 -16q-106 -29 -203 -101q-111 -84 -157 -196q-27 -66 -27 -133q0 -113 59 -160 q25 -18 25 -27q0 -10 -27 -12q-123 -23 -227 -98q-152 -113 -180 -301q-2 -14 -3 -27.5t-1 -26.5q0 -238 319 -274q55 -6 109 -6q254 0 454 151q129 100 179 207q23 47 59 47h64q20 -2 32 -2h23z" />
<glyph unicode="'" horiz-adv-x="602" d="M557 1427q-8 39 -90 25q-31 -4 -54.5 -13t-39.5 -20q-23 -16 -25 -39q-14 -121 -37 -168q-59 -121 -90 -151q-16 -16 -16 -35q0 -23 21.5 -40t43.5 -17q18 0 45 16q98 66 177 203q70 121 69 201q0 10 -1 19t-3 19z" />
<glyph unicode="(" horiz-adv-x="786" d="M836 1391q-18 55 -41 55q-8 0 -27 -6q-193 -57 -379 -256q-203 -211 -301 -496q-88 -252 -88 -481q0 -307 164 -551q25 -35 55 -35q29 0 60.5 26.5t31.5 55.5q0 18 -12 41q-129 203 -129 489q0 170 51 336q94 313 301 523q139 139 301 213q25 8 25 36q0 15 -12 50z" />
<glyph unicode=")" horiz-adv-x="659" d="M592 410q68 217 67 419q0 334 -174 588q-16 25 -43 25q-29 0 -55 -25q-37 -35 -37 -55q0 -16 17 -39q43 -55 79 -162q55 -158 56 -327q0 -195 -72 -398q-47 -135 -111.5 -243.5t-142.5 -194.5q-104 -111 -278 -217q-39 -25 -39 -57q0 -20 12 -46q23 -41 45 -40q14 0 33 8 q156 66 315 219q228 223 328 545z" />
<glyph unicode="*" horiz-adv-x="757" d="M246 1303l-76 -142l252 -80l-209 -180l115 -106l166 219l104 -248l141 68l-151 221l270 35l-29 151l-256 -90l76 279h-162l-18 -256z" />
<glyph unicode="+" horiz-adv-x="1228" d="M555 424h-305v-119h305v-305h119v305h305v119h-305v305h-119v-305z" />
<glyph unicode="," horiz-adv-x="868" d="M475 205q-8 39 -90 24q-31 -4 -54.5 -13t-39.5 -19q-23 -16 -25 -39q-16 -123 -37 -166q-59 -121 -90 -152q-16 -16 -16 -35q0 -23 21.5 -40t43.5 -17q18 0 45 16q98 66 177 203q70 119 69 199q0 10 -1 19.5t-3 19.5z" />
<glyph unicode="-" horiz-adv-x="790" d="M565 397q41 0 67.5 31t26.5 74q0 37 -41 41q-141 2 -260.5 3t-224.5 1q-53 6 -84 -64q-23 -51 -22 -65q0 -23 28 -19q74 6 275 0q35 -2 92 -2h143z" />
<glyph unicode="." horiz-adv-x="872" d="M469 45q25 31 25 70q0 51 -34 86t-83 35q-61 0 -111 -56q-41 -47 -41 -106q0 -96 97 -97q94 0 147 68z" />
<glyph unicode="/" horiz-adv-x="569" d="M737 1479h-178l-594 -1526h168z" />
<glyph unicode="0" horiz-adv-x="978" d="M899 1139q-14 39 -49 39q-14 0 -35 -11q-106 -57 -100 -128.5t6 -153.5q0 -229 -45 -377q-41 -131 -105 -232q-86 -133 -168 -133q-123 0 -122 219q0 117 41 265q57 205 208 393q57 70 112.5 123t113.5 92q23 16 22 37q0 37 -53 61q-41 18 -76 19q-29 0 -74 -17 q-86 -33 -221 -192q-178 -213 -248 -463q-35 -129 -34 -250q0 -170 63 -283q74 -131 217 -157q27 -6 56 -6q156 0 292 174q109 143 168 334q59 203 60 426q0 139 -29 221z" />
<glyph unicode="1" horiz-adv-x="671" d="M672 1247q10 31 10 45q0 29 -24.5 50.5t-53.5 21.5q-16 0 -67 -29l-228 -133q-90 -55 -135 -86q-25 -16 -24 -43q0 -18 16 -51q23 -47 43 -47q8 0 20 6q70 31 148 92q14 12 24 12q14 0 5 -28l-160 -510l-148 -471q-6 -16 -6 -27q0 -43 92 -57q10 -2 21.5 -3t21.5 -1 q78 0 95 59q20 94 178 627q152 520 172 573z" />
<glyph unicode="2" horiz-adv-x="929" d="M889 958q8 186 -109 295q-109 98 -286 99q-68 0 -144 -17q-72 -16 -74 -92q-4 -104 52 -104q10 0 26 6q66 27 111 26q27 2 62.5 -8t68.5 -33.5t55.5 -62.5t20.5 -90q0 -29 -10 -66q-66 -219 -340 -493l-109 -93l-109 -94q-174 -154 -174 -190q0 -53 72 -47q98 6 365 6 q270 0 317 -8q31 -6 47 16q14 18 29 64q12 33 12 57q0 41 -49 51q-16 2 -38.5 3t-55.5 1q-72 0 -197 -6q-123 -6 -125 -6q-35 0 -35 8t25 31l192 174q78 72 119 115q275 286 281 458z" />
<glyph unicode="3" horiz-adv-x="890" d="M797 1010q6 55 -8.5 107t-46 96t-80 76t-109.5 44q-88 20 -174 15q-43 -2 -66 -70q-10 -37 -10 -59q0 -63 64 -56q8 2 18 2h21q84 0 135 -32q74 -47 61 -148q-12 -102 -113 -158q-74 -43 -151 -45q-53 -4 -49 -73q4 -61 39 -70q14 -4 32.5 -6t40.5 -4q33 -4 80 -19 q76 -27 76 -159q0 -72 -35 -125q-100 -156 -264 -156q-109 0 -229 63q-12 6 -25 7q-31 0 -41 -72q-10 -100 27 -121l44 -27q17 -10 27 -14q47 -14 140 -22q133 -14 297 57q188 90 245 242q37 98 37 178q0 158 -168 268q-16 10 -16 14q0 2 22 19q167 105 179 248z" />
<glyph unicode="4" horiz-adv-x="1017" d="M879 449q16 49 16 67q0 33 -35 29q-92 -8 -130 -12.5t-25 -4.5q-20 0 -25 4q-4 8 4 33q18 55 68 161l127 265q4 12 4 19q0 29 -68 63q-37 18 -63 19q-33 0 -56 -41q-53 -113 -102 -236t-94 -260q-12 -43 -45 -45q-41 -4 -68 -6t-43 -2q-39 -2 -39 14q0 12 8 37 q23 66 60 158t90 209q129 289 227 423q12 14 12 29q0 27 -69 60q-47 25 -86 24q-43 0 -62 -31q-66 -104 -133 -238t-133 -302q-47 -119 -83 -222.5t-62 -195.5q-12 -41 -13 -66q0 -63 78 -67q80 -4 142.5 -5t107.5 3q37 2 37 -15q0 -10 -6 -24q-8 -18 -37 -125 q-29 -102 -31 -129q-8 -51 68 -51q43 0 55 6q20 6 29 39l49 156l41 128q6 20 16 25l31 4q102 6 174 19q35 6 64 84z" />
<glyph unicode="5" horiz-adv-x="878" d="M930 1278q12 27 12 53q0 45 -45 37q-68 -16 -209 -18q-131 0 -217 12q-63 8 -84 -43q-10 -25 -34 -96l-62 -191l-64 -197q-23 -71 -26 -87q-6 -29 -2 -37q6 -10 37 -6q70 8 161 -33q125 -57 125 -189q0 -41 -16 -96q-66 -215 -291 -215q-51 0 -90 12l-32 13q-22 8 -50 22 q-45 23 -66 23q-39 0 -47 -62q-20 -113 17 -141q84 -66 291 -55q154 10 264 69q162 92 215 277q27 88 26 170q0 260 -301 358q-33 8 -36 16q-4 12 4 31l47 144q18 55 24 81q8 39 56 37q231 -16 299 2q37 8 59 35q12 15 35 74z" />
<glyph unicode="6" horiz-adv-x="966" d="M852 371q12 49 12 108q0 115 -45 197q-51 96 -157 112q-14 2 -27.5 3.5t-28.5 1.5q-68 0 -172 -41q-23 -10 -26 -4q-6 6 2 24q29 70 69.5 144.5t98.5 152.5q115 158 217 236q23 16 22 32q0 18 -35 23q-209 20 -272 -37q-127 -119 -244 -338q-121 -233 -168 -467 q-8 -41 -12 -80t-4 -78q0 -174 82 -277t229 -108q174 -4 305 125q111 113 154 271zM637 399q-23 -109 -88 -190q-68 -80 -139 -80q-125 0 -125 207q0 27 2 52.5t6 53.5q14 98 61 146q41 39 125 53q10 2 19.5 3t19.5 1q129 0 129 -156q0 -20 -3 -42.5t-7 -47.5z" />
<glyph unicode="7" horiz-adv-x="860" d="M924 1292q-104 47 -355 64q-174 10 -313 -8q-57 -8 -72 -84q-6 -35 -6 -54q0 -49 72 -39q41 4 102.5 6.5t141.5 -1.5q162 -2 235 -19q23 -4 23 -14q0 -12 -15 -35l-420 -695q-147 -243 -176 -280q-18 -23 -18 -47q0 -51 78 -86q43 -16 75 -16q55 0 78 43q35 78 106 222 l177 357l176 356q70 138 105 197q35 63 34 92q1 29 -28 41z" />
<glyph unicode="8" horiz-adv-x="878" d="M926 1266q-113 82 -230 92q-16 2 -33.5 3t-33.5 1q-264 0 -353 -211q-27 -59 -26 -131q0 -117 84 -275q20 -41 0 -55q-59 -37 -141 -129q-106 -115 -134 -196q-18 -53 -18 -109q0 -98 59 -170q66 -82 191 -96q16 -2 31.5 -3t31.5 -1q152 0 267 96q113 94 112 246 q0 156 -92 319q-20 33 -20 47q0 12 20 31l83 78q34 33 50 55q37 45 37 94q0 23 -10 68q-16 66 -56 65q-14 0 -22 -14q-25 -37 -86 -108l-54 -59q-22 -24 -34 -34q-29 -23 -43 0q-47 72 -47 162q0 70 47 122t117 52q35 0 71 -12q135 -53 150 -66q35 -8 80 39q27 27 26 58 q1 25 -24 41zM526 283q-12 -61 -57 -103q-53 -47 -119 -47q-57 0 -96 31q-45 33 -45 90q0 39 24 80q74 125 193 215q23 16 37 -10q70 -109 69 -203q0 -26 -6 -53z" />
<glyph unicode="9" horiz-adv-x="925" d="M877 805q18 88 18 168q0 352 -324 383q-190 18 -321 -137q-96 -113 -131 -271q-8 -39 -12.5 -73.5t-4.5 -69.5q0 -238 185 -268q33 -6 69 -7q78 0 170 37q27 10 29 8q4 -4 -2 -20q-53 -131 -168 -270q-53 -63 -107.5 -115.5t-111.5 -95.5q-27 -20 -27 -37q0 -16 27 -29 q43 -20 147 -20q86 0 115 24q133 133 254 328q76 123 124 238.5t71 226.5zM672 887q-23 -106 -62 -146q-35 -37 -125 -53q-14 -2 -26.5 -3t-22.5 -1q-123 0 -123 133q0 23 3 51.5t12 61.5q63 279 219 278q68 0 104 -71q31 -59 31 -152q0 -47 -10 -98z" />
<glyph unicode=":" horiz-adv-x="901" d="M655 635q31 33 31 92q0 63 -45 90q-39 23 -82 23q-74 0 -117 -49.5t-43 -108.5q0 -57 54 -92q39 -23 73 -23q70 0 129 68zM481 45q27 33 27 84q0 66 -39 98q-33 27 -78 27q-70 0 -125 -61q-41 -47 -41 -101q0 -63 56 -96q27 -16 61 -16q86 -1 139 65z" />
<glyph unicode=";" horiz-adv-x="876" d="M655 635q27 33 27 94q0 63 -39 87t-82 24q-70 0 -110 -47q-45 -51 -45 -115q0 -53 47 -88q33 -25 73 -25q74 0 129 70zM489 209q-10 45 -104 31q-53 -10 -86 -33q-25 -16 -27 -45q-8 -86 -36 -164q-35 -100 -99 -164q-14 -14 -14 -27q0 -23 31 -43q41 -29 84 0 q115 76 190 211q66 115 66 191q0 10 -1.5 21.5t-3.5 21.5z" />
<glyph unicode="&#x3c;" horiz-adv-x="1228" d="M985 627v121l-743 -330v-107l743 -327v118l-590 263z" />
<glyph unicode="=" horiz-adv-x="1228" d="M979 573h-729v-118h729v118zM979 274h-729v-118h729v118z" />
<glyph unicode="&#x3e;" horiz-adv-x="1228" d="M244 102v-118l743 327v107l-743 330v-121l590 -262z" />
<glyph unicode="?" horiz-adv-x="1026" d="M924 1098q0 193 -168 243q-61 20 -125 21q-57 0 -115 -19q-51 -16 -59 -51q-18 -66 -6 -125q8 -43 55 -20q39 20 96 20q35 0 57.5 -12t37 -30.5t19.5 -41t5 -41.5q0 -84 -111 -215q-215 -264 -235 -374q-12 -61 6 -74q31 -16 86 -14q35 0 51.5 43t28.5 68l16 34 q27 41 80 103l131 149q150 158 150 336zM338 -6q61 0 109.5 43t48.5 104q0 55 -37 86t-92 31q-96 0 -129 -92q-12 -35 -13 -66q0 -106 113 -106z" />
<glyph unicode="@" horiz-adv-x="1638" d="M739 449q-72 0 -118 52t-46 134q0 123 78 237q86 123 203 123q33 0 62.5 -14t51 -38.5t35 -57.5t13.5 -70q0 -125 -80 -242q-86 -124 -199 -124zM1075 1001q-68 145 -227 146q-193 0 -324 -166q-123 -158 -123 -365q0 -133 86 -231q86 -96 211 -96q121 0 230 121h4 q6 -121 121 -121q150 0 301 147q178 174 178 428q0 266 -205 445q-201 170 -477 170q-309 0 -526.5 -217.5t-217.5 -526.5q0 -315 217.5 -530t536.5 -215q193 0 352.5 88t257.5 250h-143q-178 -209 -459 -209q-260 0 -434 172q-172 172 -172 436t166 442.5t422 178.5 q231 0 383 -134q162 -143 162 -374q0 -154 -84 -281q-82 -125 -181 -125q-37 0 -36 49q0 16 4 39t12 56l147 540h-143z" />
<glyph unicode="A" horiz-adv-x="1241" d="M1262 150q1 10 0 19q0 33 -11 60q-6 18 -16 7q-45 -61 -113 -97q-59 -33 -103 -33h-9q-55 6 -70 15q-27 14 -27 55t21 111q20 66 60 174t102 262l81 195l52 118q12 25 12 43q0 47 -63 56q-17 3 -33 2q-67 0 -92 -52l-161 -308q-69 -128 -120 -206q-272 -420 -440 -419 q-27 0 -45 8q-80 27 -80 121q0 100 92 270q37 68 75 123t77 100q371 418 684 451q82 8 82 35q0 10 -29 51q-35 47 -86 47q-164 0 -400 -125q-266 -141 -440 -356q-281 -346 -280 -625q0 -154 94 -217q74 -49 160 -49q156 0 337 166q129 117 207 247q8 12 15 13q14 0 4 -23 q-76 -172 -76 -278q0 -41 14 -58q53 -59 221 -59q51 0 89 6q119 23 200 104q11 11 15 46z" />
<glyph unicode="B" horiz-adv-x="1286" d="M1325 1032q2 14 2 27v24q0 252 -217 279q-12 2 -25 2q-51 0 -129 -25q-23 -10 -47 -18t-49 -18q-27 -8 -26 28q0 25 -33 25q-45 0 -101 -23q-63 -27 -69 -67q-4 -35 -8.5 -61.5t-8.5 -47.5q-6 -29 -34 -51q-35 -27 -93.5 -88.5t-140.5 -159.5q-205 -248 -280 -422 q-84 -203 -84 -313q0 -127 96 -182q41 -23 82 -23q70 0 143 49q59 35 78 66q11 20 37 20q16 0 37 -8q149 -56 243 -56q9 0 19 1q109 10 211 63q127 72 164 183q23 68 22 129q0 158 -100 288q-12 20 14 35q139 82 193 135q94 88 104 209zM1106 997q-27 -70 -102 -147 q-72 -78 -105 -78q-6 0 -8 2q-51 37 -137 55q-31 8 -21 39q10 33 25.5 89.5t36.5 142.5q8 37 30 53q90 59 164 59q31 0 62 -10q70 -20 69 -127q0 -43 -14 -78zM528 827q-29 -137 -141 -403q-135 -322 -207 -322q-40 0 -39 56v16q8 104 123 320q119 229 242 348q10 10 16 10 q12 0 6 -25zM877 309q-66 -145 -261 -145q-61 0 -94 18q-12 8 -12 20q0 11 10 27q72 129 154 379q2 14 63 15q82 4 99 8q4 1 8 1q20 0 28 -26q39 -104 39 -151q1 -66 -34 -146z" />
<glyph unicode="C" horiz-adv-x="1048" d="M1126 950q45 90 45 187q0 106 -57 175.5t-162 69.5q-186 0 -387 -170q-301 -258 -526 -739q-133 -289 -133 -530q0 -250 155 -344q82 -47 168 -48q268 0 557 404q20 27 21 57q0 27 -21.5 57.5t-46.5 30.5t-67 -71q-51 -88 -170 -185q-131 -106 -217 -106q-31 0 -52 14 q-82 51 -81 187q0 121 49 274q10 35 36 100l64 164q47 117 120 238t173 250q215 272 336 272q78 0 78 -90q0 -63 -39 -143q-63 -137 -230 -191q-43 -12 -43 -43q0 -16 19 -47q27 -47 73 -51h3q53 0 157 76q123 87 178 202z" />
<glyph unicode="D" horiz-adv-x="1529" d="M1413 580q35 133 35 239q0 174 -82 293q-66 92 -156 129q-41 16 -30 39q8 16 15 28.5t11 20.5t4 12q0 16 -77 21q-21 3 -37 3q-21 0 -32 -5q-19 -8 -31 -22l-21 -25q-10 -12 -41 -15q-119 0 -244 -36q-246 -70 -422 -263q-72 -78 -125 -160.5t-88 -174.5 q-51 -135 -51 -252q0 -39 6 -60q20 -61 82 -61q8 0 25 4q27 8 34 41l5 45q2 23 6 45q31 197 239 438q217 256 404 266q45 2 45 -18q0 -12 -15 -29q-53 -66 -215 -456l-102 -258l-63 -162q-12 -29 -23.5 -36t-44.5 -3q-16 2 -33 2h-37q-215 0 -231 -96q-1 -8 -1 -15 q0 -85 177 -100q10 -1 20 -1q85 0 209 60q14 7 34 7q34 0 85 -19q27 -10 68 -12h28q27 0 72 -2h6q159 0 312 117q196 154 280 471zM1165 549q-47 -113 -91 -188.5t-85 -116.5q-102 -104 -280 -109q-53 0 -54 19l4 12q66 125 118 237.5t87 217.5q35 100 111 268 q70 160 92 192q29 41 45 41q10 0 27 -6q115 -41 114 -215q0 -151 -88 -352z" />
<glyph unicode="E" horiz-adv-x="911" d="M954 1352q-41 20 -118 20q-145 0 -279 -82q-178 -115 -303 -354q-57 -109 -57 -199q0 -74 39 -137q41 -66 40 -68q0 -10 -22 -26q-90 -59 -188 -164q-141 -154 -216 -324q-53 -123 -53 -215q0 -186 197 -243q35 -10 72 -11q154 0 317 111q117 78 219 190q94 100 113 150 q4 16 4 23q0 29 -41 63q-31 25 -51 25q-23 0 -41 -29q-49 -78 -180 -201q-176 -164 -267 -164q-90 0 -90 111q0 115 113 295q129 211 246 313q27 25 53 21q36 -8 66 -8q26 0 46 6q150 39 150 129t-117 90q-41 0 -83 -19l-81 -37q-20 -10 -31.5 1.5t-11.5 37.5q0 109 88 258 q76 129 168 215q104 98 187 99h4q35 0 59.5 -9.5t41 -19.5t25.5 -18t11 -8q18 0 36 24q16 22 15 44q0 71 -80 110z" />
<glyph unicode="F" horiz-adv-x="1376" d="M1311 535q2 9 1 16q0 29 -24 39q-61 27 -147 39q-37 6 -27 37l100 293l91 264q12 45 -13 57q-29 14 -71.5 30.5t-102.5 32.5q-158 45 -282 50q-28 1 -55 1q-139 0 -212 -28q-150 -51 -149 -203q0 -47 31 -76q23 -25 52 -25q4 0 9 1q33 2 33 24q0 4 -2 15.5t-2 19.5 q0 18 8 33q18 37 72 60q45 20 95 21q9 0 17 -1q29 -2 71 -10t99 -23q106 -27 127 -41q20 -12 4 -47q-29 -72 -67.5 -179.5t-85.5 -252.5q-10 -23 -43 -23q-72 0 -222 -32q-51 -8 -61 -84q-6 -41 0 -55.5t27 -12.5q97 22 170 22q17 0 32 -1q31 -2 17 -45l-29 -81l-29 -81 q-72 -172 -155 -271q-121 -141 -260 -147h-17q-170 0 -194 119q-10 35 -29 35q-4 0 -9 -1t-13 -4q-66 -23 -66 -114q0 -139 209 -197q49 -14 115 -14q260 0 436 203q145 164 262 520q18 57 43 57t78 -18q20 -6 8 -43q-2 -4 -5 -16.5t-9 -35.5q-14 -47 -19 -59q-1 -3 -1 -6 q0 -18 48 -27q33 -6 47 -2q20 2 27 35l38 129q18 58 34 103z" />
<glyph unicode="G" horiz-adv-x="1196" d="M1122 817q2 6 2 19q0 43 -63 63q-35 12 -49 12q-25 0 -39 -26q-41 -78 -154 -183q-139 -129 -231 -129q-20 0 -45 11q-68 31 -68 112q0 80 64 201l36 64l35 63q8 23 54 33q96 14 247 86q143 63 144 141q0 16 -6 39q-18 61 -125 61q-59 0 -140 -22q-102 -31 -202 -137 q-37 -23 -64 -27q-89 -13 -160 -13q-81 0 -139 17q-6 2 -16 2q-35 0 -35 -60v-14q4 -68 76 -100q48 -22 89 -22q12 0 23 2q41 6 41 -13q0 -10 -14 -30q-133 -201 -133 -371q0 -117 84 -170q70 -45 151 -45q92 0 197 55l49 34l51.5 33.5t32.5 16.5q8 0 8 -8q0 -2 -4 -18 q-102 -324 -172 -431q-111 -164 -313 -178q-14 -1 -27 -1q-62 0 -111 24q-60 29 -77 72q-20 57 -39 57q-14 0 -35 -12q-45 -25 -45 -111q0 -84 51 -123q113 -92 287 -92q223 0 374.5 123t223.5 358l105 354z" />
<glyph unicode="H" horiz-adv-x="1519" d="M1573 1198q6 20 6 45q0 45 -30.5 74t-75.5 29q-133 0 -302 -295l-77 -166q-31 -68 -45 -107q-23 -47 -56 -47h-26q-20 0 -60 2q-35 2 -55 2h-25q-20 -2 -30 8q-10 8 0 31q131 360 153 465q2 9 2 17q0 41 -43 57q-135 51 -379 51q-121 0 -172 -27q-139 -72 -139 -166 q0 -57 43 -57q20 0 37 35q27 57 199 57q117 0 168 -17.5t51 -29.5q0 -8 -6 -22l-136 -406q-16 -25 -43 -29q-78 -6 -200 -61q-174 -76 -252 -199q-78 -121 -78 -225t67.5 -164.5t172.5 -60.5q137 0 247 112q92 94 166 269q14 33 30 78l36 104q12 37 57 37h168q23 -10 17 -37 q-70 -349 -70 -395q0 -56 31 -84q88 -84 295 -84q29 0 56.5 2t49.5 6q70 8 137 51q16 10 31.5 23.5l32.5 29.5q10 10 14 46q1 10 1 19q0 33 -11 60q-6 18 -17 7q-43 -57 -106.5 -94.5t-106.5 -39.5q-33 -2 -59.5 1t-46.5 8q-80 18 -80 79q0 80 127 474q41 129 76 219t63 145 q20 39 45 39q41 0 80 33q52 37 68 98zM489 510q-31 -113 -88 -213q-78 -133 -153 -133q-78 0 -78 65q0 70 100.5 170.5t194.5 130.5q9 4 15 4q4 0 7 -2q4 -4 4 -11q0 -4 -2 -11z" />
<glyph unicode="I" horiz-adv-x="919" d="M856 831q53 242 53 363q0 197 -121 231q-25 8 -59 9q-131 0 -278 -142q-135 -129 -222 -315q-61 -133 -61 -297q0 -152 55 -258q61 -121 178 -162q35 -10 11 -35q-68 -68 -105 -92q-63 -41 -129 -41q-113 0 -153 90q-10 18 -27 19q-57 0 -57 -99q0 -70 45 -114 q57 -63 182 -72q21 -2 41 -2q214 0 358 178q170 209 289 739zM696 1210q-4 -127 -73 -399q-35 -137 -67 -237.5t-60 -165.5q-12 -29 -25 -29q-10 0 -33 14q-80 45 -80 228q0 133 52 266q41 106 98 211q88 166 154 166q38 -1 34 -54z" />
<glyph unicode="J" horiz-adv-x="1230" d="M1251 150q1 10 1 19q0 33 -11 60q-6 18 -16 7q-43 -57 -109.5 -95.5t-116.5 -38.5q-119 0 -151 19q-18 10 -12 29l44 129l44 127q39 123 65.5 224t40.5 181q23 137 35 221t12 119q0 215 -192 215q-150 0 -305 -125q-160 -129 -220 -307q-49 -147 -49 -266 q0 -197 135 -295q35 -27 76 -42.5t86 -23.5q35 -6 25 -35q-23 -61 -31 -92q-16 -43 -41 -43q-45 0 -95 -4t-104 -12q-180 -27 -272 -92q-63 -41 -102 -111q-47 -78 -47 -149q0 -45 22 -86q66 -115 230 -115q113 0 217 51q133 63 243 207q27 35 50.5 74t46.5 84q8 20 38 20 q-8 0 4.5 -1t45.5 -3q66 -6 115 -6t83 6q115 18 201 104q10 11 14 46zM870 1112q-4 -35 -22 -110l-49 -193l-56.5 -204t-40.5 -122q-8 -20 -13 -31.5t-7 -15.5q-8 -12 -33 -8q-125 27 -125 203q0 29 3 58.5t12 62.5q10 51 35.5 112.5t66.5 132.5q72 131 109 162q39 33 77 33 q44 0 45 -59zM492 -43q-59 -115 -168 -186q-76 -51 -129 -52q-43 0 -70 31q-16 20 -16 45q0 72 102 127q102 53 235 78q8 2 15 2h14q27 0 27 -16q0 -9 -10 -29z" />
<glyph unicode="K" horiz-adv-x="1615" d="M1710 1260q6 20 6 40q0 41 -37 46h-110q-61 0 -90 -41q-23 -37 -77 -109l-140 -182q-94 -123 -150.5 -187.5t-75.5 -74.5q-29 -16 -47 -17q-25 0 -24 27q0 20 8 39q113 350 112 405q0 45 -14 68.5t-61 40.5q-117 41 -277 41h-19q-63 0 -123 -11q-69 -13 -121 -38t-83 -61 q-29 -34 -29 -71q0 -36 21.5 -67t52.5 -31q43 0 55 43q20 74 154 74q113 0 174 -27q31 -16 23 -49q-66 -258 -154 -454q-131 -283 -143 -304q-109 -184 -242 -194q-16 -1 -30 -1q-78 0 -122 28q-14 16 -28 30l-31 31q-25 25 -55 25q-51 0 -52 -80q0 -6 1 -13 q8 -186 329 -186q141 0 244 68q145 98 266 356q33 76 66 86q47 16 84 41q8 4 22.5 16.5t36.5 28.5q14 10 31 10q59 0 59 -61q0 -12 -41 -142q-47 -154 -49 -157q-8 -31 -8 -66q0 -190 272 -190q59 0 129 9t136 52q16 10 31.5 23.5t31.5 29.5q10 10 14 46q1 10 1 19 q0 33 -11 60q-6 18 -16 7q-37 -55 -111 -97q-61 -33 -102 -37q-20 -1 -37 -1q-129 0 -129 67q0 20 8 43q100 276 102 348q0 5 1 11q0 60 -44 98q-41 35 -92 41q-33 2 -32 16q0 12 28 31q53 35 120 91l153 134q208 193 235 279z" />
<glyph unicode="L" horiz-adv-x="1372" d="M1393 150q1 10 1 19q0 33 -12 60q-6 18 -16 7q-39 -55 -113 -97q-61 -35 -100 -37h-20q-100 0 -189 37q-78 33 -139 82q-12 8 0 31q51 80 115 262q61 168 86 307q8 39 28 45q248 66 336 228q31 55 31 108q0 88 -64 139q-47 37 -110 37q-66 0 -132.5 -34.5t-105.5 -83.5 q-98 -127 -131 -232q-8 -31 -49 -14q-100 39 -119 82q-4 14 -10 26.5t-10 24.5q-8 18 -29 20q-29 2 -46 -32.5t-17 -77.5q0 -72 67 -123q61 -45 133 -60q31 -6 21 -34l-37 -115q-18 -57 -39 -115q-35 -104 -57.5 -164.5t-32.5 -78.5q-12 -23 -25 -11q-31 31 -127 64 q-105 40 -198 39h-25q-102 -6 -190 -72q-90 -69 -91 -167q0 -209 314 -230q23 -2 45 -2q90 0 182 32q111 41 166 103q16 18 41 0q92 -68 179 -99.5t188 -31.5q174 0 286 112q11 11 15 46zM1243 1300q61 0 62 -61q0 -51 -56 -113q-61 -63 -157 -104q-20 -8 -31 -2q-8 8 -4 27 q16 76 67 157q62 96 119 96zM547 207q-35 -41 -111 -74q-81 -35 -143 -35h-6q-180 8 -181 119q0 117 165 117h12q45 -2 86 -10.5t80 -24.5l38 -20q23 -12 52 -33q16 -11 15 -23q1 -8 -7 -16z" />
<glyph unicode="M" horiz-adv-x="2181" d="M2202 150q1 10 1 19q0 33 -12 60q-6 18 -16 7q-20 -29 -49 -52.5t-64 -44.5q-61 -37 -100 -37q-150 0 -186 74q-5 11 -5 27q0 37 27 102q297 696 320 787q12 51 12 98q0 168 -162 168q-141 0 -274 -121q-68 -61 -209 -240l-80 -102l-80 -102q-23 -25 -31 -25q-4 0 -4 6 q0 12 8 27q68 150 129 346q8 25 9 51q0 70 -51.5 114t-127.5 44q-90 0 -172 -62q-104 -78 -237 -268l-74 -108l-72 -111q-29 -41 -28 -6q0 12 6 37l15 55q7 27 16 53q25 98 24 174q0 215 -205 236q-10 2 -22 2h-21q-152 0 -268 -92q-115 -92 -147 -224q-31 -117 -31 -196 q0 -109 57 -174q20 -25 64 -25q88 0 88 55q0 14 -12 31q-33 45 -33 135q0 80 35 166q68 158 200 158q10 0 22.5 -1t22.5 -3q78 -16 78 -121q0 -57 -20 -137q-35 -145 -114 -365.5t-204 -519.5q-2 -4 -2 -10q0 -37 99 -37q84 0 124 41l105 213l104 213q213 430 336 565 q121 133 195 133q57 0 57 -71q0 -20 -6 -45q-18 -66 -70.5 -200t-140.5 -337l-96 -219l-96 -219q-8 -16 -9 -31q0 -37 90 -41q17 -1 33 -1q46 0 72 9q35 12 57 64q41 100 98 209l125 231q217 383 431 584q70 70 135 69q45 0 45 -49q0 -33 -21 -76l-226 -520 q-79 -186 -89 -229q-12 -53 -12 -92q0 -139 180 -189q70 -19 143 -19q50 0 101 9q115 18 200 104q11 11 15 46z" />
<glyph unicode="N" horiz-adv-x="1576" d="M1597 150q1 10 1 19q0 33 -11 60q-6 18 -16 7q-20 -29 -49 -52.5t-64 -44.5q-61 -37 -100 -37q-59 0 -105 27q-51 33 -51 92q0 27 8 51q4 14 39 115l101 291q57 166 89 267l42 136q12 51 12 97q0 129 -111 163l-38.5 7.5t-38.5 3.5q-166 0 -338 -193q-66 -76 -128.5 -171 t-119.5 -212q-10 -23 -25 -22q-8 0 -8 12q0 4 4 20q57 172 58 297q0 203 -158 256q-59 18 -113 19q-176 0 -330 -203q-106 -139 -106 -313q0 -117 70 -189q33 -37 79 -37q63 0 64 50q0 6 -5 20t-10 32l-11 36q-5 18 -5 34q0 121 78 281q51 106 156 107q123 0 123 -150 q0 -90 -43 -219q-57 -170 -179 -459l-83 -194q-34 -78 -54 -117q-8 -14 -8 -25q0 -25 78 -28q5 0 9 -1q120 0 169 103q59 125 134 260t167 285q233 387 367 502q49 43 86 43q59 0 59 -68q0 -8 -4 -21q-129 -313 -198.5 -510.5t-82.5 -285.5q-6 -47 -6 -80q0 -117 92 -168 q90 -51 205 -51q23 0 47.5 2t46.5 6q115 18 201 104q10 11 14 46z" />
<glyph unicode="O" horiz-adv-x="1058" d="M1202 1153q-47 90 -74 90q-12 0 -30 -18l-62 -62q-12 -12 -20 -12q-14 0 -19 29q-4 23 -14 48t-27 52q-41 66 -98 90q-84 37 -129 37q-55 0 -125 -31q-16 -6 -39 -6q-166 -4 -319 -178q-129 -150 -219 -387q-66 -184 -66 -377q0 -348 209 -430q61 -27 135 -27 q160 0 322 133q152 127 254 338q82 168 116 310q6 25 25 147q6 37 18 45q51 41 87 76t59 63q22 27 22 50q-1 10 -6 20zM844 1016q-4 -41 -82 -41q-41 0 -75 13t-57.5 36t-36.5 51.5t-13 59.5q0 57 53 104q27 25 69 25q31 0 58.5 -15.5t47 -40t31 -55.5t11.5 -61q0 -6 -6 -76 zM793 778q-23 -111 -125 -301q-172 -324 -322 -323q-20 0 -41 6q-131 43 -131 239q0 162 82 383q76 209 170 320q14 20 27 20q10 0 8 -39q-2 -17 -2 -33q0 -102 86 -180q74 -68 160 -67q14 0 32 3l45 7q6 2 11 -8q2 -5 2 -12t-2 -15z" />
<glyph unicode="P" horiz-adv-x="1306" d="M997 334q152 63 260 272q100 193 101 377q0 168 -76 268q-92 123 -274 127q-7 0 -15 1q-214 0 -436 -179q-256 -201 -410 -555q-166 -387 -165 -639q0 -123 43 -199q57 -94 172 -94q150 0 288 209q109 164 160 361q10 31 17 32q12 4 30 -4q45 -18 113 -18q98 0 192 41z M1094 842q-29 -147 -123 -260q-101 -128 -229 -128q-10 0 -19 1q-29 4 -23 45q16 129 22 220q3 51 3 90q0 32 -2 56q-4 47 -43 47q-35 0 -74 -30l-58 -37q-30 -18 -34 -53q-35 -293 -68 -418q-123 -436 -223 -436q-53 0 -53 84q0 94 94 407q70 227 266 483q236 303 424 304 h2q152 -4 152 -236q0 -35 -3 -69.5t-11 -69.5z" />
<glyph unicode="Q" horiz-adv-x="1306" d="M1262 797q2 23 3 44t1 42q0 229 -144 354q-119 106 -305 119q-30 2 -58 2q-189 0 -333 -94q-152 -98 -186 -250q-4 -23 -7.5 -45.5t-3.5 -44.5q0 -119 66 -197q56 -65 135 -65q11 0 23 2q49 6 71 24q12 12 29 60q8 18 8 40q0 50 -35 50h-8q-16 -4 -33.5 5t-34 25.5 t-26.5 39t-10 46.5q0 92 84 164q86 74 225 74q16 0 30.5 -1t30.5 -3q129 -14 201 -141q53 -96 53 -213q0 -37 -6 -58q-45 -178 -217 -350q-117 -117 -194 -154q-35 -16 -52 19q-27 57 -96 117q-96 80 -203 86q-12 1 -23 0q-104 0 -176 -51q-81 -56 -104 -162q-6 -29 -6 -52 q0 -86 56.5 -147.5t142.5 -79.5q29 -4 59.5 -7t63.5 -3q104 0 178 20q39 10 47 -16q57 -158 74 -184q76 -156 161 -170q14 -2 27.5 -3t24.5 -1q66 0 100 53q20 33 20 63q0 29 -18 33t-35 6q-25 6 -47 23q-29 18 -76 118q-14 29 -26.5 57.5t-26.5 57.5q-16 31 21 47 q70 33 138 83t140 116q248 230 277 502zM412 215q6 -10 5 -18q0 -15 -20 -25q-64 -30 -130 -30q-15 0 -29 1q-118 11 -118 84q0 6 1 13q10 90 110 90q20 0 31 -2q68 -10 109 -52q21 -24 41 -61z" />
<glyph unicode="R" horiz-adv-x="1374" d="M1395 150q1 10 1 19q0 33 -12 60q-6 18 -16 7q-20 -29 -49 -52.5t-64 -44.5q-61 -37 -100 -37q-92 0 -143 27q-16 9 -17 40q0 27 13 71q10 31 22 61.5l23 60.5q35 104 34 162q0 37 -12 62q-33 70 -78 96q-18 8 -18 16q0 4 16 17q305 221 312 387v19q0 219 -181 235 q-16 1 -30 1q-72 0 -140 -24l-47 -21l-47 -22q-39 -16 -43 -16q-10 0 -6 18q8 47 8 56q0 18 -20 18q-14 0 -37 -8l-72 -32q-29 -13 -45 -25.5t-26.5 -24.5t-16.5 -27l-17 -71l-12 -52q-10 -53 -43 -73q-53 -33 -200 -199q-80 -88 -135.5 -157.5t-87.5 -123.5 q-127 -207 -127 -387q0 -115 71 -161q51 -31 109 -31q88 0 172 70.5t143 193.5l87 188q30 66 34 78q18 49 39 49q88 0 162 33q16 4 24 4q27 0 44.5 -21.5t9.5 -53.5q-2 -4 -15 -45l-37 -117q-23 -70 -36 -121t-17 -86q-6 -41 -6 -55q0 -51 41 -76q45 -31 174 -43 q36 -4 71 -4q64 0 128 12q119 23 200 104q11 11 15 46zM1087 1124q6 -23 7 -45q0 -90 -88 -184l-62 -57l-63 -58q-29 -25 -62 -24q-18 0 -51 9t-47 9q-35 4 -35 19q0 6 10 36l74 240q14 39 37 55q106 74 188 74q69 0 92 -74zM457 750q-4 -23 -26.5 -84.5t-63.5 -161.5 q-88 -209 -123 -260q-35 -49 -68 -49t-33 47q0 18 7 41q23 74 122 249q100 180 154 234q20 20 29 20q6 0 5 -11q1 -9 -3 -25z" />
<glyph unicode="S" horiz-adv-x="1241" d="M1262 150q1 10 0 19q0 33 -11 60q-6 18 -16 7q-20 -29 -49 -52.5t-64 -44.5q-61 -37 -100 -37q-53 0 -98 15q-16 4 -17 12q0 6 15 37q47 123 47 237q0 154 -135 259l-209 116q-131 76 -131 172q0 41 24 94q82 166 299 166q45 0 82 -10q104 -31 131 -94l11 -38 q5 -17 20 -21q10 -2 18 -3q44 0 70 60q8 16 8 45q0 66 -53 123q-68 70 -203 86q-16 2 -30.5 3t-30.5 1q-152 0 -287 -74q-141 -80 -207 -213q-43 -86 -43 -168q0 -207 229 -313q238 -111 238 -258q0 -76 -55 -176q-16 -31 -53 -25l-271 68q-209 48 -299 48q-13 0 -24 -1 q-168 -14 -187 -164q-2 -13 -2 -26q0 -72 60 -136q72 -86 219 -119q47 -10 92 -16t90 -6q270 0 461 199q25 25 49 18q41 -9 90 -9t107 9q111 14 200 104q11 11 15 46zM549 -12q-127 -66 -258 -66q-141 0 -228 74q-31 25 -30 61q0 31 22 52q20 19 53 18h7q127 -23 230 -45 l190 -43q47 -10 47 -25q0 -12 -33 -26z" />
<glyph unicode="T" horiz-adv-x="1159" d="M1174 1202q6 31 6 41q0 25 -45 37q-106 29 -197.5 47.5t-169.5 24.5q-31 2 -59.5 3t-55.5 1q-330 0 -358 -146q-6 -31 -6 -57q0 -70 35 -70q18 0 36 23q31 37 140 59q10 2 27.5 3t39.5 1q203 0 336 -43q26 -9 26 -35q0 -9 -3 -20l-76 -256l-76 -256q-150 -485 -211 -547 q-82 -78 -139 -102q-53 -23 -148 -25h-7q-143 0 -199 74q-20 27 -35 27q-18 0 -35.5 -27t-17.5 -70q0 -164 286 -188q14 -2 29 -2h29q276 0 440 246q177 262 408 1257z" />
<glyph unicode="U" horiz-adv-x="1644" d="M1665 150q1 10 1 19q0 33 -11 60q-6 18 -17 7q-20 -29 -48.5 -52.5t-65.5 -44.5q-66 -37 -103 -37q-143 0 -143 105q0 16 2 26l141 540l131 480q8 25 9 43q0 47 -74 60q-35 6 -55 6q-63 0 -84 -49l-168 -351q-72 -146 -121 -235q-217 -389 -393 -512q-72 -47 -105 -47 t-33 35q0 27 15 61q223 598 252 701q16 61 16 114q0 236 -266 262q-12 2 -25 2h-22q-145 0 -265 -86q-115 -78 -153 -184q-39 -104 -39 -194q0 -82 35 -127t90 -45q78 0 78 47q0 12 -10.5 49t-10.5 61q0 68 25 121q37 80 102.5 132t130.5 52q29 0 47 -8q59 -25 60 -102 q0 -43 -15 -86q-4 -8 -38 -100l-101 -265l-101 -265q-38 -103 -50 -150q-10 -41 -11 -70q0 -98 113 -137q33 -12 68 -13q78 0 215 70q242 127 471 530q14 31 22 31q6 0 -8 -37q-23 -53 -49 -172q-33 -127 -39 -205q-2 -14 -2 -26q0 -72 49 -117q66 -59 203 -59q61 0 135 12 q111 14 201 104q10 11 14 46z" />
<glyph unicode="V" horiz-adv-x="1091" d="M1202 897q12 20 12 41q0 29 -20 35l-50 21q-22 9 -36 18q-14 6 -14 49q0 2 7 42t7 73q0 12 -1 24t-3 25q-8 43 -45 77.5t-84 34.5q-20 0 -45 -10q-90 -41 -90 -145q0 -119 63 -185q12 -12 0 -61q-41 -160 -123 -326q-113 -223 -252 -334q-125 -100 -215 -100 q-117 0 -116 168q0 37 6 80q14 100 36.5 188t51.5 164q78 201 260 492q6 8 6 18q0 41 -80 51q-20 2 -35.5 3t-25.5 1q-53 0 -101 -45q-90 -80 -202 -381q-131 -342 -131 -604q0 -31 2 -59.5t6 -54.5q12 -100 88 -156.5t176 -56.5q166 0 358 145q276 215 426 721q8 33 43 22 l27 -10q10 -4 16 -6q9 -4 18 -4q31 0 60 45z" />
<glyph unicode="W" horiz-adv-x="1527" d="M1571 852q12 0 23.5 10t18.5 24.5t12 30t5 25.5q0 18 -18 29q-39 18 -53 26q-19 10 -20 52q0 7 1 16q4 45 4 78q0 35 -2 57q-4 53 -43 95t-92 42q-10 0 -31 -4q-109 -29 -108 -164q0 -10 1 -19t3 -20q4 -25 9 -44t13 -33l13 -19q8 -12 20 -28q28 -40 28 -71q0 -7 -1 -13 q-16 -78 -63.5 -183.5t-123.5 -242.5q-174 -310 -289 -311q-7 0 -14 1q-82 14 -112 103q-16 49 -17 128q0 37 43 75q98 84 152 223q23 63 22 110q0 106 -96 117h-8q-119 0 -244 -233q-29 -55 -47 -152q-10 -49 -12 -87t-3 -67.5t-3 -51t-13 -34.5q-131 -174 -239 -174 q-90 0 -90 156q0 166 102 479q45 137 135 289l56 92l57 92q8 14 8 27q0 29 -98 45q-10 2 -31 2q-57 0 -117 -59q-49 -49 -123 -191q-90 -164 -135 -319q-70 -227 -69 -432q0 -326 211 -353q14 -2 27 -3t28 -1q184 0 307 174q8 14 18 15q12 0 35 -37q80 -137 230 -137 q180 0 370 260q88 119 159 265t128 322q10 35 29 35q8 0 23.5 -6t23.5 -6z" />
<glyph unicode="X" horiz-adv-x="1495" d="M1516 150q1 10 0 19q0 33 -11 60q-6 18 -16 7q-20 -29 -49 -52.5t-64 -44.5q-61 -37 -100 -37q-188 0 -293 121q-78 88 -147 307q-8 23 -8 45q0 30 16 54q147 242 295 405q160 178 243 178q20 0 43 -6t35 -6h6q31 0 31 43q0 27 -18 49q-43 49 -121 49q-59 0 -121 -26 q-98 -41 -246 -219q-66 -78 -107.5 -140.5t-62.5 -107.5q-18 -41 -37 -41q-14 0 -20 22l-25 108q-12 54 -22 107q-35 135 -80 205q-59 92 -154 105q-16 2 -31.5 3t-25.5 1q-80 0 -121 -60q-8 -10 -8 -26q0 -35 28 -35q7 0 15 2q10 2 19.5 3t17.5 1q45 0 86 -59 q49 -78 125 -623q2 -12 1 -23q0 -30 -11 -51q-76 -135 -279 -348q-242 -248 -387 -278l-50 -7q-22 -3 -38 -4q-29 0 -92 23q-12 4 -23 4q-55 0 -55 -59q0 -18 10 -39q45 -90 222 -90h16q350 4 723 606q16 23 28 22q18 0 35 -34q141 -295 473 -295q66 0 139 12 q115 18 201 104q11 11 15 46z" />
<glyph unicode="Y" horiz-adv-x="1681" d="M1702 150q1 10 1 19q0 33 -11 60q-6 18 -17 7q-20 -29 -49 -52.5t-63 -44.5q-61 -37 -101 -37q-27 0 -52.5 -1t-49.5 -3q-59 -6 -74 -6q-18 0 -20 12q-2 6 8 39q18 53 64 199l120 383q135 442 154 510q6 20 6 39q0 45 -84 61q-20 4 -36.5 6t-27.5 2q-49 0 -63 -43 q-74 -229 -299 -600q-236 -383 -381 -487q-73 -54 -128 -54q-13 0 -26 3q-25 6 -24 39q0 25 16 63q205 481 240 725q2 16 3 34.5t1 35.5q0 266 -268 282q-15 1 -30 1q-289 0 -431 -310q-39 -80 -39 -168q0 -82 37 -149q31 -57 72 -80q25 -12 47 -12q61 0 61 43q0 16 -16 28 q-25 20 -25 78q0 70 35 162q96 250 242 250q10 0 20 -1t21 -3q82 -14 81 -125q0 -35 -8 -60q-4 -16 -141 -383q-133 -354 -148 -426q-2 -12 -3 -24t-1 -23q0 -74 50 -116q45 -35 116 -35q123 0 250 80q113 74 254 237q57 68 104.5 132.5t84.5 127.5l12 17q6 2 6 -2t-1 -10.5 t-3 -16.5q-18 -68 -92 -258l-67 -165q-30 -71 -52 -118q-23 -45 -49 -53q-63 -23 -187 -127q-141 -123 -141 -203q0 -37 27 -57q49 -43 114 -43q117 0 260 139q123 123 160 234q12 33 49 49q35 18 87.5 24.5t110.5 12.5t114.5 19t101.5 44q16 10 31.5 23.5l32.5 29.5 q10 11 14 46z" />
<glyph unicode="Z" horiz-adv-x="1253" d="M1274 150q1 10 1 19q0 33 -11 60q-6 18 -17 7q-20 -29 -49 -52.5t-63 -44.5q-61 -37 -101 -37q-74 0 -95 6.5t-13 45.5q4 20 6 40.5t2 43.5q0 170 -123 311q-31 35 -4 49q260 131 295 367q2 16 3 30.5t1 28.5q0 125 -80 215q-74 80 -192 107q-47 10 -97 10 q-119 0 -219 -47q-119 -55 -158 -162q-18 -49 -18 -88q0 -106 98 -113h11q50 0 51 35q0 16 -15 29q-8 6 -2 49q6 45 27 65q74 80 172 80q39 0 86 -12q117 -31 117 -178q0 -41 -13 -80q-27 -96 -102 -176q-4 0 -94 -76q-25 -20 -49 -20q-7 0 -15 2q-55 14 -110 14 q-150 0 -158 -113v-10q0 -78 119 -78q61 0 151 23q11 3 21 3q31 0 43 -32q23 -61 22 -143q0 -127 -34 -191q-18 -33 -58 -33q-213 0 -385 -65q-281 -109 -303 -303q-1 -10 -1 -20q0 -115 179 -177q41 -14 101 -14q125 0 253 55t259 193q111 117 133 184q8 33 61 33 q47 0 85 3t67 7q115 18 201 104q10 11 14 46zM580 -29q0 -45 -105 -145q-41 -41 -77 -71.5t-64 -47.5q-82 -51 -156 -51q-94 0 -94 80q0 70 127 160q63 41 180 65l58 10q35 6 86 13q11 2 19 1q26 0 26 -14z" />
<glyph unicode="[" horiz-adv-x="681" d="M496 -297q0 10 20 37h-108l344 1546h112q-8 18 -8 37q0 14 14 37h-280l-377 -1694h291q-8 23 -8 37z" />
<glyph unicode="\" horiz-adv-x="569" d="M-59 1479l520 -1526h170l-514 1526h-176z" />
<glyph unicode="]" horiz-adv-x="681" d="M524 1323q0 -10 -20 -37h108l-344 -1546h-112q8 -18 8 -37q0 -14 -14 -37h280l377 1694h-291q8 -23 8 -37z" />
<glyph unicode="^" horiz-adv-x="1228" d="M877 406h120l-329 743h-107l-330 -743h121l262 589z" />
<glyph unicode="_" horiz-adv-x="1024" d="M1024 -254v102h-1024v-102h1024z" />
<glyph unicode="`" d="M207 1393q2 27 88 22q66 -4 96 -14q23 -10 29 -27q27 -82 53 -114q70 -78 107 -99q20 -8 20 -26q0 -14 -20 -29q-39 -23 -86 -4q-109 39 -197 129q-100 96 -90 162z" />
<glyph unicode="a" d="M1059 150q1 10 1 19q0 33 -11 60q-6 18 -17 7q-20 -29 -49 -52.5t-63 -44.5q-61 -37 -101 -37q-104 0 -137 33q-14 14 -14 41q0 29 14 72t35.5 101.5t54.5 133.5l115 254q6 16 6 30q0 19 -12 32q-14 12 -72 22q-38 8 -60 8q-11 0 -18 -2q-16 -6 -33 -22q-10 -10 -24 -33 q-12 -23 -45 -4q-66 35 -145 35h-9q-113 -2 -223 -64q-147 -82 -229 -239q-82 -156 -82 -289q0 -102 57 -166q55 -68 156 -68q104 0 219 103q80 72 110 133q4 8 11.5 14t11.5 4q2 -4 0 -12q-16 -61 -17 -90q0 -61 52.5 -99t195.5 -38q29 0 55.5 2t51.5 6q115 18 200 104 q11 11 15 46zM600 602q-96 -207 -190 -321l-57 -67l-31 -36q-53 -53 -93 -53q-74 0 -73 96q0 100 92 246q51 78 135 133q82 51 141 52q4 0 8 -1q70 -2 70 -37q0 -8 -2 -12z" />
<glyph unicode="b" horiz-adv-x="808" d="M618 319q57 152 58 259q0 147 -111 208q-31 18 -63 19q-51 0 -87 -43t-36 -96q0 -66 51 -99l49 -25q25 -13 23 -26q-20 -227 -189 -362q-23 -20 -55 -21q-70 0 -70 78q0 79 62 305q27 98 46 158.5t30 87.5q35 76 59 110q102 135 143 265q20 61 21 116q0 100 -82 113 q-11 2 -21 2q-95 0 -170 -133q-61 -111 -161 -430q-133 -442 -133 -582q0 -201 159 -227q33 -6 70 -6q150 0 274 121q90 89 133 208z" />
<glyph unicode="c" horiz-adv-x="712" d="M733 150q1 10 1 19q0 33 -11 60q-6 18 -16 7q-20 -29 -49 -51.5t-64 -43.5q-57 -33 -100 -37q-20 -1 -39 -1q-137 0 -207 67q-72 66 -72 162q0 41 8 82q25 147 115 213q55 36 109 36q10 0 20 -1q27 -4 36 -18.5t13 -30t9.5 -28t23.5 -12.5q20 -6 37 5q56 29 56 103 q0 10 -1 19q-8 115 -207 125q-8 0 -15 1q-125 0 -245 -97q-143 -119 -178 -334q-6 -35 -6 -69q0 -178 158 -269q125 -66 299 -65q31 0 58.5 2t51.5 6q115 18 201 104q10 11 14 46z" />
<glyph unicode="d" horiz-adv-x="1052" d="M1073 150q1 10 1 19q0 33 -11 60q-6 18 -16 7q-20 -29 -49 -52.5t-64 -44.5q-61 -37 -100 -37q-104 0 -138 33q-11 11 -11 46q0 28 7 71q20 104 135 432l134 330l108 256q5 12 5 24q0 25 -21 45q-10 10 -66 21q-27 3 -45 3t-29 -3q-39 -8 -67 -51q-10 -12 -101 -246 l-65 -168q-25 -61 -29 -78q-6 -20 -35 -14q-57 10 -95 16t-58 4q-84 -6 -187 -61q-164 -90 -239.5 -260t-75.5 -299q0 -100 51 -160q55 -66 152 -66q150 0 338 250q14 20 20 21q4 0 2 -15q-8 -41 -11 -66.5t-3 -35.5q0 -61 54 -100t194 -39q27 0 52.5 2t47.5 6 q115 18 201 104q10 11 14 46zM588 635q-4 -16 -21 -51l-45 -92l-58 -106q-26 -46 -46 -75l-53 -77q-20 -30 -31 -39q-53 -59 -101 -60q-68 0 -67 78q0 92 96 254q61 102 160 158q72 41 122 41h5q40 -3 40 -24q0 -3 -1 -7z" />
<glyph unicode="e" horiz-adv-x="790" d="M811 150q1 10 1 19q0 33 -11 60q-6 18 -17 7q-88 -119 -215 -132q-52 -5 -95 -4q-123 0 -189 37q-25 12 -25 21q0 2 10 12q39 29 79 64.5t81 80.5q131 141 148 240q6 37 6 70q0 147 -119 198q-31 14 -84 15q-94 0 -182 -50q-106 -57 -166 -174q-82 -162 -82 -303 q0 -162 110 -254q96 -78 332 -77q113 0 203 18q115 20 201 106q10 11 14 46zM395 678q59 0 60 -70q0 -49 -45 -125q-72 -123 -209 -209q-12 -9 -21 -8q-20 0 -20 45q0 92 65 230q29 61 79 99t91 38z" />
<glyph unicode="f" horiz-adv-x="788" d="M809 150q1 10 1 19q0 33 -11 60q-6 18 -17 7q-20 -29 -48.5 -52.5t-63.5 -44.5q-61 -37 -101 -37q-80 0 -147 23q-18 6 -29 35q-18 61 -55 88q-31 20 -31 37q0 12 21 26q86 57 202 197q143 170 205 334q82 213 82 329q0 168 -147 205q-29 6 -54 6q-213 0 -411 -481 q-80 -197 -172 -518l-67 -242q-26 -90 -34 -123q-23 -98 -35 -171.5t-12 -127.5q0 -160 103 -182q33 -8 71 -8q217 0 320 301q14 39 22.5 77t12.5 75q2 18 24 14q25 -5 57 -5q43 0 99 9q70 8 137 53q33 20 64 51q10 11 14 46zM612 1217q43 -6 43 -62q0 -78 -86 -256 q-131 -266 -270 -434q-23 -25 -29 -25q-4 0 -4 6q0 12 13 43l98 275l86 240q77 213 144 213h5zM266 4q0 -57 -30 -139q-68 -184 -124 -184q-5 0 -10 2q-29 6 -28 45q0 14 43 172q39 143 47 161q8 27 20 27q6 0 13 -6q41 -39 59 -49q10 -6 10 -29z" />
<glyph unicode="g" horiz-adv-x="1060" d="M1081 150q1 10 1 19q0 33 -11 60q-6 18 -16 7q-37 -45 -97 -86q-72 -47 -116 -48q-98 -4 -166 -18q-6 -2 -14 -2q-4 2 0 12q2 2 2 4t2 6l129 332q121 315 120 330q0 33 -34 49q-18 8 -64 10q-15 1 -26 1q-23 0 -33 -3q-35 -16 -43 -30q-20 -45 -43 -45q-12 0 -21 12 q-72 43 -155 43q-131 0 -263 -92q-129 -92 -200.5 -225.5t-71.5 -282.5q0 -205 178 -219q9 -1 18 -1q86 0 195 72q96 66 125 115q8 14 19 14q16 0 6 -16l-57 -125l-54 -117q-14 -10 -29 -18q-51 -27 -106 -80q-63 -61 -87 -107.5t-24 -85.5q0 -47 31 -73.5t76 -26.5 q66 0 143 70q84 68 185 303q25 59 157 78q43 4 75 8t54 6q115 18 201 104q10 11 14 46zM625 598q-45 -115 -136 -242q-164 -227 -245 -227q-72 0 -72 88q0 80 80 209q31 49 67.5 92t76.5 74t80 49t77 18q31 0 57 -13q18 -9 19 -28q0 -9 -4 -20z" />
<glyph unicode="h" horiz-adv-x="1036" d="M1057 150q1 10 1 19q0 33 -11 60q-6 18 -17 7q-20 -29 -49 -52.5t-63 -44.5q-61 -37 -101 -37q-82 0 -127 18.5t-45 63.5q0 35 14 76l73 219q32 96 59 168q6 20 6 41q0 102 -90 131q-25 8 -60 8q-100 0 -176 -73q-25 -23 -53 -57l-64 -74l-48 -60q-17 -23 -21 -31 q-2 -8 -9 -8q-20 0 -6 33l76 194l186 478q12 31 13 53q0 31 -31 55q-14 10 -70 15q-53 0 -73 -6q-37 -12 -60 -60q-25 -57 -161 -500q-78 -258 -126.5 -437t-68.5 -283q-2 -10 -2 -19q0 -43 43 -53q6 -2 17 -2q22 0 63 8q41 6 57 59q41 129 160 310q139 211 205 249 q33 20 53 21q20 0 20 -25q0 -12 -2 -18l-31 -90l-32 -90q-57 -168 -68 -226q-2 -16 -3 -29.5t-1 -21.5q0 -63 70.5 -106t224.5 -43q31 0 58.5 3t54.5 7q115 18 200 104q11 11 15 46z" />
<glyph unicode="i" horiz-adv-x="559" d="M506 1186q16 29 16 67q0 70 -65 99q-18 6 -39 6q-82 0 -109 -55q-29 -53 -28 -97q0 -63 65 -92q18 -8 43 -8q68 0 117 80zM580 150q1 10 0 19q0 33 -11 60q-6 18 -16 7q-20 -29 -49 -52.5t-64 -44.5q-61 -37 -100 -37q-106 0 -147 35q-14 12 -15 39q0 23 17 78l88 262 l79 240q4 25 -7 47t-29 26q-30 8 -63 9q-40 0 -83 -13q-35 -10 -47 -61l-40 -131l-40 -131q-35 -117 -52 -187.5t-19 -93.5q0 -37 3 -63.5t14 -48t29.5 -41t49.5 -41.5q51 -35 182 -35q29 0 54.5 2t50.5 6q115 18 200 104q11 11 15 46z" />
<glyph unicode="j" horiz-adv-x="559" d="M479 1186q16 29 17 67q0 70 -66 99q-18 6 -39 6q-82 0 -108 -55q-29 -53 -29 -97q0 -63 65 -92q18 -8 43 -8q68 0 117 80zM580 150q1 10 0 19q0 33 -11 60q-6 18 -16 7q-20 -29 -49 -52.5t-64 -44.5q-61 -37 -100 -37q-133 0 -164 -8q-12 -2 -14 0q-4 4 -2 19l18 75 q8 35 17 64l88 267l79 237q4 25 -7 47t-29 26q-30 8 -63 9q-40 0 -83 -13q-35 -10 -47 -61l-45 -143l-45 -144q-39 -141 -59.5 -243.5t-22.5 -167.5q0 -41 -12 -62l-25 -62l-18 -51q-10 -25 -25 -32q-147 -92 -147 -215q0 -66 51 -93q29 -16 59 -16q76 0 148 98 q14 20 29.5 56.5t36 89.5l33.5 84t20 41q39 57 67 73q25 10 66 11q66 4 121 12q115 18 200 104q11 11 15 46z" />
<glyph unicode="k" horiz-adv-x="888" d="M909 150q1 10 1 19q0 33 -11 60q-6 18 -16 7q-20 -29 -49 -52.5t-64 -44.5q-61 -37 -100 -37q-80 0 -105 9q-47 12 -46 57q0 8 1 18q23 117 25 156q1 6 0 11q0 47 -47 75q-25 14 -6 27q156 111 196 256q6 25 6 45q0 68 -82 75q-7 1 -14 1q-63 0 -74 -70q-10 -61 -43 -144 q-14 -37 -25.5 -61.5t-19.5 -34.5q-35 -45 -49 -47q-29 -2 -51.5 -3t-38.5 1q-16 -4 -21 0q-6 4 -4 10q2 10 4 19l5 16l138 383l130 359q6 18 6 34q0 57 -98 62h-6q-107 0 -136 -72q-35 -92 -190 -602l-37 -121l-34 -110.5l-29 -95l-25.5 -85l-20.5 -70t-17 -61l-11.5 -46.5 t-8 -37t-2.5 -23q0 -41 76 -41q90 0 105 39l47 135l35 104q16 49 30 47q9 -1 19 0q41 0 86 15q41 14 31 -27l-22 -134q-6 -39 -5 -58q0 -55 75 -88q73 -33 177 -33q53 0 100 8q115 18 201 104q10 11 14 46z" />
<glyph unicode="l" horiz-adv-x="534" d="M555 150q1 10 1 19q0 33 -11 60q-6 18 -17 7q-20 -29 -48.5 -52.5t-63.5 -44.5q-61 -37 -101 -37q-111 0 -139 29q-14 14 -14 41q0 23 14 80q45 203 160 547q31 70 43 86q98 131 141 258q12 39 12 74q0 55 -27.5 90.5t-70.5 40.5q-7 1 -13 0q-117 0 -183 -174 q-66 -166 -142 -433q-94 -332 -110 -495q-2 -25 -3 -43.5t-1 -32.5q0 -109 81 -154q61 -29 154 -28q57 0 123 12q115 18 201 104q10 11 14 46z" />
<glyph unicode="m" horiz-adv-x="1462" d="M1483 150q1 10 1 19q0 33 -11 60q-6 18 -17 7q-39 -55 -113 -97q-61 -35 -100 -37q-11 -1 -22 0q-63 0 -97 21q-29 16 -28 47q0 12 6 35q2 4 18 49l49 133q61 162 80 234q12 43 13 77q0 80 -66 111q-39 20 -82 20q-78 0 -174 -77q-61 -51 -135 -146q-61 -78 -64 -78 q-10 0 7 35q39 86 38 150q0 96 -102 114q-10 2 -18.5 3t-16.5 1q-160 0 -340 -272q-35 -53 -35 -22q0 20 35 118q29 80 49 119q8 14 9 29q0 31 -45 49q-31 14 -72 14q-86 0 -100 -61l-110 -398l-101 -364q-10 -49 88 -49t114 41q27 61 135 256q121 221 179 287q69 82 111 82 q3 0 5 -1q25 -4 26 -30q0 -14 -7 -33l-115 -294l-102 -263q-2 -6 -2 -11q0 -36 98 -36q100 0 117 47q12 39 51 108.5t104 169.5l98 146q44 63 81 110q55 70 84 70q31 0 30 -31q0 -23 -26 -73q-18 -37 -39 -85t-43 -108q-51 -139 -52 -196q0 -96 113 -140q63 -23 154 -22 q61 0 127 12q115 18 200 104q11 11 15 46z" />
<glyph unicode="n" horiz-adv-x="1005" d="M1026 150q1 10 1 19q0 33 -11 60q-6 18 -17 7q-20 -29 -48.5 -52.5t-63.5 -44.5q-61 -37 -101 -37q-86 0 -116.5 18.5t-30.5 49.5q0 12 6 35q2 4 19 49l49 133q61 162 80 234q14 51 14 92q0 80 -80 114q-29 12 -61 13q-154 0 -367 -269q-8 -14 -20 -14t-3 25 q51 156 68 215q8 37 -6 51t-70 16q-11 0 -20 1q-37 0 -53 -7q-41 -14 -58 -55q-4 -14 -29 -110l-71 -275q-92 -371 -92 -393q0 -29 28 -39q20 -6 40 -6q40 0 81 24q25 16 33 49q10 33 36.5 90.5t72.5 143.5q106 203 191 286q74 73 115 74q6 0 11 -2q18 -6 18 -27 q0 -29 -24 -73l-37 -83t-43 -112q-49 -145 -49 -200q0 -96 110 -140q66 -23 149 -23q62 0 134 13q115 18 201 104q10 11 14 46z" />
<glyph unicode="o" horiz-adv-x="843" d="M659 737q-41 23 -77 23q-113 0 -113 -131q0 -70 45 -103q23 -16 23 -43q0 -29 -33 -121q-37 -115 -74 -165q-68 -96 -151 -97q-29 0 -56 15q-37 20 -37 82q0 84 68 235q45 100 135 209q68 86 98 102q37 20 17 48q-14 20 -66 20q-104 -4 -223 -94q-135 -102 -188 -260 q-43 -133 -43 -226q0 -168 143 -229q63 -25 133 -25q242 0 375 269q88 178 88 325q-1 129 -64 166z" />
<glyph unicode="p" horiz-adv-x="987" d="M1008 150q1 10 1 19q0 33 -12 60q-6 18 -16 7q-37 -53 -109 -95q-59 -31 -100 -37q-40 -5 -73 -5q-58 0 -97 16q-18 6 6 30q35 35 92 121q82 125 93 209q12 94 12 131q0 123 -121 182q-41 20 -88 21q-127 0 -303 -207q-6 -8 -10 -4q-4 2 0 18q29 109 48 172.5t27 85.5 q5 13 6 25q0 27 -32 41q-16 8 -68 8q-49 -4 -61 -8q-29 -12 -43 -43l-91 -318l-85 -311l-131 -429q-53 -171 -86 -257q-3 -9 -4 -16q0 -23 28 -37q23 -12 58 -12t83 12q41 8 58 47l59 213l57 201q10 12 27 10q72 -8 104.5 -11t26.5 -3l82 14q35 6 57 14q16 4 35 -4 q51 -18 185 -24q15 -1 30 -1q24 0 49 2q43 3 91 13q115 18 200 104q11 11 15 46zM557 358q-53 -111 -117 -184q-23 -27 -32 -27h-2q-53 31 -150 31q-37 0 -55.5 -7t-28.5 -5q-7 1 -7 10q0 4 1 8q20 68 129 234q115 172 174 207q29 16 55 16q39 0 65 -28q24 -26 24 -68 q-1 -72 -56 -187z" />
<glyph unicode="q" horiz-adv-x="1052" d="M1073 150q1 10 1 19q0 33 -11 60q-6 18 -16 7q-20 -29 -49 -52.5t-64 -44.5q-61 -37 -100 -37q-133 0 -158 -8q-20 -6 -23 0q0 6 11 43l98 323l90 292q6 14 6 26q0 47 -88 49q-13 1 -24 1q-71 0 -87 -33q-14 -39 -43 -23q-70 45 -153 45q-141 0 -266 -106 q-106 -90 -177 -234q-59 -125 -59 -237q0 -203 170 -244q20 -6 45 -6q141 0 287 182q29 35 33 35t4 -6t-6 -25q-2 -2 -95 -287q-82 -244 -84 -272q-1 -7 0 -13q0 -73 84 -75h5q100 0 122 90l19.5 90l19.5 90q39 143 103 174q33 16 73 17q35 2 64 4t53 6q115 18 201 104 q10 11 14 46zM520 682q70 0 70 -49q0 -74 -121 -262l-70 -105q-29 -41 -45 -59q-61 -74 -118 -74q-20 0 -35 6q-43 14 -43 76q0 119 114 277q137 190 248 190z" />
<glyph unicode="r" horiz-adv-x="847" d="M868 150q1 10 1 19q0 33 -11 60q-6 18 -16 7q-39 -55 -113 -97q-61 -35 -100 -37q-29 -2 -51 -1q-32 0 -48 3q-49 10 -49 53q0 9 2 19q4 18 21.5 66.5t50.5 126.5q66 160 72 192q1 9 1 17q0 42 -34 71q-25 20 -98 62q-37 20 -61.5 31.5l-39 18.5t-18.5 13t0 19 q12 35 10 53q-8 98 -88 100h-3q-91 0 -114 -115q-2 -10 -3 -20t-1 -18q0 -27 12.5 -51.5t14.5 -36.5q0 -2 -1 -5.5t-3 -11.5q-37 -133 -105 -270q-61 -125 -102 -176q-59 -68 -92 -92q-45 -33 -119 -50q-8 -2 -8 -20q0 -37 14 -68q5 -13 14 -13q2 0 4 1q90 14 170 76 q129 106 216 276q2 4 28 69l78 191q10 29 27 19q68 -37 82 -66q14 -31 0 -55q-16 -27 -50 -119q-23 -59 -38 -110.5t-25 -98.5q-6 -29 -6 -49q0 -82 89 -123q51 -23 133 -23q62 0 142 13q111 14 201 104q10 11 14 46z" />
<glyph unicode="s" horiz-adv-x="847" d="M868 150q1 10 1 19q0 33 -11 60q-6 18 -16 7q-39 -55 -113 -97q-61 -35 -100 -37q-23 -1 -41 -1q-49 0 -62 9q-16 11 -2 25q18 18 49 74q20 39 29.5 72.5t11.5 62.5q0 8 1 16q0 98 -48 191q-20 41 -38.5 69.5t-39.5 45.5q-10 8 0 36l13 26l22 46q23 43 27 70q2 76 -98 80 h-6q-49 0 -105 -35q-55 -33 -66 -84q-2 -10 -3 -19.5t-1 -17.5q0 -27 11.5 -52.5t9.5 -39.5q-18 -55 -137 -223l-95 -130q-41 -54 -69 -87q-102 -115 -209 -134q-8 -2 -8 -22q0 -37 14 -68q2 -12 21 -12q94 18 155 68q8 8 21 -2q77 -79 208 -79q13 0 25 1q72 4 109 12 q2 2 51 20q14 4 24 -2q27 -18 115 -24q22 -1 42 -1q51 0 93 7q115 18 201 104q10 11 14 46zM381 276q-39 -125 -137 -157q-17 -5 -27 -5q-14 0 -16 9q-12 53 -47 70q-25 8 -25 20q0 6 10 20q27 31 105 129q88 117 96 136q6 14 16 14q2 1 5 1q7 0 12 -11q23 -49 22 -125 q0 -58 -14 -101z" />
<glyph unicode="t" horiz-adv-x="571" d="M592 150q1 10 1 19q0 33 -11 60q-6 18 -17 7q-20 -29 -49 -52.5t-63 -44.5q-61 -37 -101 -37q-82 0 -131 50q-22 22 -22 56q0 21 8 46l60 201l50 176q8 18 25 18q147 0 139 -2q20 2 27 19q15 34 15 58q0 6 -1 11q-4 25 -16 27q-35 2 -65.5 3t-55.5 1q-20 6 -16 25l57 183 l57 175q2 11 2 20q0 34 -24 41q-39 10 -77.5 10.5t-76.5 -10.5q-35 -10 -43 -30l-61 -202l-53 -183q-14 -20 -25 -21h-12q-6 0 -21 2h-33q-29 0 -43 -20q-8 -23 -13 -39l-9 -29q-4 -9 -4 -15q0 -11 12 -14q25 -2 44.5 -3t35.5 -1q20 -6 18 -20q-2 -4 -14 -49l-37 -131 q-51 -174 -53 -222q-1 -13 -1 -24q0 -118 91 -178q66 -41 186 -41q47 0 105 10q115 18 201 104q10 11 14 46z" />
<glyph unicode="u" horiz-adv-x="1011" d="M1032 150q1 10 1 19q0 33 -11 60q-6 18 -16 7q-20 -29 -49 -52.5t-64 -44.5q-61 -37 -100 -37q-102 0 -142 39q-14 14 -14 50q0 27 8 65q10 45 80 250q66 199 80 225.5t14 46.5q0 37 -96 47l-23 2q-84 0 -104 -71q-14 -45 -39 -109.5t-63 -152.5q-102 -229 -168 -295 q-55 -55 -86 -56q-55 0 -56 45q0 10 3 28l8 42q8 47 86 248l54 141l34 84q10 25 10 37q0 41 -82 66q-45 14 -80 14q-51 0 -65 -45q-168 -508 -177 -604q-2 -16 -3 -29.5t-1 -24.5q0 -111 92 -143q39 -12 80 -12q164 0 324 229q4 8 8 12l6 7q4 4 4 -2q0 -8 -2 -17 q-12 -61 -12 -94q0 -63 41 -92q63 -43 199 -43q29 0 54.5 3t51.5 7q115 18 201 104q10 11 14 46z" />
<glyph unicode="v" horiz-adv-x="770" d="M668 674v14q0 128 -111 127q-63 0 -105 -44q-44 -46 -45 -115q0 -52 35 -91l27 -26q4 -10 -2 -43q-8 -35 -26.5 -80t-51.5 -103q-63 -115 -111.5 -158.5t-89.5 -43.5q-63 0 -63 71q0 143 186 514q16 33 17 58q0 59 -76 73q-41 8 -64 9q-37 0 -61 -35q-45 -61 -111 -242 q-41 -117 -60 -207q-16 -74 -16 -133q0 -12 1 -24q8 -154 131 -197q33 -12 69 -12q102 0 215 82q86 61 189 239q117 203 123 367z" />
<glyph unicode="w" horiz-adv-x="1161" d="M1059 680q0 63 -37 100q-33 33 -84 33q-61 0 -96 -47t-37 -111v-5q0 -83 61 -107q10 -4 4 -56q-8 -63 -67 -168q-57 -98 -109 -147q-53 -51 -98 -51q-55 0 -55 59q0 92 55 250q18 53 36.5 98t35.5 80q14 27 14 47q0 41 -80 58q-10 2 -19.5 3t-19.5 1q-66 0 -90 -60 q-66 -164 -96 -329q-8 -41 -35 -71l-51 -58q-20 -16 -42 -29.5t-46 -22.5q-16 -6 -29 -6q-47 0 -47 58v10q6 113 88 315q59 150 104 230q4 12 5 16q0 49 -84 49q-53 0 -74 -4q-35 -10 -55 -41q-76 -125 -123 -287q-48 -154 -48 -270q0 -13 1 -27q2 -84 41 -141 q41 -62 115 -62q7 0 14 1q121 10 225 98q27 25 39 -4q27 -68 98 -86q43 -14 86 -14q92 0 199 75q88 66 184 244q117 216 117 379z" />
<glyph unicode="x" horiz-adv-x="847" d="M868 150q1 10 1 19q0 33 -11 60q-6 18 -16 7q-20 -29 -49 -52.5t-64 -44.5q-61 -37 -100 -37q-88 0 -105 9q-74 33 -129 116q-16 25 -30 74l-12 42l-17 69q-2 20 6 34q33 43 78 92.5t102 102.5q57 55 129 55q50 0 50 50q0 6 -1 12q-6 63 -79 63q-33 0 -68 -14 q-72 -29 -244 -215q-14 -14 -20 14q-8 33 -16.5 58.5t-18.5 48.5q-53 117 -148 116q-39 0 -69 -25q-29 -24 -29 -60q0 -22 7 -32q5 -7 22 -20q23 -25 24 -39q25 -57 68 -225q10 -29 -6 -45l-84 -96l-47 -54q-119 -133 -236 -133h-4q-14 0 -20 -16q-8 -23 -11.5 -44.5 t-5.5 -37.5q0 -6 9 -8q4 -1 11 -1t17 1q129 8 234 86q86 66 170 162q14 14 22 -6q51 -156 193 -224q57 -27 141 -27q63 0 141 15q115 18 201 104q10 11 14 46z" />
<glyph unicode="y" horiz-adv-x="993" d="M1014 150q1 10 1 19q0 33 -11 60q-6 18 -17 7q-37 -45 -96 -86q-68 -43 -117 -48q-41 -2 -67 -2q-25 0 -33 -2q-55 -6 -65.5 -8t-12.5 -2q-4 4 -4 8q4 6 6 21q219 639 219 653q0 33 -35 49q-18 8 -53 10q-37 4 -47 0q-35 -12 -43 -30l-72 -161l-69 -157 q-113 -225 -183 -278q-42 -31 -81 -31q-15 0 -29 4q-37 13 -37 84v14q2 35 86 254q80 205 98 234q23 35 -4 55q-47 35 -94 35q-8 0 -17.5 -1t-19.5 -3q-41 -6 -59 -37q-23 -39 -50.5 -99.5t-56.5 -144.5q-76 -219 -76 -366q0 -16 1 -32.5t4 -31.5q4 -27 18 -51.5t33.5 -42.5 t42 -30.5t43.5 -12.5q9 -1 18 -1q87 0 191 85q84 72 120 133q8 14 19 14q16 0 6 -16l-98 -264q-8 -20 -17 -25q-35 -20 -94 -73q-70 -66 -98 -121q-31 -61 -31 -105q0 -82 88 -82q57 0 141 72q45 39 109 162q66 131 70 137q39 43 53 55q18 12 76 17q86 2 129 12 q115 18 200 104q11 11 15 46z" />
<glyph unicode="z" horiz-adv-x="839" d="M860 150q1 10 1 19q0 33 -11 60q-6 18 -16 7q-41 -53 -107 -93q-61 -37 -113 -39q-56 -5 -94 -4q-47 0 -69 6q-10 4 -15 11q-29 39 -33 45l-20 20q-10 10 -23 21q-31 25 -4 30q74 18 138 74q92 82 100 191q2 16 2 28v29q0 215 -209 262q-25 6 -47 6q-70 0 -118 -42 t-48 -99t37 -57q10 0 30.5 13t45.5 13q29 0 57 -18q55 -41 55 -96q0 -20 -10 -56q-25 -70 -131 -121q-80 -39 -132 -39q-5 0 -9 1h-4q-48 0 -60 -48q-4 -20 -4 -32q0 -24 14 -27q119 -16 185 -90q18 -23 18 -31t-20 -14l-102 -33q-38 -12 -52 -20q-123 -57 -174 -162 q-39 -78 -39 -141q0 -102 109 -164q51 -31 131 -31q180 0 274 143q97 143 97 274q0 8 -1 15q-2 14 -2 21q0 6 0 2q0 6 11 6q15 -2 33 -2q48 0 114 12q115 18 201 104q10 11 14 46zM287 -55q-4 -57 -15 -97q-14 -61 -65 -114q-59 -59 -113 -60q-33 0 -54.5 21.5t-21.5 52.5 q0 51 45 105q76 94 168 110q22 5 36 5q10 0 14 -3q6 -4 6 -20z" />
<glyph unicode="{" horiz-adv-x="909" d="M154 399q51 0 79.5 -41t26.5 -94q-2 -27 -7 -54.5t-15 -57.5l-129 -379q-20 -59 -21 -117q0 -63 43 -108.5t107 -45.5h147l43 127h-102q-59 0 -60 70q0 41 23 108l129 377q25 70 24 133q0 53 -28.5 95.5t-77.5 52.5l2 6q57 8 129 66q98 80 141 206l131 381 q61 178 160 179h102l43 127h-147q-221 0 -313 -271l-131 -383q-18 -53 -47 -96t-64 -76t-72 -50t-69 -17z" />
<glyph unicode="|" horiz-adv-x="454" d="M168 0h119v1479h-119v-1479z" />
<glyph unicode="}" horiz-adv-x="909" d="M655 530q-51 0 -79.5 41t-26.5 95q2 27 7 54.5t15 57.5l129 381q20 59 21 117q0 63 -43 108.5t-107 45.5h-147l-43 -127h102q59 0 60 -70q0 -41 -23 -109l-129 -379q-25 -72 -24 -133q0 -53 28.5 -95t77.5 -52l-2 -6q-57 -8 -129 -66q-98 -80 -141 -207l-131 -379 q-61 -178 -158 -178h-102l-43 -127h147q219 0 311 271l131 381q18 51 47 95t64 76.5t70.5 50t70.5 17.5z" />
<glyph unicode="~" horiz-adv-x="1228" d="M1014 520q-96 -147 -180 -147q-41 0 -209 73q-154 66 -228 66q-164 0 -256 -176l74 -127q68 147 172 147t236 -71q123 -68 208 -68q82 0 154 55q41 35 102 121z" />
<glyph unicode="&#xa1;" horiz-adv-x="983" d="M229 125q-4 -16 -4 -27q0 -66 82 -92q57 -18 94 -18q51 0 68 43l37 129l86 309l82 302q29 103 33 116q8 51 -43 65q-82 20 -103 -10q-14 -20 -168 -401l-115 -290q-41 -103 -49 -126zM629 1266q-8 -27 -8 -58q0 -104 100 -112q61 -6 95 18.5t58 104.5q6 25 7 45 q0 86 -93 96q-55 6 -100 -18.5t-59 -75.5z" />
<glyph unicode="&#xa2;" horiz-adv-x="985" d="M668 649q41 0 49 15q6 10 14 31.5l19 52.5q20 61 20 81q0 90 -129 119q8 29 23 72l34 102q27 72 27 105q0 39 -78 39q-20 0 -49 -84q-59 -170 -86 -234q-162 -27 -303 -168q-145 -150 -146 -305q0 -117 44.5 -178t150.5 -88l-30 -82l-48 -131q-37 -102 -37 -117 q0 -55 101 -55q25 0 51 88l60 178l42 119q106 8 209 61q72 39 121 69t74 52q16 16 16 60q0 68 -4 93t-18 25q4 0 -68 -53q-80 -61 -158 -102q-111 -53 -196 -54q-113 0 -113 105q0 119 109 240q94 106 163 106q37 0 37 -33q0 -14 -20 -61q-18 -47 -19 -49q0 -18 19 -19h119z " />
<glyph unicode="&#xa3;" horiz-adv-x="985" d="M158 563q-25 0 -33 -24l-34 -86l-11 -29q0 -12 22 -12h168q-53 -145 -129 -222l-98.5 11.5t-26.5 3.5q-63 0 -120 -25q-72 -35 -72 -88q0 -102 168 -102q84 0 178 35q104 -25 195 -25q154 0 261 3t167 11l51 181q-227 -43 -363 -43q-145 0 -147 12q57 72 135 248h186 q10 0 16.5 21.5t24.5 68.5q16 43 17 53q0 8 -27 8h-160l33 94q43 121 103 217q74 115 133 115q45 0 49 -43q4 -35 -45 -137q-47 -104 -47 -111q0 -6 28 -6q18 0 162 33q70 152 70 229q0 92 -53.5 149.5t-145.5 57.5q-252 0 -407 -405l-74 -193h-174z" />
<glyph unicode="&#xa4;" horiz-adv-x="985" d="M104 221l74 -71l84 88q88 -82 234 -82q137 0 227 84l86 -90l72 71l-84 86q76 94 75 232q0 143 -75 225l84 84l-78 78l-86 -84q-86 74 -219 73q-143 0 -232 -75l-86 86l-76 -76l89 -88q-80 -80 -80 -227q0 -129 75 -224zM498 799q104 0 176 -78q74 -78 74 -182 q0 -109 -74 -189q-72 -78 -178 -78t-182 76t-76 187t75 186q79 78 185 78z" />
<glyph unicode="&#xa5;" horiz-adv-x="985" d="M592 594l78 80h198q16 0 29 39q8 25 8 43q0 16 -12 16h-135l344 369q6 6 6 12q0 8 -61 8q-57 0 -66 -8l-403 -432l-84 416q-4 25 -113 24q-104 0 -105 -28q0 -4 7 -35l65 -326h-149q-16 0 -28.5 -24.5t-12.5 -38.5q0 -35 10 -35h199l16 -80h-180q-16 0 -28.5 -24.5 t-12.5 -39.5q0 -35 10 -34h188l-157 -433q-14 -37 -15 -40q0 -23 103 -23q98 0 108 29l168 467h201q16 0 29 39q8 25 8 43q0 16 -12 16h-201z" />
<glyph unicode="&#xa6;" horiz-adv-x="454" d="M168 0h119v553h-119v-553zM168 926h119v553h-119v-553z" />
<glyph unicode="&#xa7;" horiz-adv-x="1138" d="M672 307q125 -6 211 68q88 74 88 196q0 119 -101 244l-93 103l-93 102q-100 113 -100 205q0 45 53 80q45 27 96 26q84 0 135 -45q14 -10 66 -80q33 -45 74 -45q76 0 75 82q0 78 -104 156q-111 80 -240 80q-139 0 -227 -62q-104 -72 -104 -200q0 -90 63 -185 q-143 0 -207 -49q-102 -78 -102 -221q0 -111 100 -238l93 -104l94 -103q100 -113 100 -184q0 -25 -12.5 -47.5t-32 -39.5t-45 -26.5t-51.5 -9.5q-84 0 -142 45q-25 18 -73 80q-33 45 -62 45q-31 0 -53.5 -20.5t-22.5 -50.5q0 -106 107 -177q94 -68 221 -67q170 0 258 82 q84 78 84 207q0 35 -17 73zM795 551q0 -117 -146 -117q-74 0 -194 133q-117 131 -117 211q0 127 131 127q96 0 209 -131q117 -129 117 -223z" />
<glyph unicode="&#xa8;" horiz-adv-x="559" d="M793 1186q16 29 16 67q0 70 -66 99q-18 6 -38 6q-82 0 -109 -55q-29 -53 -29 -97q0 -63 66 -92q18 -8 43 -8q68 0 117 80zM506 1186q16 29 16 67q0 70 -65 99q-18 6 -39 6q-82 0 -109 -55q-29 -53 -28 -97q0 -63 65 -92q18 -8 43 -8q68 0 117 80z" />
<glyph unicode="&#xa9;" horiz-adv-x="1638" d="M821 -47q307 0 525 205q225 213 225 534q0 319 -225 533q-217 205 -525 205q-311 0 -528 -205q-225 -213 -225 -533q0 -322 225 -534q217 -205 528 -205zM236 692q0 260 167.5 434t417.5 174q244 0 414 -176q168 -174 168 -432q0 -264 -168 -438q-166 -174 -414 -174 q-250 0 -417.5 174t-167.5 438zM1067 559q-12 -82 -70.5 -130t-150.5 -48q-121 0 -197 92q-74 92 -74 223q0 137 71 223.5t196 86.5q86 0 147.5 -46.5t77.5 -123.5h139q-18 147 -123 229q-100 78 -241 78q-197 0 -311.5 -127t-114.5 -322t116 -319q119 -131 314 -131 q137 0 236.5 84t125.5 231h-141z" />
<glyph unicode="&#xaa;" d="M1059 150q1 10 1 19q0 33 -11 60q-6 18 -17 7q-20 -29 -49 -52.5t-63 -44.5q-61 -37 -101 -37q-104 0 -137 33q-14 14 -14 41q0 29 14 72t35.5 101.5t54.5 133.5l115 254q6 16 6 30q0 19 -12 32q-14 12 -72 22q-38 8 -60 8q-11 0 -18 -2q-16 -6 -33 -22q-10 -10 -24 -33 q-12 -23 -45 -4q-66 35 -145 35h-9q-113 -2 -223 -64q-147 -82 -229 -239q-82 -156 -82 -289q0 -102 57 -166q55 -68 156 -68q104 0 219 103q80 72 110 133q4 8 11.5 14t11.5 4q2 -4 0 -12q-16 -61 -17 -90q0 -61 52.5 -99t195.5 -38q29 0 55.5 2t51.5 6q115 18 200 104 q11 11 15 46zM600 602q-96 -207 -190 -321l-57 -67l-31 -36q-53 -53 -93 -53q-74 0 -73 96q0 100 92 246q51 78 135 133q82 51 141 52q4 0 8 -1q70 -2 70 -37q0 -8 -2 -12z" />
<glyph unicode="&#xab;" horiz-adv-x="833" d="M666 393l100 96l63 60q-57 -4 -94 -6t-57 -2h-43q-20 0 -43 2q-35 -51 -88 -110.5t-125 -131.5l65 -117q33 -57 52 -129q18 2 37.5 3t41.5 1q-6 0 134 -6q-59 82 -86 135q-41 82 -62 113q70 57 105 92zM367 387q59 76 157 162q-53 -4 -90 -6t-57 -2h-45q-20 0 -43 2 q-74 -123 -183 -244q100 -150 132 -244q16 2 35.5 3t41.5 1q-6 0 134 -6l-94 147l-66 103q16 14 35.5 34.5t42.5 49.5z" />
<glyph unicode="&#xad;" horiz-adv-x="790" d="M565 397q41 0 67.5 31t26.5 74q0 37 -41 41q-141 2 -260.5 3t-224.5 1q-53 6 -84 -64q-23 -51 -22 -65q0 -23 28 -19q74 6 275 0q35 -2 92 -2h143z" />
<glyph unicode="&#xae;" horiz-adv-x="1638" d="M821 -47q307 0 525 205q225 213 225 534q0 319 -225 533q-217 205 -525 205q-311 0 -528 -205q-225 -213 -225 -533q0 -322 225 -534q217 -205 528 -205zM236 692q0 260 167.5 434t417.5 174q244 0 414 -176q168 -174 168 -432q0 -264 -168 -438q-166 -174 -414 -174 q-250 0 -417.5 174t-167.5 438zM672 633h133l219 -367h152l-238 373q223 25 223 231q0 244 -309 244h-320v-848h140v367zM672 748v251h168q182 0 182 -118q0 -86 -57 -113q-39 -20 -138 -20h-155z" />
<glyph unicode="&#xb0;" horiz-adv-x="819" d="M471 1067q86 0 136 -55.5t50 -143.5t-50 -143t-136 -55t-136 55t-50 143t50 143.5t136 55.5zM471 575q123 0 207 84q86 86 86 209t-86 207q-84 86 -207 86t-209 -86q-84 -84 -84 -207q0 -121 84 -209q88 -84 209 -84z" />
<glyph unicode="&#xb1;" horiz-adv-x="1228" d="M555 508h-305v-119h305v-221h119v221h305v119h-305v221h-119v-221zM250 0h729v119h-729v-119z" />
<glyph unicode="&#xb2;" horiz-adv-x="929" d="M889 958q8 186 -109 295q-109 98 -286 99q-68 0 -144 -17q-72 -16 -74 -92q-4 -104 52 -104q10 0 26 6q66 27 111 26q27 2 62.5 -8t68.5 -33.5t55.5 -62.5t20.5 -90q0 -29 -10 -66q-66 -219 -340 -493l-109 -93l-109 -94q-174 -154 -174 -190q0 -53 72 -47q98 6 365 6 q270 0 317 -8q31 -6 47 16q14 18 29 64q12 33 12 57q0 41 -49 51q-16 2 -38.5 3t-55.5 1q-72 0 -197 -6q-123 -6 -125 -6q-35 0 -35 8t25 31l192 174q78 72 119 115q275 286 281 458z" />
<glyph unicode="&#xb3;" horiz-adv-x="890" d="M797 1010q6 55 -8.5 107t-46 96t-80 76t-109.5 44q-88 20 -174 15q-43 -2 -66 -70q-10 -37 -10 -59q0 -63 64 -56q8 2 18 2h21q84 0 135 -32q74 -47 61 -148q-12 -102 -113 -158q-74 -43 -151 -45q-53 -4 -49 -73q4 -61 39 -70q14 -4 32.5 -6t40.5 -4q33 -4 80 -19 q76 -27 76 -159q0 -72 -35 -125q-100 -156 -264 -156q-109 0 -229 63q-12 6 -25 7q-31 0 -41 -72q-10 -100 27 -121l44 -27q17 -10 27 -14q47 -14 140 -22q133 -14 297 57q188 90 245 242q37 98 37 178q0 158 -168 268q-16 10 -16 14q0 2 22 19q167 105 179 248z" />
<glyph unicode="&#xb4;" horiz-adv-x="1011" d="M885 1393q-2 27 -88 22q-66 -4 -97 -14q-23 -10 -28 -27q-27 -82 -54 -114q-70 -78 -106 -99q-20 -8 -20 -26q0 -14 20 -29q39 -23 86 -4q106 39 197 129q100 96 90 162z" />
<glyph unicode="&#xb6;" horiz-adv-x="1228" d="M119 -389h168l579 1687h236l-580 -1687h168l623 1819h-533q-475 0 -608 -386q-20 -59 -20 -118q0 -117 86 -185.5t245 -68.5z" />
<glyph unicode="&#xb7;" horiz-adv-x="491" d="M195 221q57 0 100 44t43 100q0 55 -43 99t-100 44t-100.5 -44t-43.5 -99t43.5 -99.5t100.5 -44.5z" />
<glyph unicode="&#x2219;" horiz-adv-x="491" d="M195 221q57 0 100 44t43 100q0 55 -43 99t-100 44t-100.5 -44t-43.5 -99t43.5 -99.5t100.5 -44.5z" />
<glyph unicode="&#xb8;" horiz-adv-x="454" d="M33 0l-74 -156q-6 -12 -6 -14q0 -12 10 -12q2 0 22.5 3t28.5 3q90 0 90 -72q0 -94 -112 -94q-100 0 -197 70l-45 -72q113 -76 264 -76q96 0 168 41q82 49 82 137q0 59 -43 101.5t-121 42.5q-8 0 -24.5 -2t-24.5 -2l53 102h-71z" />
<glyph unicode="&#xb9;" horiz-adv-x="671" d="M672 1247q10 31 10 45q0 29 -24.5 50.5t-53.5 21.5q-16 0 -67 -29l-228 -133q-90 -55 -135 -86q-25 -16 -24 -43q0 -18 16 -51q23 -47 43 -47q8 0 20 6q70 31 148 92q14 12 24 12q14 0 5 -28l-160 -510l-148 -471q-6 -16 -6 -27q0 -43 92 -57q10 -2 21.5 -3t21.5 -1 q78 0 95 59q20 94 178 627q152 520 172 573z" />
<glyph unicode="&#xba;" horiz-adv-x="843" d="M659 737q-41 23 -77 23q-113 0 -113 -131q0 -70 45 -103q23 -16 23 -43q0 -29 -33 -121q-37 -115 -74 -165q-68 -96 -151 -97q-29 0 -56 15q-37 20 -37 82q0 84 68 235q45 100 135 209q68 86 98 102q37 20 17 48q-14 20 -66 20q-104 -4 -223 -94q-135 -102 -188 -260 q-43 -133 -43 -226q0 -168 143 -229q63 -25 133 -25q242 0 375 269q88 178 88 325q-1 129 -64 166z" />
<glyph unicode="&#xbb;" horiz-adv-x="833" d="M496 55q51 102 229 240q-57 80 -111 250q-35 -4 -60.5 -6t-45.5 -2q-14 0 -48 3t-89 11q61 -66 123 -160q39 -59 47 -67q-47 -41 -80 -73t-53 -54q-61 -72 -154 -146q150 12 143 12q14 0 39 -2t60 -6zM205 55q55 106 239 240q-72 88 -120 250q-35 -4 -60.5 -6t-46.5 -2 q-14 0 -49 4t-92 12l55 -56l25 -26q18 -23 49 -74q29 -49 53 -73q-66 -45 -141 -127q-59 -68 -152 -146q147 12 141 12q14 0 39 -2t60 -6z" />
<glyph unicode="&#xbf;" horiz-adv-x="1026" d="M225 256q0 -193 168 -244q63 -18 125 -18q53 0 115 16q51 16 59 51q18 66 6 125q-8 43 -55 21q-39 -20 -96 -21q-37 0 -59.5 12.5t-36 31t-18.5 40t-5 39.5q0 82 111 217q215 262 235 375q12 63 -8 72q-29 16 -84 16q-35 -4 -53 -45q-16 -41 -27.5 -66.5t-15.5 -33.5 q-27 -41 -80 -104l-131 -148q-150 -158 -150 -336zM809 1362q-31 0 -59.5 -12.5t-50 -33t-34 -47t-12.5 -57.5q0 -55 37 -86.5t92 -31.5q96 0 129 94q12 33 13 63q0 111 -115 111z" />
<glyph unicode="&#xc0;" horiz-adv-x="1241" d="M1262 150q4 45 -11 79q-6 18 -16 7q-45 -61 -113 -97q-66 -37 -112 -33q-55 6 -70 15q-27 14 -27 55t21 111q20 66 60 174t102 262l81 195l52 118q12 25 12 43q0 47 -63 56q-94 14 -125 -50l-161 -308q-69 -128 -120 -206q-272 -420 -440 -419q-27 0 -45 8 q-80 27 -80 121q0 100 92 270q37 68 75 123t77 100q371 418 684 451q82 8 82 35q0 10 -29 51q-35 47 -86 47q-164 0 -400 -125q-266 -141 -440 -356q-281 -346 -280 -625q0 -154 94 -217q74 -49 160 -49q156 0 337 166q129 117 207 247q8 12 15 13q14 0 4 -23 q-76 -172 -76 -278q0 -41 14 -58q53 -59 221 -59q51 0 89 6q119 23 200 104q11 11 15 46zM637 1858q2 27 88 22q66 -4 96 -14q23 -10 29 -27q27 -82 53 -115q70 -78 107 -98q20 -8 20 -27q0 -14 -20 -28q-39 -23 -86 -4q-109 39 -197 129q-100 96 -90 162z" />
<glyph unicode="&#xc1;" horiz-adv-x="1241" d="M1262 150q4 45 -11 79q-6 18 -16 7q-45 -61 -113 -97q-66 -37 -112 -33q-55 6 -70 15q-27 14 -27 55t21 111q20 66 60 174t102 262l81 195l52 118q12 25 12 43q0 47 -63 56q-94 14 -125 -50l-161 -308q-69 -128 -120 -206q-272 -420 -440 -419q-27 0 -45 8 q-80 27 -80 121q0 100 92 270q37 68 75 123t77 100q371 418 684 451q82 8 82 35q0 10 -29 51q-35 47 -86 47q-164 0 -400 -125q-266 -141 -440 -356q-281 -346 -280 -625q0 -154 94 -217q74 -49 160 -49q156 0 337 166q129 117 207 247q8 12 15 13q14 0 4 -23 q-76 -172 -76 -278q0 -41 14 -58q53 -59 221 -59q51 0 89 6q119 23 200 104q11 11 15 46zM1284 1851q-4 29 -88 25q-59 -2 -96 -16q-23 -10 -29 -25q-29 -88 -55 -115q-72 -80 -105 -98q-20 -12 -20 -27q0 -16 20 -28q39 -23 86 -4q111 41 197 127q98 98 90 161z" />
<glyph unicode="&#xc2;" horiz-adv-x="1241" d="M1262 150q4 45 -11 79q-6 18 -16 7q-45 -61 -113 -97q-66 -37 -112 -33q-55 6 -70 15q-27 14 -27 55t21 111q20 66 60 174t102 262l81 195l52 118q12 25 12 43q0 47 -63 56q-94 14 -125 -50l-161 -308q-69 -128 -120 -206q-272 -420 -440 -419q-27 0 -45 8 q-80 27 -80 121q0 100 92 270q37 68 75 123t77 100q371 418 684 451q82 8 82 35q0 10 -29 51q-35 47 -86 47q-164 0 -400 -125q-266 -141 -440 -356q-281 -346 -280 -625q0 -154 94 -217q74 -49 160 -49q156 0 337 166q129 117 207 247q8 12 15 13q14 0 4 -23 q-76 -172 -76 -278q0 -41 14 -58q53 -59 221 -59q51 0 89 6q119 23 200 104q11 11 15 46zM1290 1579q0 8 -14 23q-96 119 -117 233h-164q-123 -143 -245 -231q-25 -16 -25 -21q0 -16 43 -16q119 0 295 147q141 -150 209 -149q18 0 18 14z" />
<glyph unicode="&#xc3;" horiz-adv-x="1241" d="M1262 150q4 45 -11 79q-6 18 -16 7q-45 -61 -113 -97q-66 -37 -112 -33q-55 6 -70 15q-27 14 -27 55t21 111q20 66 60 174t102 262l81 195l52 118q12 25 12 43q0 47 -63 56q-94 14 -125 -50l-161 -308q-69 -128 -120 -206q-272 -420 -440 -419q-27 0 -45 8 q-80 27 -80 121q0 100 92 270q37 68 75 123t77 100q371 418 684 451q82 8 82 35q0 10 -29 51q-35 47 -86 47q-164 0 -400 -125q-266 -141 -440 -356q-281 -346 -280 -625q0 -154 94 -217q74 -49 160 -49q156 0 337 166q129 117 207 247q8 12 15 13q14 0 4 -23 q-76 -172 -76 -278q0 -41 14 -58q53 -59 221 -59q51 0 89 6q119 23 200 104q11 11 15 46zM1116 1638q84 84 84 103q0 29 -31 28q-14 0 -39 -24q-49 -49 -81 -49q-27 0 -97 39q-106 57 -155 57q-53 0 -119 -78q-84 -102 -84 -112q0 -29 29 -29q16 0 71 55q29 29 49 29t99 -37 q117 -53 151 -53q51 -1 123 71z" />
<glyph unicode="&#xc4;" horiz-adv-x="1241" d="M1262 150q4 45 -11 79q-6 18 -16 7q-45 -61 -113 -97q-66 -37 -112 -33q-55 6 -70 15q-27 14 -27 55t21 111q20 66 60 174t102 262l81 195l52 118q12 25 12 43q0 47 -63 56q-94 14 -125 -50l-161 -308q-69 -128 -120 -206q-272 -420 -440 -419q-27 0 -45 8 q-80 27 -80 121q0 100 92 270q37 68 75 123t77 100q371 418 684 451q82 8 82 35q0 10 -29 51q-35 47 -86 47q-164 0 -400 -125q-266 -141 -440 -356q-281 -346 -280 -625q0 -154 94 -217q74 -49 160 -49q156 0 337 166q129 117 207 247q8 12 15 13q14 0 4 -23 q-76 -172 -76 -278q0 -41 14 -58q53 -59 221 -59q51 0 89 6q119 23 200 104q11 11 15 46zM1092 1638q16 29 16 68q0 70 -66 98q-18 6 -38 6q-82 0 -109 -55q-29 -53 -29 -96q0 -63 66 -92q18 -8 43 -8q68 -1 117 79zM805 1638q16 29 16 68q0 70 -65 98q-18 6 -39 6 q-82 0 -109 -55q-29 -53 -28 -96q0 -63 65 -92q18 -8 43 -8q68 -1 117 79z" />
<glyph unicode="&#xc5;" horiz-adv-x="1241" d="M1262 150q4 45 -11 79q-6 18 -16 7q-45 -61 -113 -97q-66 -37 -112 -33q-55 6 -70 15q-27 14 -27 55t21 111q20 66 60 174t102 262l81 195l52 118q12 25 12 43q0 47 -63 56q-94 14 -125 -50l-161 -308q-69 -128 -120 -206q-272 -420 -440 -419q-27 0 -45 8 q-80 27 -80 121q0 100 92 270q37 68 75 123t77 100q371 418 684 451q82 8 82 35q0 10 -29 51q-35 47 -86 47q-164 0 -400 -125q-266 -141 -440 -356q-281 -346 -280 -625q0 -154 94 -217q74 -49 160 -49q156 0 337 166q129 117 207 247q8 12 15 13q14 0 4 -23 q-76 -172 -76 -278q0 -41 14 -58q53 -59 221 -59q51 0 89 6q119 23 200 104q11 11 15 46zM1108 1716q0 61 -44 106.5t-106 45.5q-61 0 -106 -45t-45 -107q0 -61 45 -105t106 -44t105.5 44t44.5 105zM958 1636q-33 0 -56 23.5t-23 56.5q0 35 23.5 57.5t55.5 22.5 q35 0 57.5 -22.5t22.5 -57.5q0 -33 -22.5 -56.5t-57.5 -23.5z" />
<glyph unicode="&#xc6;" horiz-adv-x="1988" d="M2134 1247q-4 68 -80 105q-41 20 -119 20q-145 0 -278 -82q-178 -115 -303 -354q-57 -109 -58 -199q0 -74 39 -137q41 -66 41 -68q0 -10 -22 -26q-219 -147 -361 -397q-80 8 -80 67q0 41 21 111q20 66 60 174t102 262l81 195l52 118q12 25 12 43q0 47 -63 56 q-94 14 -125 -50l-161 -308q-69 -128 -120 -206q-272 -420 -440 -419q-27 0 -45 8q-80 27 -80 121q0 100 92 270q37 68 75 123t77 100q371 418 684 451q82 8 82 35q0 10 -29 51q-35 47 -86 47q-164 0 -400 -125q-266 -141 -440 -356q-281 -346 -280 -625q0 -154 94 -217 q74 -49 160 -49q156 0 337 166q129 117 207 247q8 12 15 13q14 0 4 -23q-76 -172 -76 -278q0 -41 14 -58q49 -55 201 -59q-43 -106 -43 -193q0 -184 197 -241q37 -10 75 -11q152 0 316 111q117 78 219 190q94 100 113 150q4 16 4 23q0 29 -41 63q-31 25 -52 25 q-23 0 -40 -29q-49 -78 -181 -201q-176 -164 -266 -164t-90 111q0 115 113 295q129 211 245 313q27 25 54 21q68 -14 112 -2q150 39 150 129t-117 90q-41 0 -83 -19l-81 -37q-20 -10 -31.5 1.5t-11.5 37.5q0 109 88 258q76 129 168 215q106 100 191 99q35 0 59.5 -9.5 t40.5 -19.5t25.5 -18t11.5 -8q18 0 35.5 24t15.5 49z" />
<glyph unicode="&#xc7;" horiz-adv-x="1048" d="M248 -449q262 16 538 404q20 27 21 57q0 27 -21.5 57.5t-46.5 30.5t-67 -71q-51 -88 -170 -185q-131 -106 -217 -106q-31 0 -52 14q-82 51 -81 187q0 121 49 274q10 35 36 100l64 164q47 117 120 238t173 250q215 272 336 272q78 0 78 -90q0 -63 -39 -143 q-63 -137 -230 -191q-43 -12 -43 -43q0 -16 19 -47q27 -47 73 -51q53 -2 160 76q123 88 178 202q45 90 45 187q0 106 -57 175.5t-162 69.5q-186 0 -387 -170q-301 -258 -526 -739q-133 -289 -133 -530q0 -250 155 -344q57 -35 117 -43l-67 -142l-7 -14q0 -12 11 -12 q4 0 24.5 3t28.5 3q90 0 90 -72q0 -94 -115 -94q-100 0 -194 70l-45 -72q113 -76 264 -76q96 0 168 41q82 49 82 137q0 59 -43 101.5t-121 42.5q-8 0 -24.5 -2t-24.5 -2z" />
<glyph unicode="&#xc8;" horiz-adv-x="911" d="M1034 1247q-4 68 -80 105q-41 20 -118 20q-145 0 -279 -82q-178 -115 -303 -354q-57 -109 -57 -199q0 -74 39 -137q41 -66 40 -68q0 -10 -22 -26q-90 -59 -188 -164q-141 -154 -216 -324q-53 -123 -53 -215q0 -186 197 -243q35 -10 74 -11q152 0 315 111q117 78 219 190 q94 100 113 150q4 16 4 23q0 29 -41 63q-31 25 -51 25q-23 0 -41 -29q-49 -78 -180 -201q-176 -164 -267 -164q-90 0 -90 111q0 115 113 295q129 211 246 313q27 25 53 21q68 -14 112 -2q150 39 150 129t-117 90q-41 0 -83 -19l-81 -37q-20 -10 -31.5 1.5t-11.5 37.5 q0 109 88 258q76 129 168 215q106 100 191 99q35 0 59.5 -9.5t41 -19.5t25.5 -18t11 -8q18 0 35.5 24t15.5 49zM504 1858q2 27 88 22q66 -4 96 -14q23 -10 29 -27q27 -82 53 -115q70 -78 107 -98q20 -8 20 -27q0 -14 -20 -28q-39 -23 -86 -4q-109 39 -197 129 q-100 96 -90 162z" />
<glyph unicode="&#xc9;" horiz-adv-x="911" d="M1034 1247q-4 68 -80 105q-41 20 -118 20q-145 0 -279 -82q-178 -115 -303 -354q-57 -109 -57 -199q0 -74 39 -137q41 -66 40 -68q0 -10 -22 -26q-90 -59 -188 -164q-141 -154 -216 -324q-53 -123 -53 -215q0 -186 197 -243q35 -10 74 -11q152 0 315 111q117 78 219 190 q94 100 113 150q4 16 4 23q0 29 -41 63q-31 25 -51 25q-23 0 -41 -29q-49 -78 -180 -201q-176 -164 -267 -164q-90 0 -90 111q0 115 113 295q129 211 246 313q27 25 53 21q68 -14 112 -2q150 39 150 129t-117 90q-41 0 -83 -19l-81 -37q-20 -10 -31.5 1.5t-11.5 37.5 q0 109 88 258q76 129 168 215q106 100 191 99q35 0 59.5 -9.5t41 -19.5t25.5 -18t11 -8q18 0 35.5 24t15.5 49zM1229 1851q-4 29 -88 25q-59 -2 -97 -16q-23 -10 -28 -25q-29 -88 -55 -115q-72 -80 -105 -98q-20 -12 -20 -27q0 -16 20 -28q39 -23 86 -4q111 41 197 127 q98 98 90 161z" />
<glyph unicode="&#xca;" horiz-adv-x="911" d="M1034 1247q-4 68 -80 105q-41 20 -118 20q-145 0 -279 -82q-178 -115 -303 -354q-57 -109 -57 -199q0 -74 39 -137q41 -66 40 -68q0 -10 -22 -26q-90 -59 -188 -164q-141 -154 -216 -324q-53 -123 -53 -215q0 -186 197 -243q35 -10 74 -11q152 0 315 111q117 78 219 190 q94 100 113 150q4 16 4 23q0 29 -41 63q-31 25 -51 25q-23 0 -41 -29q-49 -78 -180 -201q-176 -164 -267 -164q-90 0 -90 111q0 115 113 295q129 211 246 313q27 25 53 21q68 -14 112 -2q150 39 150 129t-117 90q-41 0 -83 -19l-81 -37q-20 -10 -31.5 1.5t-11.5 37.5 q0 109 88 258q76 129 168 215q106 100 191 99q35 0 59.5 -9.5t41 -19.5t25.5 -18t11 -8q18 0 35.5 24t15.5 49zM1141 1579q0 8 -15 23q-96 119 -116 233h-164q-123 -143 -246 -231q-25 -16 -25 -21q0 -16 43 -16q119 0 295 147q141 -150 209 -149q19 0 19 14z" />
<glyph unicode="&#xcb;" horiz-adv-x="911" d="M1034 1247q-4 68 -80 105q-41 20 -118 20q-145 0 -279 -82q-178 -115 -303 -354q-57 -109 -57 -199q0 -74 39 -137q41 -66 40 -68q0 -10 -22 -26q-90 -59 -188 -164q-141 -154 -216 -324q-53 -123 -53 -215q0 -186 197 -243q35 -10 74 -11q152 0 315 111q117 78 219 190 q94 100 113 150q4 16 4 23q0 29 -41 63q-31 25 -51 25q-23 0 -41 -29q-49 -78 -180 -201q-176 -164 -267 -164q-90 0 -90 111q0 115 113 295q129 211 246 313q27 25 53 21q68 -14 112 -2q150 39 150 129t-117 90q-41 0 -83 -19l-81 -37q-20 -10 -31.5 1.5t-11.5 37.5 q0 109 88 258q76 129 168 215q106 100 191 99q35 0 59.5 -9.5t41 -19.5t25.5 -18t11 -8q18 0 35.5 24t15.5 49zM1012 1638q16 29 16 68q0 70 -65 98q-18 6 -39 6q-82 0 -109 -55q-29 -53 -29 -96q0 -63 66 -92q18 -8 43 -8q68 -1 117 79zM725 1638q16 29 16 68q0 70 -65 98 q-18 6 -39 6q-82 0 -109 -55q-29 -53 -28 -96q0 -63 65 -92q18 -8 43 -8q68 -1 117 79z" />
<glyph unicode="&#xcc;" horiz-adv-x="919" d="M856 831q53 242 53 363q0 197 -121 231q-25 8 -59 9q-131 0 -278 -142q-135 -129 -222 -315q-61 -133 -61 -297q0 -152 55 -258q61 -121 178 -162q35 -10 11 -35q-68 -68 -105 -92q-63 -41 -129 -41q-113 0 -153 90q-10 18 -27 19q-57 0 -57 -99q0 -70 45 -114 q57 -63 182 -72q242 -18 399 176q170 209 289 739zM696 1210q-4 -127 -73 -399q-35 -137 -67 -237.5t-60 -165.5q-12 -29 -25 -29q-10 0 -33 14q-80 45 -80 228q0 133 52 266q41 106 98 211q88 166 154 166q38 -1 34 -54zM401 1858q2 27 88 22q66 -4 97 -14q23 -10 28 -27 q27 -82 54 -115q70 -78 106 -98q20 -8 21 -27q0 -14 -21 -28q-39 -23 -86 -4q-109 39 -196 129q-101 96 -91 162z" />
<glyph unicode="&#xcd;" horiz-adv-x="919" d="M856 831q53 242 53 363q0 197 -121 231q-25 8 -59 9q-131 0 -278 -142q-135 -129 -222 -315q-61 -133 -61 -297q0 -152 55 -258q61 -121 178 -162q35 -10 11 -35q-68 -68 -105 -92q-63 -41 -129 -41q-113 0 -153 90q-10 18 -27 19q-57 0 -57 -99q0 -70 45 -114 q57 -63 182 -72q242 -18 399 176q170 209 289 739zM696 1210q-4 -127 -73 -399q-35 -137 -67 -237.5t-60 -165.5q-12 -29 -25 -29q-10 0 -33 14q-80 45 -80 228q0 133 52 266q41 106 98 211q88 166 154 166q38 -1 34 -54zM1157 1851q-4 29 -88 25q-59 -2 -96 -16 q-23 -10 -29 -25q-29 -88 -55 -115q-72 -80 -105 -98q-20 -12 -20 -27q0 -16 20 -28q39 -23 86 -4q111 41 197 127q98 98 90 161z" />
<glyph unicode="&#xce;" horiz-adv-x="919" d="M856 831q53 242 53 363q0 197 -121 231q-25 8 -59 9q-131 0 -278 -142q-135 -129 -222 -315q-61 -133 -61 -297q0 -152 55 -258q61 -121 178 -162q35 -10 11 -35q-68 -68 -105 -92q-63 -41 -129 -41q-113 0 -153 90q-10 18 -27 19q-57 0 -57 -99q0 -70 45 -114 q57 -63 182 -72q242 -18 399 176q170 209 289 739zM696 1210q-4 -127 -73 -399q-35 -137 -67 -237.5t-60 -165.5q-12 -29 -25 -29q-10 0 -33 14q-80 45 -80 228q0 133 52 266q41 106 98 211q88 166 154 166q38 -1 34 -54zM1079 1579q0 8 -14 23q-96 119 -117 233h-164 q-123 -143 -245 -231q-25 -16 -25 -21q0 -16 43 -16q119 0 295 147q141 -150 209 -149q18 0 18 14z" />
<glyph unicode="&#xcf;" horiz-adv-x="919" d="M856 831q53 242 53 363q0 197 -121 231q-25 8 -59 9q-131 0 -278 -142q-135 -129 -222 -315q-61 -133 -61 -297q0 -152 55 -258q61 -121 178 -162q35 -10 11 -35q-68 -68 -105 -92q-63 -41 -129 -41q-113 0 -153 90q-10 18 -27 19q-57 0 -57 -99q0 -70 45 -114 q57 -63 182 -72q242 -18 399 176q170 209 289 739zM696 1210q-4 -127 -73 -399q-35 -137 -67 -237.5t-60 -165.5q-12 -29 -25 -29q-10 0 -33 14q-80 45 -80 228q0 133 52 266q41 106 98 211q88 166 154 166q38 -1 34 -54zM983 1638q16 29 16 68q0 70 -65 98q-18 6 -39 6 q-82 0 -109 -55q-29 -53 -28 -96q0 -63 65 -92q18 -8 43 -8q68 -1 117 79zM696 1638q16 29 17 68q0 70 -66 98q-18 6 -39 6q-82 0 -108 -55q-29 -53 -29 -96q0 -63 66 -92q18 -8 43 -8q67 -1 116 79z" />
<glyph unicode="&#xd0;" horiz-adv-x="1630" d="M553 528q-18 0 -31 -22q-72 -127 -71 -146q0 -8 41 -8h182q-90 -147 -131 -147q-53 0 -157.5 18.5t-158.5 18.5q-215 0 -215 -125q0 -119 291 -119q41 0 121 12q41 8 69.5 11.5t49.5 3.5q35 0 114.5 -12.5t112.5 -12.5h270q229 0 355 131q115 121 114 324q0 152 -75 295 q-49 94 -140 194q-76 82 -75 90q0 12 32.5 57.5t32.5 59.5q0 8 -61 55q-59 49 -70 49q-8 0 -37 -34q-41 -53 -47 -60q-352 268 -577 269q-221 0 -222 -211q0 -106 88 -226q70 -96 172 -178q94 -72 123 -72q31 0 60 60q27 51 26 82q0 6 -37 35l-50 36q-22 16 -38 31 q-147 131 -147 211q0 51 59 51q63 0 250 -112q188 -111 189 -156q0 -27 -60 -168l-64 -143q-34 -72 -71 -142h-217zM983 528q92 199 141 314l79 -108q32 -44 48 -72q61 -109 62 -209q0 -276 -383 -277q-14 0 -50 2t-94 6l56 76q29 41 57 92h217q18 0 31 23q72 127 72 145 q0 8 -41 8h-195z" />
<glyph unicode="&#xd1;" horiz-adv-x="1576" d="M1597 150q4 45 -10 79q-6 18 -16 7q-20 -29 -49 -52.5t-64 -44.5q-61 -37 -100 -37q-59 0 -105 27q-51 33 -51 92q0 27 8 51q4 14 39 115l101 291q57 166 89 267l42 136q12 51 12 97q0 129 -111 163l-38.5 7.5t-38.5 3.5q-166 0 -338 -193q-66 -76 -128.5 -171 t-119.5 -212q-10 -23 -25 -22q-8 0 -8 12q0 4 4 20q57 172 58 297q0 203 -158 256q-59 18 -113 19q-176 0 -330 -203q-106 -139 -106 -313q0 -117 70 -189q33 -37 79 -37q63 0 64 50q0 6 -5 20t-10 32l-11 36q-5 18 -5 34q0 121 78 281q51 106 156 107q123 0 123 -150 q0 -90 -43 -219q-57 -170 -179 -459l-83 -194q-34 -78 -54 -117q-8 -14 -8 -25q0 -25 78 -28q127 -4 178 102q59 125 134 260t167 285q233 387 367 502q49 43 86 43q59 0 59 -68q0 -8 -4 -21q-129 -313 -198.5 -510.5t-82.5 -285.5q-6 -47 -6 -80q0 -117 92 -168 q90 -51 205 -51q23 0 47.5 2t46.5 6q115 18 201 104q10 11 14 46zM1200 1638q84 84 84 103q0 29 -31 28q-14 0 -39 -24q-49 -49 -81 -49q-27 0 -97 39q-106 57 -155 57q-53 0 -119 -78q-84 -102 -84 -112q0 -29 29 -29q16 0 71 55q29 29 49 29t99 -37q117 -53 151 -53 q51 -1 123 71z" />
<glyph unicode="&#xd2;" horiz-adv-x="1058" d="M1202 1153q-47 90 -74 90q-12 0 -30 -18l-62 -62q-12 -12 -20 -12q-14 0 -19 29q-4 23 -14 48t-27 52q-41 66 -98 90q-84 37 -129 37q-55 0 -125 -31q-16 -6 -39 -6q-166 -4 -319 -178q-129 -150 -219 -387q-66 -184 -66 -377q0 -348 209 -430q61 -27 135 -27 q160 0 322 133q152 127 254 338q82 168 116 310q6 25 25 147q6 37 18 45q51 41 87 76t59 63q32 41 16 70zM844 1016q-4 -41 -82 -41q-41 0 -75 13t-57.5 36t-36.5 51.5t-13 59.5q0 57 53 104q27 25 69 25q31 0 58.5 -15.5t47 -40t31 -55.5t11.5 -61q0 -6 -6 -76zM793 778 q-23 -111 -125 -301q-172 -324 -322 -323q-20 0 -41 6q-131 43 -131 239q0 162 82 383q76 209 170 320q14 20 27 20q10 0 8 -39q-16 -123 84 -213q74 -68 160 -67q14 0 32 3l45 7q6 2 10.5 -8.5t0.5 -26.5zM532 1858q2 27 89 22q66 -4 96 -14q23 -10 28 -27q27 -82 54 -115 q70 -78 106 -98q20 -8 21 -27q0 -14 -21 -28q-39 -23 -86 -4q-109 39 -196 129q-101 96 -91 162z" />
<glyph unicode="&#xd3;" horiz-adv-x="1058" d="M1202 1153q-47 90 -74 90q-12 0 -30 -18l-62 -62q-12 -12 -20 -12q-14 0 -19 29q-4 23 -14 48t-27 52q-41 66 -98 90q-84 37 -129 37q-55 0 -125 -31q-16 -6 -39 -6q-166 -4 -319 -178q-129 -150 -219 -387q-66 -184 -66 -377q0 -348 209 -430q61 -27 135 -27 q160 0 322 133q152 127 254 338q82 168 116 310q6 25 25 147q6 37 18 45q51 41 87 76t59 63q32 41 16 70zM844 1016q-4 -41 -82 -41q-41 0 -75 13t-57.5 36t-36.5 51.5t-13 59.5q0 57 53 104q27 25 69 25q31 0 58.5 -15.5t47 -40t31 -55.5t11.5 -61q0 -6 -6 -76zM793 778 q-23 -111 -125 -301q-172 -324 -322 -323q-20 0 -41 6q-131 43 -131 239q0 162 82 383q76 209 170 320q14 20 27 20q10 0 8 -39q-16 -123 84 -213q74 -68 160 -67q14 0 32 3l45 7q6 2 10.5 -8.5t0.5 -26.5zM1204 1851q-4 29 -88 25q-59 -2 -96 -16q-23 -10 -29 -25 q-29 -88 -55 -115q-72 -80 -105 -98q-20 -12 -20 -27q0 -16 20 -28q39 -23 87 -4q111 41 196 127q98 98 90 161z" />
<glyph unicode="&#xd4;" horiz-adv-x="1058" d="M1202 1153q-47 90 -74 90q-12 0 -30 -18l-62 -62q-12 -12 -20 -12q-14 0 -19 29q-4 23 -14 48t-27 52q-41 66 -98 90q-84 37 -129 37q-55 0 -125 -31q-16 -6 -39 -6q-166 -4 -319 -178q-129 -150 -219 -387q-66 -184 -66 -377q0 -348 209 -430q61 -27 135 -27 q160 0 322 133q152 127 254 338q82 168 116 310q6 25 25 147q6 37 18 45q51 41 87 76t59 63q32 41 16 70zM844 1016q-4 -41 -82 -41q-41 0 -75 13t-57.5 36t-36.5 51.5t-13 59.5q0 57 53 104q27 25 69 25q31 0 58.5 -15.5t47 -40t31 -55.5t11.5 -61q0 -6 -6 -76zM793 778 q-23 -111 -125 -301q-172 -324 -322 -323q-20 0 -41 6q-131 43 -131 239q0 162 82 383q76 209 170 320q14 20 27 20q10 0 8 -39q-16 -123 84 -213q74 -68 160 -67q14 0 32 3l45 7q6 2 10.5 -8.5t0.5 -26.5zM1151 1579q0 8 -14 23q-96 119 -117 233h-164q-123 -143 -246 -231 q-25 -16 -24 -21q0 -16 43 -16q119 0 295 147q141 -150 209 -149q18 0 18 14z" />
<glyph unicode="&#xd5;" horiz-adv-x="1058" d="M1202 1153q-47 90 -74 90q-12 0 -30 -18l-62 -62q-12 -12 -20 -12q-14 0 -19 29q-4 23 -14 48t-27 52q-41 66 -98 90q-84 37 -129 37q-55 0 -125 -31q-16 -6 -39 -6q-166 -4 -319 -178q-129 -150 -219 -387q-66 -184 -66 -377q0 -348 209 -430q61 -27 135 -27 q160 0 322 133q152 127 254 338q82 168 116 310q6 25 25 147q6 37 18 45q51 41 87 76t59 63q32 41 16 70zM844 1016q-4 -41 -82 -41q-41 0 -75 13t-57.5 36t-36.5 51.5t-13 59.5q0 57 53 104q27 25 69 25q31 0 58.5 -15.5t47 -40t31 -55.5t11.5 -61q0 -6 -6 -76zM793 778 q-23 -111 -125 -301q-172 -324 -322 -323q-20 0 -41 6q-131 43 -131 239q0 162 82 383q76 209 170 320q14 20 27 20q10 0 8 -39q-16 -123 84 -213q74 -68 160 -67q14 0 32 3l45 7q6 2 10.5 -8.5t0.5 -26.5zM1051 1638q84 84 84 103q0 29 -31 28q-14 0 -39 -24 q-49 -49 -82 -49q-27 0 -96 39q-106 57 -156 57q-53 0 -119 -78q-84 -102 -84 -112q0 -29 29 -29q16 0 72 55q29 29 49 29t98 -37q117 -53 152 -53q51 -1 123 71z" />
<glyph unicode="&#xd6;" horiz-adv-x="1058" d="M1202 1153q-47 90 -74 90q-12 0 -30 -18l-62 -62q-12 -12 -20 -12q-14 0 -19 29q-4 23 -14 48t-27 52q-41 66 -98 90q-84 37 -129 37q-55 0 -125 -31q-16 -6 -39 -6q-166 -4 -319 -178q-129 -150 -219 -387q-66 -184 -66 -377q0 -348 209 -430q61 -27 135 -27 q160 0 322 133q152 127 254 338q82 168 116 310q6 25 25 147q6 37 18 45q51 41 87 76t59 63q32 41 16 70zM844 1016q-4 -41 -82 -41q-41 0 -75 13t-57.5 36t-36.5 51.5t-13 59.5q0 57 53 104q27 25 69 25q31 0 58.5 -15.5t47 -40t31 -55.5t11.5 -61q0 -6 -6 -76zM793 778 q-23 -111 -125 -301q-172 -324 -322 -323q-20 0 -41 6q-131 43 -131 239q0 162 82 383q76 209 170 320q14 20 27 20q10 0 8 -39q-16 -123 84 -213q74 -68 160 -67q14 0 32 3l45 7q6 2 10.5 -8.5t0.5 -26.5zM1081 1638q16 29 17 68q0 70 -66 98q-18 6 -39 6q-82 0 -108 -55 q-29 -53 -29 -96q0 -63 66 -92q18 -8 43 -8q67 -1 116 79zM795 1638q16 29 16 68q0 70 -66 98q-18 6 -38 6q-82 0 -109 -55q-29 -53 -29 -96q0 -63 66 -92q18 -8 43 -8q68 -1 117 79z" />
<glyph unicode="&#xd7;" horiz-adv-x="1228" d="M530 365l-280 -281l84 -84l280 281l283 -281l82 86l-281 279l281 278l-82 86l-283 -285l-280 285l-84 -82z" />
<glyph unicode="&#xd8;" horiz-adv-x="1214" d="M795 901q63 123 141 123q68 0 68 -92q0 -113 -82 -289q-90 -188 -211 -313q-145 -152 -285 -154zM295 209q-80 51 -80 180q0 260 178 522q180 270 436 351zM1225 1745h-150l-135 -266q-362 -35 -647 -385q-274 -340 -275 -701q0 -272 187 -360l-139 -271h147l119 234 q33 -6 74 -6q211 0 405 166q172 147 283 379q106 215 106 405q0 119 -58.5 191.5t-162.5 72.5q-23 0 -29 -2l43 86l72 -6q100 -8 100 96q0 43 -16 61.5t-64 30.5z" />
<glyph unicode="&#xd9;" horiz-adv-x="1644" d="M1665 150q4 45 -10 79q-6 18 -17 7q-20 -29 -48.5 -52.5t-65.5 -44.5q-66 -37 -103 -37q-143 0 -143 105q0 16 2 26l141 540l131 480q8 25 9 43q0 47 -74 60q-35 6 -55 6q-63 0 -84 -49l-168 -351q-72 -146 -121 -235q-217 -389 -393 -512q-72 -47 -105 -47t-33 35 q0 27 15 61q223 598 252 701q16 61 16 114q0 236 -266 262q-12 2 -25 2h-22q-145 0 -265 -86q-115 -78 -153 -184q-39 -104 -39 -194q0 -82 35 -127t90 -45q78 0 78 47q0 12 -10.5 49t-10.5 61q0 68 25 121q37 80 102.5 132t130.5 52q29 0 47 -8q59 -25 60 -102 q0 -43 -15 -86q-4 -8 -38 -100l-101 -265l-101 -265q-38 -103 -50 -150q-10 -41 -11 -70q0 -98 113 -137q33 -12 68 -13q78 0 215 70q242 127 471 530q14 31 22 31q6 0 -8 -37q-23 -53 -49 -172q-33 -127 -39 -205q-10 -90 47 -143q66 -59 203 -59q61 0 135 12 q111 14 201 104q10 11 14 46zM772 1858q2 27 88 22q66 -4 96 -14q23 -10 29 -27q27 -82 53 -115q70 -78 107 -98q20 -8 20 -27q0 -14 -20 -28q-39 -23 -86 -4q-109 39 -197 129q-100 96 -90 162z" />
<glyph unicode="&#xda;" horiz-adv-x="1644" d="M1665 150q4 45 -10 79q-6 18 -17 7q-20 -29 -48.5 -52.5t-65.5 -44.5q-66 -37 -103 -37q-143 0 -143 105q0 16 2 26l141 540l131 480q8 25 9 43q0 47 -74 60q-35 6 -55 6q-63 0 -84 -49l-168 -351q-72 -146 -121 -235q-217 -389 -393 -512q-72 -47 -105 -47t-33 35 q0 27 15 61q223 598 252 701q16 61 16 114q0 236 -266 262q-12 2 -25 2h-22q-145 0 -265 -86q-115 -78 -153 -184q-39 -104 -39 -194q0 -82 35 -127t90 -45q78 0 78 47q0 12 -10.5 49t-10.5 61q0 68 25 121q37 80 102.5 132t130.5 52q29 0 47 -8q59 -25 60 -102 q0 -43 -15 -86q-4 -8 -38 -100l-101 -265l-101 -265q-38 -103 -50 -150q-10 -41 -11 -70q0 -98 113 -137q33 -12 68 -13q78 0 215 70q242 127 471 530q14 31 22 31q6 0 -8 -37q-23 -53 -49 -172q-33 -127 -39 -205q-10 -90 47 -143q66 -59 203 -59q61 0 135 12 q111 14 201 104q10 11 14 46zM1405 1851q-4 29 -88 25q-59 -2 -96 -16q-23 -10 -29 -25q-29 -88 -55 -115q-72 -80 -105 -98q-20 -12 -20 -27q0 -16 20 -28q39 -23 86 -4q111 41 197 127q98 98 90 161z" />
<glyph unicode="&#xdb;" horiz-adv-x="1644" d="M1665 150q4 45 -10 79q-6 18 -17 7q-20 -29 -48.5 -52.5t-65.5 -44.5q-66 -37 -103 -37q-143 0 -143 105q0 16 2 26l141 540l131 480q8 25 9 43q0 47 -74 60q-35 6 -55 6q-63 0 -84 -49l-168 -351q-72 -146 -121 -235q-217 -389 -393 -512q-72 -47 -105 -47t-33 35 q0 27 15 61q223 598 252 701q16 61 16 114q0 236 -266 262q-12 2 -25 2h-22q-145 0 -265 -86q-115 -78 -153 -184q-39 -104 -39 -194q0 -82 35 -127t90 -45q78 0 78 47q0 12 -10.5 49t-10.5 61q0 68 25 121q37 80 102.5 132t130.5 52q29 0 47 -8q59 -25 60 -102 q0 -43 -15 -86q-4 -8 -38 -100l-101 -265l-101 -265q-38 -103 -50 -150q-10 -41 -11 -70q0 -98 113 -137q33 -12 68 -13q78 0 215 70q242 127 471 530q14 31 22 31q6 0 -8 -37q-23 -53 -49 -172q-33 -127 -39 -205q-10 -90 47 -143q66 -59 203 -59q61 0 135 12 q111 14 201 104q10 11 14 46zM1339 1579q0 8 -14 23q-96 119 -117 233h-164q-123 -143 -245 -231q-25 -16 -25 -21q0 -16 43 -16q119 0 295 147q141 -150 209 -149q18 0 18 14z" />
<glyph unicode="&#xdc;" horiz-adv-x="1644" d="M1665 150q4 45 -10 79q-6 18 -17 7q-20 -29 -48.5 -52.5t-65.5 -44.5q-66 -37 -103 -37q-143 0 -143 105q0 16 2 26l141 540l131 480q8 25 9 43q0 47 -74 60q-35 6 -55 6q-63 0 -84 -49l-168 -351q-72 -146 -121 -235q-217 -389 -393 -512q-72 -47 -105 -47t-33 35 q0 27 15 61q223 598 252 701q16 61 16 114q0 236 -266 262q-12 2 -25 2h-22q-145 0 -265 -86q-115 -78 -153 -184q-39 -104 -39 -194q0 -82 35 -127t90 -45q78 0 78 47q0 12 -10.5 49t-10.5 61q0 68 25 121q37 80 102.5 132t130.5 52q29 0 47 -8q59 -25 60 -102 q0 -43 -15 -86q-4 -8 -38 -100l-101 -265l-101 -265q-38 -103 -50 -150q-10 -41 -11 -70q0 -98 113 -137q33 -12 68 -13q78 0 215 70q242 127 471 530q14 31 22 31q6 0 -8 -37q-23 -53 -49 -172q-33 -127 -39 -205q-10 -90 47 -143q66 -59 203 -59q61 0 135 12 q111 14 201 104q10 11 14 46zM1368 1638q16 29 16 68q0 70 -65 98q-18 6 -39 6q-82 0 -109 -55q-29 -53 -28 -96q0 -63 65 -92q18 -8 43 -8q68 -1 117 79zM1081 1638q16 29 17 68q0 70 -66 98q-18 6 -39 6q-82 0 -108 -55q-29 -53 -29 -96q0 -63 66 -92q18 -8 43 -8 q67 -1 116 79z" />
<glyph unicode="&#xdd;" horiz-adv-x="1681" d="M1702 150q4 45 -10 79q-6 18 -17 7q-20 -29 -49 -52.5t-63 -44.5q-61 -37 -101 -37q-27 0 -52.5 -1t-49.5 -3q-59 -6 -74 -6q-18 0 -20 12q-2 6 8 39q18 53 64 199l120 383q135 442 154 510q6 20 6 39q0 45 -84 61q-20 4 -36.5 6t-27.5 2q-49 0 -63 -43 q-74 -229 -299 -600q-236 -383 -381 -487q-90 -68 -154 -51q-25 6 -24 39q0 25 16 63q205 481 240 725q2 16 3 34.5t1 35.5q0 266 -268 282q-311 16 -461 -309q-39 -80 -39 -168q0 -82 37 -149q31 -57 72 -80q25 -12 47 -12q61 0 61 43q0 16 -16 28q-25 20 -25 78 q0 70 35 162q96 250 242 250q10 0 20 -1t21 -3q82 -14 81 -125q0 -35 -8 -60q-4 -16 -141 -383q-133 -354 -148 -426q-2 -12 -3 -24t-1 -23q0 -74 46.5 -112.5t119.5 -38.5q123 0 250 80q113 74 254 237q57 68 104.5 132.5t84.5 127.5l12 17q6 2 6 -2t-1 -10.5t-3 -16.5 q-18 -68 -92 -258l-67 -165q-30 -71 -52 -118q-23 -45 -49 -53q-63 -23 -187 -127q-141 -123 -141 -203q0 -37 27 -57q49 -43 114 -43q117 0 260 139q123 123 160 234q12 33 49 49q35 18 87.5 24.5t110.5 12.5t114.5 19t101.5 44q16 10 31.5 23.5l32.5 29.5q10 11 14 46z M1413 1851q-4 29 -88 25q-59 -2 -96 -16q-23 -10 -29 -25q-29 -88 -55 -115q-72 -80 -105 -98q-20 -12 -20 -27q0 -16 20 -28q39 -23 86 -4q111 41 197 127q98 98 90 161z" />
<glyph unicode="&#xde;" horiz-adv-x="1669" d="M438 346q-193 -199 -399 -199q-100 0 -100 56q0 53 131 92q57 16 123.5 28.5t144.5 16.5zM23 -14q406 0 669 370q229 4 414.5 38t329.5 93q305 133 305 353q0 137 -166 233q-158 90 -367 90q-57 0 -87.5 -25.5t-30.5 -56.5q0 -82 118 -82q117 0 209 -38q115 -47 115 -121 q0 -131 -250 -222q-213 -74 -440 -73q-14 0 -27 4q41 78 82 173t82 208q88 246 88 360q0 139 -63 140q-63 0 -105 -78q-8 -16 -18.5 -50t-22.5 -85q-119 -483 -278 -680q-825 0 -826 -347q1 -204 269 -204z" />
<glyph unicode="&#xdf;" horiz-adv-x="956" d="M193 319q33 119 98 332q8 -25 31 -24q8 0 30.5 13t44.5 13q29 0 58 -18q55 -41 55 -96q0 -25 -10 -56q-25 -70 -131 -121q-88 -43 -144 -38q-16 1 -32 -5zM971 152q4 45 -10 79q-6 18 -17 7q-90 -123 -219 -132q-123 -10 -164 3q-10 4 -14 10q-29 39 -33 45 q-10 10 -20.5 18t-20.5 19q-29 29 -6 35q72 18 137 73q92 78 101 191q2 12 2 26v31q0 215 -209 262q-29 6 -47 6q-72 0 -121 -43l6 17q20 57 43 86q154 205 153 334q0 49 -25.5 86.5t-72.5 42.5q-129 10 -229 -244q-8 -23 -35 -113l-74 -250q-94 -332 -110 -495 q-2 -14 -7.5 -39t-15.5 -60q-20 -68 -20 -100q0 -35 45 -41q6 -2 69 -2h41q2 2 7.5 8t13.5 21l14 47q6 20 12 35q6 33 12.5 58.5t10.5 45.5l72.5 -21.5t29.5 -9.5q51 -20 88 -61q18 -23 19 -31q0 -8 -21 -14q-59 -18 -98 -31.5t-55 -21.5q-125 -57 -176 -162 q-37 -80 -37 -141q0 -102 106 -164q55 -31 133 -31q160 0 273 137q106 131 98 295q0 14 -2 21v2q0 6 10 6q211 -23 348 114q11 11 15 46zM397 -53q-2 -25 -5 -49.5t-9 -47.5q-14 -61 -66 -114q-53 -59 -112 -60q-76 0 -76 74q0 51 45 105q76 94 168 110q39 8 49 2 q6 -4 6 -20z" />
<glyph unicode="&#xe0;" d="M1059 150q4 45 -10 79q-6 18 -17 7q-20 -29 -49 -52.5t-63 -44.5q-61 -37 -101 -37q-104 0 -137 33q-14 14 -14 41q0 29 14 72t35.5 101.5t54.5 133.5l115 254q14 39 -6 62q-14 12 -72 22q-57 12 -78 6q-16 -6 -33 -22q-10 -10 -24 -33q-12 -23 -45 -4q-70 37 -154 35 q-113 -2 -223 -64q-147 -82 -229 -239q-82 -156 -82 -289q0 -102 57 -166q55 -68 156 -68q104 0 219 103q80 72 110 133q4 8 11.5 14t11.5 4q2 -4 0 -12q-16 -61 -17 -90q0 -61 52.5 -99t195.5 -38q29 0 55.5 2t51.5 6q115 18 200 104q11 11 15 46zM600 602 q-96 -207 -190 -321l-57 -67l-31 -36q-53 -53 -93 -53q-74 0 -73 96q0 100 92 246q51 78 135 133q88 55 149 51q70 -2 70 -37q0 -8 -2 -12zM207 1393q2 27 88 22q66 -4 96 -14q23 -10 29 -27q27 -82 53 -114q70 -78 107 -99q20 -8 20 -26q0 -14 -20 -29q-39 -23 -86 -4 q-109 39 -197 129q-100 96 -90 162z" />
<glyph unicode="&#xe1;" d="M1059 150q4 45 -10 79q-6 18 -17 7q-20 -29 -49 -52.5t-63 -44.5q-61 -37 -101 -37q-104 0 -137 33q-14 14 -14 41q0 29 14 72t35.5 101.5t54.5 133.5l115 254q14 39 -6 62q-14 12 -72 22q-57 12 -78 6q-16 -6 -33 -22q-10 -10 -24 -33q-12 -23 -45 -4q-70 37 -154 35 q-113 -2 -223 -64q-147 -82 -229 -239q-82 -156 -82 -289q0 -102 57 -166q55 -68 156 -68q104 0 219 103q80 72 110 133q4 8 11.5 14t11.5 4q2 -4 0 -12q-16 -61 -17 -90q0 -61 52.5 -99t195.5 -38q29 0 55.5 2t51.5 6q115 18 200 104q11 11 15 46zM600 602 q-96 -207 -190 -321l-57 -67l-31 -36q-53 -53 -93 -53q-74 0 -73 96q0 100 92 246q51 78 135 133q88 55 149 51q70 -2 70 -37q0 -8 -2 -12zM885 1393q-2 27 -88 22q-66 -4 -97 -14q-23 -10 -28 -27q-27 -82 -54 -114q-70 -78 -106 -99q-20 -8 -20 -26q0 -14 20 -29 q39 -23 86 -4q106 39 197 129q100 96 90 162z" />
<glyph unicode="&#xe2;" d="M1059 150q4 45 -10 79q-6 18 -17 7q-20 -29 -49 -52.5t-63 -44.5q-61 -37 -101 -37q-104 0 -137 33q-14 14 -14 41q0 29 14 72t35.5 101.5t54.5 133.5l115 254q14 39 -6 62q-14 12 -72 22q-57 12 -78 6q-16 -6 -33 -22q-10 -10 -24 -33q-12 -23 -45 -4q-70 37 -154 35 q-113 -2 -223 -64q-147 -82 -229 -239q-82 -156 -82 -289q0 -102 57 -166q55 -68 156 -68q104 0 219 103q80 72 110 133q4 8 11.5 14t11.5 4q2 -4 0 -12q-16 -61 -17 -90q0 -61 52.5 -99t195.5 -38q29 0 55.5 2t51.5 6q115 18 200 104q11 11 15 46zM600 602 q-96 -207 -190 -321l-57 -67l-31 -36q-53 -53 -93 -53q-74 0 -73 96q0 100 92 246q51 78 135 133q88 55 149 51q70 -2 70 -37q0 -8 -2 -12zM809 1112q0 6 -14 21q-96 119 -117 233h-164q-123 -143 -246 -231q-25 -16 -24 -21q0 -16 43 -16q117 0 293 147q143 -150 211 -149 q18 0 18 16z" />
<glyph unicode="&#xe3;" d="M1059 150q4 45 -10 79q-6 18 -17 7q-20 -29 -49 -52.5t-63 -44.5q-61 -37 -101 -37q-104 0 -137 33q-14 14 -14 41q0 29 14 72t35.5 101.5t54.5 133.5l115 254q14 39 -6 62q-14 12 -72 22q-57 12 -78 6q-16 -6 -33 -22q-10 -10 -24 -33q-12 -23 -45 -4q-70 37 -154 35 q-113 -2 -223 -64q-147 -82 -229 -239q-82 -156 -82 -289q0 -102 57 -166q55 -68 156 -68q104 0 219 103q80 72 110 133q4 8 11.5 14t11.5 4q2 -4 0 -12q-16 -61 -17 -90q0 -61 52.5 -99t195.5 -38q29 0 55.5 2t51.5 6q115 18 200 104q11 11 15 46zM600 602 q-96 -207 -190 -321l-57 -67l-31 -36q-53 -53 -93 -53q-74 0 -73 96q0 100 92 246q51 78 135 133q88 55 149 51q70 -2 70 -37q0 -8 -2 -12zM809 1167q84 84 84 105q0 29 -31 28q-14 0 -39 -24q-49 -49 -82 -49q-27 0 -96 37q-109 59 -156 59q-55 0 -118 -80 q-84 -100 -84 -110q0 -29 28 -29q14 0 72 53q29 29 49 29q18 0 99 -35q113 -55 151 -55q51 -1 123 71z" />
<glyph unicode="&#xe4;" d="M1059 150q4 45 -10 79q-6 18 -17 7q-20 -29 -49 -52.5t-63 -44.5q-61 -37 -101 -37q-104 0 -137 33q-14 14 -14 41q0 29 14 72t35.5 101.5t54.5 133.5l115 254q14 39 -6 62q-14 12 -72 22q-57 12 -78 6q-18 -6 -35 -22q-6 -6 -22 -33q-12 -23 -45 -4q-70 37 -154 35 q-113 -2 -223 -64q-147 -82 -229 -239q-82 -156 -82 -289q0 -102 57 -166q55 -68 156 -68q104 0 219 103q80 72 110 133q4 8 11.5 14t11.5 4q2 -4 0 -12q-16 -61 -17 -90q0 -61 52.5 -99t195.5 -38q29 0 55.5 2t51.5 6q115 18 200 104q11 11 15 46zM600 602 q-96 -207 -190 -321l-57 -67l-31 -36q-53 -53 -93 -53q-74 0 -73 96q0 100 92 246q51 78 135 133q88 55 149 51q70 -2 70 -37q0 -8 -2 -12zM793 1186q16 29 16 67q0 70 -66 99q-18 6 -38 6q-82 0 -109 -55q-29 -53 -29 -97q0 -63 66 -92q18 -8 43 -8q68 0 117 80zM506 1186 q16 29 16 67q0 70 -65 99q-18 6 -39 6q-82 0 -109 -55q-29 -53 -28 -97q0 -63 65 -92q18 -8 43 -8q68 0 117 80z" />
<glyph unicode="&#xe5;" d="M1059 150q4 45 -10 79q-6 18 -17 7q-20 -29 -49 -52.5t-63 -44.5q-61 -37 -101 -37q-104 0 -137 33q-14 14 -14 41q0 29 14 72t35.5 101.5t54.5 133.5l115 254q14 39 -6 62q-14 12 -72 22q-57 12 -78 6q-16 -6 -33 -22q-10 -10 -24 -33q-12 -23 -45 -4q-70 37 -154 35 q-113 -2 -223 -64q-147 -82 -229 -239q-82 -156 -82 -289q0 -102 57 -166q55 -68 156 -68q104 0 219 103q80 72 110 133q4 8 11.5 14t11.5 4q2 -4 0 -12q-16 -61 -17 -90q0 -61 52.5 -99t195.5 -38q29 0 55.5 2t51.5 6q115 18 200 104q11 11 15 46zM600 602 q-96 -207 -190 -321l-57 -67l-31 -36q-53 -53 -93 -53q-74 0 -73 96q0 100 92 246q51 78 135 133q88 55 149 51q70 -2 70 -37q0 -8 -2 -12zM711 1249q0 61 -44 106.5t-106 45.5q-61 0 -106 -45t-45 -107q0 -61 45 -105t106 -44t105.5 44t44.5 105zM561 1169q-33 0 -56.5 24 t-23.5 56q0 35 23.5 57.5t56.5 22.5q35 0 57.5 -22.5t22.5 -57.5q0 -33 -22.5 -56.5t-57.5 -23.5z" />
<glyph unicode="&#xe6;" horiz-adv-x="1363" d="M602 616q0 -68 -149 -274q-156 -217 -224 -217q-74 0 -73 96q0 131 116 277q125 154 252 153q78 0 78 -35zM981 -18q127 0 242 30q162 49 161 146q0 82 -18 82q-2 0 -31 -29q-16 -16 -24 -25.5t-11 -11.5q-90 -74 -241 -74q-182 0 -225 58l80 75l81 74q162 168 162 318 q0 98 -54 155.5t-149 57.5q-115 0 -215 -70q-49 6 -55 -4l-18 -6q-20 0 -84 22q-61 23 -95 23q-217 0 -383 -187q-164 -186 -163 -405q0 -100 56 -167t157 -67q162 0 329 236q12 18 19 18q4 0 4 -2q0 -16 -8.5 -49t-8.5 -51q0 -96 107 -123q51 -12 184 -12q33 0 99 -6 q67 -6 102 -6zM969 678q59 0 59 -70t-110 -207q-106 -137 -166 -137q-18 0 -19 47q0 102 66 228q74 139 170 139z" />
<glyph unicode="&#xe7;" horiz-adv-x="712" d="M444 -8q20 2 39 3t35 5q115 18 201 104q10 10 14 46q4 45 -10 79q-6 18 -16 7q-20 -29 -49 -51.5t-64 -43.5q-57 -33 -100 -37q-166 -10 -246 66q-72 66 -72 162q0 41 8 82q25 147 115 213q66 43 129 35q27 -4 36 -18.5t13 -30t9.5 -28t23.5 -12.5q20 -6 37 5 q63 33 55 122q-8 115 -207 125q-133 6 -260 -96q-143 -119 -178 -334q-6 -35 -6 -69q0 -170 141 -258q109 -66 281 -76l-72 -148q-6 -12 -6 -14q0 -12 10 -12q4 0 24.5 3t28.5 3q90 0 91 -72q0 -94 -115 -94q-100 0 -197 70l-45 -72q113 -76 266 -76q96 0 168 41 q82 49 82 137q0 59 -43 101.5t-121 42.5q-8 0 -24.5 -2t-24.5 -2z" />
<glyph unicode="&#xe8;" horiz-adv-x="790" d="M811 150q4 45 -10 79q-6 18 -17 7q-88 -119 -215 -132q-195 -18 -284 33q-25 12 -25 21q0 2 10 12q39 29 79 64.5t81 80.5q131 141 148 240q6 37 6 70q0 147 -119 198q-31 14 -84 15q-94 0 -182 -50q-106 -57 -166 -174q-82 -162 -82 -303q0 -162 110 -254 q96 -78 332 -77q113 0 203 18q115 20 201 106q10 11 14 46zM395 678q59 0 60 -70q0 -49 -45 -125q-72 -123 -209 -209q-41 -29 -41 37q0 92 65 230q29 61 79 99t91 38zM10 1393q2 27 88 22q66 -4 97 -14q23 -10 28 -27q27 -82 53 -114q70 -78 107 -99q20 -8 20 -26 q0 -14 -20 -29q-39 -23 -86 -4q-109 39 -197 129q-100 96 -90 162z" />
<glyph unicode="&#xe9;" horiz-adv-x="790" d="M811 150q4 45 -10 79q-6 18 -17 7q-88 -119 -215 -132q-195 -18 -284 33q-25 12 -25 21q0 2 10 12q39 29 79 64.5t81 80.5q131 141 148 240q6 37 6 70q0 147 -119 198q-31 14 -84 15q-94 0 -182 -50q-106 -57 -166 -174q-82 -162 -82 -303q0 -162 110 -254 q96 -78 332 -77q113 0 203 18q115 20 201 106q10 11 14 46zM395 678q59 0 60 -70q0 -49 -45 -125q-72 -123 -209 -209q-41 -29 -41 37q0 92 65 230q29 61 79 99t91 38zM803 1393q-2 27 -88 22q-66 -4 -97 -14q-23 -10 -28 -27q-27 -82 -53 -114q-70 -78 -107 -99 q-20 -8 -20 -26q0 -14 20 -29q39 -23 86 -4q106 39 197 129q100 96 90 162z" />
<glyph unicode="&#xea;" horiz-adv-x="790" d="M811 150q4 45 -10 79q-6 18 -17 7q-88 -119 -215 -132q-195 -18 -284 33q-25 12 -25 21q0 2 10 12q39 29 79 64.5t81 80.5q131 141 148 240q6 37 6 70q0 147 -119 198q-31 14 -84 15q-94 0 -182 -50q-106 -57 -166 -174q-82 -162 -82 -303q0 -162 110 -254 q96 -78 332 -77q113 0 203 18q115 20 201 106q10 11 14 46zM395 678q59 0 60 -70q0 -49 -45 -125q-72 -123 -209 -209q-41 -29 -41 37q0 92 65 230q29 61 79 99t91 38zM631 1112q0 6 -15 21q-96 119 -116 233h-164q-123 -143 -246 -231q-25 -16 -24 -21q0 -16 43 -16 q117 0 292 147q143 -150 211 -149q19 0 19 16z" />
<glyph unicode="&#xeb;" horiz-adv-x="790" d="M811 150q4 45 -10 79q-6 18 -17 7q-88 -119 -215 -132q-195 -18 -284 33q-25 12 -25 21q0 2 10 12q39 29 79 64.5t81 80.5q131 141 148 240q6 37 6 70q0 147 -119 198q-31 14 -84 15q-94 0 -182 -50q-106 -57 -166 -174q-82 -162 -82 -303q0 -162 110 -254 q96 -78 332 -77q113 0 203 18q115 20 201 106q10 11 14 46zM395 678q59 0 60 -70q0 -49 -45 -125q-72 -123 -209 -209q-41 -29 -41 37q0 92 65 230q29 61 79 99t91 38zM659 1186q16 29 17 67q0 70 -66 99q-18 6 -39 6q-82 0 -108 -55q-29 -53 -29 -97q0 -63 66 -92 q18 -8 43 -8q67 0 116 80zM373 1186q16 29 16 67q0 70 -65 99q-18 6 -39 6q-82 0 -109 -55q-29 -53 -29 -97q0 -63 66 -92q18 -8 43 -8q68 0 117 80z" />
<glyph unicode="&#xec;" horiz-adv-x="559" d="M580 150q4 45 -11 79q-6 18 -16 7q-20 -29 -49 -52.5t-64 -44.5q-61 -37 -100 -37q-106 0 -147 35q-14 12 -15 39q0 23 17 78l88 262l79 240q4 25 -7 47t-29 26q-68 18 -146 -4q-35 -10 -47 -61l-40 -131l-40 -131q-35 -117 -52 -187.5t-19 -93.5q0 -37 3 -63.5t14 -48 t29.5 -41t49.5 -41.5q51 -35 182 -35q29 0 54.5 2t50.5 6q115 18 200 104q11 11 15 46zM-70 1393q2 27 86 22q66 -4 97 -14q23 -10 28 -27q27 -82 54 -114q70 -78 106 -99q20 -8 21 -26q0 -14 -21 -29q-39 -23 -86 -4q-109 39 -197 129q-98 96 -88 162z" />
<glyph unicode="&#xed;" horiz-adv-x="559" d="M580 150q4 45 -11 79q-6 18 -16 7q-20 -29 -49 -52.5t-64 -44.5q-61 -37 -100 -37q-106 0 -147 35q-14 12 -15 39q0 23 17 78l88 262l79 240q4 25 -7 47t-29 26q-68 18 -146 -4q-35 -10 -47 -61l-40 -131l-40 -131q-35 -117 -52 -187.5t-19 -93.5q0 -37 3 -63.5t14 -48 t29.5 -41t49.5 -41.5q51 -35 182 -35q29 0 54.5 2t50.5 6q115 18 200 104q11 11 15 46zM721 1393q-2 27 -88 22q-66 -4 -96 -14q-23 -10 -29 -27q-27 -82 -53 -114q-70 -78 -107 -99q-20 -8 -20 -26q0 -14 20 -29q39 -23 86 -4q106 39 197 129q100 96 90 162z" />
<glyph unicode="&#xee;" horiz-adv-x="559" d="M580 150q4 45 -11 79q-6 18 -16 7q-20 -29 -49 -52.5t-64 -44.5q-61 -37 -100 -37q-106 0 -147 35q-14 12 -15 39q0 23 17 78l88 262l79 240q4 25 -7 47t-29 26q-68 18 -146 -4q-35 -10 -47 -61l-40 -131l-40 -131q-35 -117 -52 -187.5t-19 -93.5q0 -37 3 -63.5t14 -48 t29.5 -41t49.5 -41.5q51 -35 182 -35q29 0 54.5 2t50.5 6q115 18 200 104q11 11 15 46zM569 1112q0 6 -14 21q-96 119 -117 233h-164q-123 -143 -245 -231q-25 -16 -25 -21q0 -16 43 -16q117 0 293 147q143 -150 211 -149q18 0 18 16z" />
<glyph unicode="&#xef;" horiz-adv-x="559" d="M580 150q4 45 -11 79q-6 18 -16 7q-20 -29 -49 -52.5t-64 -44.5q-61 -37 -100 -37q-106 0 -147 35q-14 12 -15 39q0 23 17 78l88 262l79 240q4 25 -7 47t-29 26q-68 18 -146 -4q-35 -10 -47 -61l-40 -131l-40 -131q-35 -117 -52 -187.5t-19 -93.5q0 -37 3 -63.5t14 -48 t29.5 -41t49.5 -41.5q51 -35 182 -35q29 0 54.5 2t50.5 6q115 18 200 104q11 11 15 46zM618 1186q16 29 17 67q0 70 -66 99q-18 6 -39 6q-82 0 -108 -55q-29 -53 -29 -97q0 -63 66 -92q18 -8 43 -8q67 0 116 80zM332 1186q16 29 16 67q0 70 -65 99q-18 6 -39 6 q-82 0 -109 -55q-29 -53 -29 -97q0 -63 66 -92q18 -8 43 -8q68 0 117 80z" />
<glyph unicode="&#xf0;" horiz-adv-x="757" d="M268 160q-111 0 -110 125q0 131 80 229q70 88 147 88q90 0 90 -90q0 -113 -45 -215q-58 -137 -162 -137zM727 1260q-20 129 -47 194q-10 25 -64 25q-43 0 -76.5 -22.5t-33.5 -51.5q0 -2 3 -17.5t7 -44.5q8 -35 13.5 -67.5t9.5 -61.5l-125 -30q-115 -29 -131 -82l-29 -90 l301 69q2 -10 2 -24v-33q0 -201 -29 -262q-37 25 -92 24q-201 0 -332 -141q-141 -152 -141 -399q0 -123 65.5 -189.5t178.5 -66.5q238 0 360 198q35 -41 72 -41q49 0 90 25q29 18 29 96q0 88 -13 88l-7 -6q-7 -6 -23 -16q-29 -20 -51 -21q-27 0 -27 37q0 41 20 103 q90 281 91 575q0 16 -1.5 40l-3.5 56l115 27q133 31 148 88l22 92z" />
<glyph unicode="&#xf1;" horiz-adv-x="1005" d="M1026 150q4 45 -10 79q-6 18 -17 7q-20 -29 -48.5 -52.5t-63.5 -44.5q-61 -37 -101 -37q-86 0 -116.5 18.5t-30.5 49.5q0 12 6 35q2 4 19 49l49 133q61 162 80 234q14 51 14 92q0 80 -80 114q-29 12 -61 13q-154 0 -367 -269q-8 -14 -20 -14t-3 25q51 156 68 215 q8 37 -6 51t-70 16q-53 2 -73 -6q-41 -14 -58 -55q-4 -14 -29 -110l-71 -275q-90 -362 -92 -389q-2 -33 28 -43q59 -18 121 18q25 16 33 49q10 33 36.5 90.5t72.5 143.5q106 203 191 286.5t126 71.5q18 -6 18 -27q0 -29 -24 -73l-37 -83t-43 -112q-49 -145 -49 -200 q0 -96 110 -140q115 -41 283 -10q115 18 201 104q10 11 14 46zM768 1167q84 84 84 103q0 29 -31 28q-14 0 -39 -24q-49 -49 -82 -49q-27 0 -96 39q-106 57 -155 57q-53 0 -119 -78q-84 -102 -84 -113q0 -29 28 -28q16 0 72 55q29 29 49 29t99 -37q117 -53 151 -53 q51 -1 123 71z" />
<glyph unicode="&#xf2;" horiz-adv-x="843" d="M659 737q-41 23 -77 23q-113 0 -113 -131q0 -70 45 -103q23 -16 23 -43q0 -29 -33 -121q-37 -115 -74 -165q-68 -96 -151 -97q-29 0 -56 15q-37 20 -37 82q0 84 68 235q45 100 135 209q68 86 98 102q37 20 17 48q-14 20 -66 20q-104 -4 -223 -94q-135 -102 -188 -260 q-43 -133 -43 -226q0 -168 143 -229q63 -25 133 -25q242 0 375 269q88 178 88 325q-1 129 -64 166zM174 1393q2 27 88 22q66 -4 96 -14q23 -10 29 -27q27 -82 53 -114q70 -78 107 -99q20 -8 20 -26q0 -14 -20 -29q-39 -23 -86 -4q-109 39 -197 129q-100 96 -90 162z" />
<glyph unicode="&#xf3;" horiz-adv-x="843" d="M659 737q-41 23 -77 23q-113 0 -113 -131q0 -70 45 -103q23 -16 23 -43q0 -29 -33 -121q-37 -115 -74 -165q-68 -96 -151 -97q-29 0 -56 15q-37 20 -37 82q0 84 68 235q45 100 135 209q68 86 98 102q37 20 17 48q-14 20 -66 20q-104 -4 -223 -94q-135 -102 -188 -260 q-43 -133 -43 -226q0 -168 143 -229q63 -25 133 -25q242 0 375 269q88 178 88 325q-1 129 -64 166zM967 1393q-2 27 -88 22q-66 -4 -97 -14q-23 -10 -28 -27q-27 -82 -54 -114q-70 -78 -106 -99q-20 -8 -21 -26q0 -14 21 -29q39 -23 86 -4q106 39 197 129q100 96 90 162z " />
<glyph unicode="&#xf4;" horiz-adv-x="843" d="M659 737q-41 23 -77 23q-113 0 -113 -131q0 -70 45 -103q23 -16 23 -43q0 -29 -33 -121q-37 -115 -74 -165q-68 -96 -151 -97q-29 0 -56 15q-37 20 -37 82q0 84 68 235q45 100 135 209q68 86 98 102q37 20 17 48q-14 20 -66 20q-104 -4 -223 -94q-135 -102 -188 -260 q-43 -133 -43 -226q0 -168 143 -229q63 -25 133 -25q242 0 375 269q88 178 88 325q-1 129 -64 166zM836 1112q0 6 -15 21q-96 119 -116 233h-164q-123 -143 -246 -231q-25 -16 -25 -21q0 -16 43 -16q117 0 293 147q143 -150 211 -149q19 0 19 16z" />
<glyph unicode="&#xf5;" horiz-adv-x="843" d="M659 737q-41 23 -77 23q-113 0 -113 -131q0 -70 45 -103q23 -16 23 -43q0 -29 -33 -121q-37 -115 -74 -165q-68 -96 -151 -97q-29 0 -56 15q-37 20 -37 82q0 84 68 235q45 100 135 209q68 86 98 102q37 20 17 48q-14 20 -66 20q-104 -4 -223 -94q-135 -102 -188 -260 q-43 -133 -43 -226q0 -168 143 -229q63 -25 133 -25q242 0 375 269q88 178 88 325q-1 129 -64 166zM727 1167q84 84 84 105q0 29 -31 28q-14 0 -39 -24q-49 -49 -82 -49q-27 0 -96 37q-109 59 -155 59q-55 0 -119 -80q-84 -100 -84 -110q0 -29 28 -29q14 0 72 53 q29 29 49 29q18 0 99 -35q113 -55 151 -55q51 -1 123 71z" />
<glyph unicode="&#xf6;" horiz-adv-x="843" d="M659 737q-41 23 -77 23q-113 0 -113 -131q0 -70 45 -103q23 -16 23 -43q0 -29 -33 -121q-37 -115 -74 -165q-68 -96 -151 -97q-29 0 -56 15q-37 20 -37 82q0 84 68 235q45 100 135 209q68 86 98 102q37 20 17 48q-14 20 -66 20q-104 -4 -223 -94q-135 -102 -188 -260 q-43 -133 -43 -226q0 -168 143 -229q63 -25 133 -25q242 0 375 269q88 178 88 325q-1 129 -64 166zM782 1186q16 29 17 67q0 70 -66 99q-18 6 -39 6q-82 0 -108 -55q-29 -53 -29 -97q0 -63 66 -92q18 -8 43 -8q67 0 116 80zM496 1186q16 29 16 67q0 70 -66 99q-18 6 -38 6 q-82 0 -109 -55q-29 -53 -29 -97q0 -63 66 -92q18 -8 43 -8q68 0 117 80z" />
<glyph unicode="&#xf7;" horiz-adv-x="1228" d="M979 305v119h-729v-119h729zM614 557q43 0 74 32t31 75q0 41 -31 72.5t-74 31.5q-41 0 -71.5 -31.5t-30.5 -72.5q0 -43 30.5 -75t71.5 -32zM614 -37q43 0 74 31t31 72q0 43 -31 74.5t-74 31.5q-41 0 -71.5 -31.5t-30.5 -74.5q0 -41 30.5 -72t71.5 -31z" />
<glyph unicode="&#xf8;" horiz-adv-x="757" d="M518 969l-88 -183q-188 -4 -319 -135q-147 -152 -148 -405q0 -156 98 -217l-116 -242h143l102 205q2 -2 17 -2q111 0 186.5 36.5t151.5 125.5q29 -16 59 -17q43 0 123 39q31 14 31 94q0 88 -13 88q2 0 -36.5 -26.5t-69.5 -26.5q-25 0 -33 4q2 4 5 14.5t10 26.5 q10 27 10 39q0 20 -19 76l14.5 15l14.5 16q18 27 18 73q0 119 -92 178l111 224h-160zM268 160q-111 0 -110 125q0 131 80 229q70 88 147 88q90 0 90 -80q0 -10 -53 -67q-53 -53 -53 -129q0 -25 26 -90q-6 -14 -20.5 -27.5t-32.5 -25t-38 -17.5t-36 -6z" />
<glyph unicode="&#xf9;" horiz-adv-x="1011" d="M1032 150q4 45 -10 79q-6 18 -16 7q-20 -29 -49 -52.5t-64 -44.5q-61 -37 -100 -37q-102 0 -142 39q-25 25 -6 115q10 45 80 250q66 199 80 225.5t14 46.5q0 37 -96 47q-104 10 -127 -69q-14 -45 -39 -109.5t-63 -152.5q-102 -229 -168 -295q-55 -55 -86 -56 q-55 0 -56 45q0 10 3 28l8 42q8 47 86 248l54 141l34 84q10 25 10 37q0 41 -82 66q-45 14 -80 14q-51 0 -65 -45q-168 -508 -177 -604q-2 -16 -3 -29.5t-1 -24.5q0 -111 92 -143q39 -12 80 -12q164 0 324 229q4 8 8 12l6 7q4 4 4 -2q0 -8 -2 -17q-12 -61 -12 -94 q0 -63 41 -92q63 -43 199 -43q29 0 54.5 3t51.5 7q115 18 201 104q10 11 14 46zM174 1393q2 27 88 22q66 -4 96 -14q23 -10 29 -27q27 -82 53 -114q70 -78 107 -99q20 -8 20 -26q0 -14 -20 -29q-39 -23 -86 -4q-109 39 -197 129q-100 96 -90 162z" />
<glyph unicode="&#xfa;" horiz-adv-x="1011" d="M1032 150q4 45 -10 79q-6 18 -16 7q-20 -29 -49 -52.5t-64 -44.5q-61 -37 -100 -37q-102 0 -142 39q-25 25 -6 115q10 45 80 250q66 199 80 225.5t14 46.5q0 37 -96 47q-104 10 -127 -69q-14 -45 -39 -109.5t-63 -152.5q-102 -229 -168 -295q-55 -55 -86 -56 q-55 0 -56 45q0 10 3 28l8 42q8 47 86 248l54 141l34 84q10 25 10 37q0 41 -82 66q-45 14 -80 14q-51 0 -65 -45q-168 -508 -177 -604q-2 -16 -3 -29.5t-1 -24.5q0 -111 92 -143q39 -12 80 -12q164 0 324 229q4 8 8 12l6 7q4 4 4 -2q0 -8 -2 -17q-12 -61 -12 -94 q0 -63 41 -92q63 -43 199 -43q29 0 54.5 3t51.5 7q115 18 201 104q10 11 14 46zM885 1393q-2 27 -88 22q-66 -4 -97 -14q-23 -10 -28 -27q-27 -82 -54 -114q-70 -78 -106 -99q-20 -8 -20 -26q0 -14 20 -29q39 -23 86 -4q106 39 197 129q100 96 90 162z" />
<glyph unicode="&#xfb;" horiz-adv-x="1011" d="M1032 150q4 45 -10 79q-6 18 -16 7q-20 -29 -49 -52.5t-64 -44.5q-61 -37 -100 -37q-102 0 -142 39q-25 25 -6 115q10 45 80 250q66 199 80 225.5t14 46.5q0 37 -96 47q-104 10 -127 -69q-14 -45 -39 -109.5t-63 -152.5q-102 -229 -168 -295q-55 -55 -86 -56 q-55 0 -56 45q0 10 3 28l8 42q8 47 86 248l54 141l34 84q10 25 10 37q0 41 -82 66q-45 14 -80 14q-51 0 -65 -45q-168 -508 -177 -604q-2 -16 -3 -29.5t-1 -24.5q0 -111 92 -143q39 -12 80 -12q164 0 324 229q4 8 8 12l6 7q4 4 4 -2q0 -8 -2 -17q-12 -61 -12 -94 q0 -63 41 -92q63 -43 199 -43q29 0 54.5 3t51.5 7q115 18 201 104q10 11 14 46zM836 1112q0 6 -15 21q-96 119 -116 233h-164q-123 -143 -246 -231q-25 -16 -25 -21q0 -16 43 -16q117 0 293 147q143 -150 211 -149q19 0 19 16z" />
<glyph unicode="&#xfc;" horiz-adv-x="1011" d="M1032 150q4 45 -10 79q-6 18 -16 7q-20 -29 -49 -52.5t-64 -44.5q-61 -37 -100 -37q-102 0 -142 39q-25 25 -6 115q10 45 80 250q66 199 80 225.5t14 46.5q0 37 -96 47q-104 10 -127 -69q-14 -45 -39 -109.5t-63 -152.5q-102 -229 -168 -295q-55 -55 -86 -56 q-55 0 -56 45q0 10 3 28l8 42q8 47 86 248l54 141l34 84q10 25 10 37q0 41 -82 66q-45 14 -80 14q-51 0 -65 -45q-168 -508 -177 -604q-2 -16 -3 -29.5t-1 -24.5q0 -111 92 -143q39 -12 80 -12q164 0 324 229q4 8 8 12l6 7q4 4 4 -2q0 -8 -2 -17q-12 -61 -12 -94 q0 -63 41 -92q63 -43 199 -43q29 0 54.5 3t51.5 7q115 18 201 104q10 11 14 46zM864 1186q16 29 17 67q0 70 -66 99q-18 6 -39 6q-82 0 -108 -55q-29 -53 -29 -97q0 -63 66 -92q18 -8 43 -8q67 0 116 80zM578 1186q16 29 16 67q0 70 -66 99q-18 6 -39 6q-82 0 -108 -55 q-29 -53 -29 -97q0 -63 66 -92q18 -8 43 -8q68 0 117 80z" />
<glyph unicode="&#xfd;" horiz-adv-x="993" d="M1014 150q4 45 -10 79q-6 18 -17 7q-37 -45 -96 -86q-68 -43 -117 -48q-41 -2 -67 -2q-25 0 -33 -2q-55 -6 -65.5 -8t-12.5 -2q-4 4 -4 8q4 6 6 21q219 639 219 653q0 33 -35 49q-18 8 -53 10q-37 4 -47 0q-35 -12 -43 -30l-72 -161l-69 -157q-113 -225 -183 -278 q-57 -43 -110 -27q-41 14 -37 98q2 35 86 254q80 205 98 234q23 35 -4 55q-47 35 -94 35q-8 0 -17.5 -1t-19.5 -3q-41 -6 -59 -37q-23 -39 -50.5 -99.5t-56.5 -144.5q-76 -219 -76 -366q0 -16 1 -32.5t4 -31.5q4 -27 18 -51.5t33.5 -42.5t42 -30.5t43.5 -12.5q94 -10 209 84 q84 72 120 133q8 14 19 14q16 0 6 -16l-98 -264q-8 -20 -17 -25q-35 -20 -94 -73q-70 -66 -98 -121q-31 -61 -31 -105q0 -82 88 -82q57 0 141 72q45 39 109 162q66 131 70 137q39 43 53 55q18 12 76 17q86 2 129 12q115 18 200 104q11 11 15 46zM885 1393q-2 27 -88 22 q-66 -4 -97 -14q-23 -10 -28 -27q-27 -82 -54 -114q-70 -78 -106 -99q-20 -8 -20 -26q0 -14 20 -29q39 -23 86 -4q106 39 197 129q100 96 90 162z" />
<glyph unicode="&#xfe;" horiz-adv-x="1099" d="M270 600l-150 -131l-134 -115q-29 -29 -29 -53v-104q0 -29 10 -29q4 0 70 55q63 55 113 107l67 69h4q-309 -717 -309 -899q0 -100 84 -100q78 0 102 119q33 150 68 276.5t76 231.5q80 209 235 376q141 154 225 154q45 0 46 -33q0 -92 -109 -243q-106 -150 -162 -150 q-16 0 -46 7t-42 7q-53 0 -53 -53q0 -39 37 -70.5t73 -31.5q68 0 144 35q37 -16 92 -17q158 0 342 129q86 57 86 142q0 74 -27 73q-6 0 -45 -37l-72 -60q-32 -26 -57 -40q-66 -37 -153 -55v4q184 193 184 368q0 88 -48 142.5t-128 54.5q-180 0 -334 -197h-4q33 129 55 173 q233 457 234 671q0 102 -70 103q-59 0 -98 -105q-33 -80 -88 -234l-135 -386z" />
<glyph unicode="&#xff;" horiz-adv-x="993" d="M1014 150q4 45 -10 79q-6 18 -17 7q-37 -45 -96 -86q-68 -43 -117 -48q-41 -2 -67 -2q-25 0 -33 -2q-55 -6 -65.5 -8t-12.5 -2q-4 4 -4 8q4 6 6 21q219 639 219 653q0 33 -35 49q-18 8 -53 10q-37 4 -47 0q-35 -12 -43 -30l-72 -161l-69 -157q-113 -225 -183 -278 q-57 -43 -110 -27q-41 14 -37 98q2 35 86 254q80 205 98 234q23 35 -4 55q-47 35 -94 35q-8 0 -17.5 -1t-19.5 -3q-41 -6 -59 -37q-23 -39 -50.5 -99.5t-56.5 -144.5q-76 -219 -76 -366q0 -16 1 -32.5t4 -31.5q4 -27 18 -51.5t33.5 -42.5t42 -30.5t43.5 -12.5q94 -10 209 84 q84 72 120 133q8 14 19 14q16 0 6 -16l-98 -264q-8 -20 -17 -25q-35 -20 -94 -73q-70 -66 -98 -121q-31 -61 -31 -105q0 -82 88 -82q57 0 141 72q45 39 109 162q66 131 70 137q39 43 53 55q18 12 76 17q86 2 129 12q115 18 200 104q11 11 15 46zM864 1186q16 29 17 67 q0 70 -66 99q-18 6 -39 6q-82 0 -108 -55q-29 -53 -29 -97q0 -63 66 -92q18 -8 43 -8q67 0 116 80zM578 1186q16 29 16 67q0 70 -66 99q-18 6 -39 6q-82 0 -108 -55q-29 -53 -29 -97q0 -63 66 -92q18 -8 43 -8q68 0 117 80z" />
<glyph unicode="&#x152;" horiz-adv-x="1470" d="M844 1016q-4 -41 -82 -41q-41 0 -75 13t-57.5 36t-36.5 51.5t-13 59.5q0 57 53 104q27 25 69 25q31 0 58.5 -15.5t47 -40t31 -55.5t11.5 -61q0 -6 -6 -76zM788 760q-29 -111 -120 -283q-172 -324 -322 -323q-20 0 -41 6q-131 43 -131 239q0 162 82 383q76 209 170 320 q14 20 27 20q10 0 8 -39q-16 -123 84 -213q74 -68 160 -67q14 0 32 3l45 7q8 2 13 -12q-2 -10 -3.5 -20.5t-3.5 -20.5zM1624 1247q-4 68 -80 105q-41 20 -119 20q-236 0 -426 -205q-53 166 -139 201q-84 39 -131 39q-55 0 -125 -31q-16 -6 -39 -6q-166 -4 -319 -178 q-129 -150 -219 -387q-66 -184 -66 -377q0 -348 209 -430q61 -27 135 -27q59 0 121 19q-41 -106 -41 -187q0 -186 197 -243q37 -10 75 -11q152 0 316 111q117 78 219 190q94 100 113 150q4 16 4 23q0 29 -41 63q-31 25 -51 25q-23 0 -41 -29q-49 -78 -181 -201 q-176 -164 -266 -164t-90 111q0 115 113 295q129 211 245 313q27 25 54 21q68 -14 112 -2q150 39 150 129t-117 90q-41 0 -83 -19l-81 -37q-20 -10 -31.5 1.5t-11.5 37.5q0 109 88 258q76 129 168 215q106 100 191 99q35 0 59.5 -9.5t40.5 -19.5t25.5 -18t11.5 -8 q18 0 35.5 24t15.5 49z" />
<glyph unicode="&#x153;" horiz-adv-x="1314" d="M922 678q59 0 59 -70q0 -49 -45 -125q-72 -123 -209 -209q-41 -29 -41 37q0 92 66 230q29 61 79 99t91 38zM541 104q10 -12 21 -24t26 -23q96 -78 332 -77q113 0 202 18q115 20 201 106q10 10 14 46q4 45 -10 79q-6 18 -16 7q-88 -119 -215 -132q-195 -18 -285 33 q-25 12 -25 21q0 2 11 12q39 29 78.5 64.5t80.5 80.5q131 141 148 240q6 37 6 70q0 147 -119 198q-31 14 -84 15q-141 0 -252 -99q-35 20 -73 21q-63 0 -90 -45l-3 -2q-23 -41 -22 -92q0 -66 47 -95q23 -16 23 -43q0 -29 -33 -121q-37 -115 -74 -165q-68 -96 -151 -97 q-29 0 -56 15q-37 20 -37 82q0 84 68 235q45 100 135 209q68 86 98 102q37 20 17 48q-14 20 -66 20q-104 -4 -223 -94q-135 -102 -188 -260q-43 -133 -43 -226q0 -168 143 -229q63 -25 133 -25q160 0 281 127z" />
<glyph unicode="&#x178;" horiz-adv-x="1681" d="M1702 150q4 45 -10 79q-6 18 -17 7q-20 -29 -49 -52.5t-63 -44.5q-61 -37 -101 -37q-27 0 -52.5 -1t-49.5 -3q-59 -6 -74 -6q-18 0 -20 12q-2 6 8 39q18 53 64 199l120 383q135 442 154 510q6 20 6 39q0 45 -84 61q-20 4 -36.5 6t-27.5 2q-49 0 -63 -43 q-74 -229 -299 -600q-236 -383 -381 -487q-90 -68 -154 -51q-25 6 -24 39q0 25 16 63q205 481 240 725q2 16 3 34.5t1 35.5q0 266 -268 282q-311 16 -461 -309q-39 -80 -39 -168q0 -82 37 -149q31 -57 72 -80q25 -12 47 -12q61 0 61 43q0 16 -16 28q-25 20 -25 78 q0 70 35 162q96 250 242 250q10 0 20 -1t21 -3q82 -14 81 -125q0 -35 -8 -60q-4 -16 -141 -383q-133 -354 -148 -426q-2 -12 -3 -24t-1 -23q0 -74 46.5 -112.5t119.5 -38.5q123 0 250 80q113 74 254 237q57 68 104.5 132.5t84.5 127.5l12 17q6 2 6 -2t-1 -10.5t-3 -16.5 q-18 -68 -92 -258l-67 -165q-30 -71 -52 -118q-23 -45 -49 -53q-63 -23 -187 -127q-141 -123 -141 -203q0 -37 27 -57q49 -43 114 -43q117 0 260 139q123 123 160 234q12 33 49 49q35 18 87.5 24.5t110.5 12.5t114.5 19t101.5 44q16 10 31.5 23.5l32.5 29.5q10 11 14 46z M1391 1645q16 29 16 67q0 70 -66 98q-18 6 -38 7q-82 0 -109 -56q-29 -53 -29 -96q0 -63 66 -92q18 -8 43 -8q68 0 117 80zM1104 1645q16 29 16 67q0 70 -65 98q-18 6 -39 7q-82 0 -109 -56q-29 -53 -28 -96q0 -63 65 -92q18 -8 43 -8q68 0 117 80z" />
<glyph unicode="&#x2c6;" d="M809 1112q0 6 -14 21q-96 119 -117 233h-164q-123 -143 -246 -231q-25 -16 -24 -21q0 -16 43 -16q117 0 293 147q143 -150 211 -149q18 0 18 16z" />
<glyph unicode="&#x2dc;" d="M809 1167q84 84 84 105q0 29 -31 28q-14 0 -39 -24q-49 -49 -82 -49q-27 0 -96 37q-109 59 -156 59q-55 0 -118 -80q-84 -100 -84 -110q0 -29 28 -29q14 0 72 53q29 29 49 29q18 0 99 -35q113 -55 151 -55q51 -1 123 71z" />
<glyph unicode="&#x2000;" horiz-adv-x="940" />
<glyph unicode="&#x2001;" horiz-adv-x="1880" />
<glyph unicode="&#x2002;" horiz-adv-x="940" />
<glyph unicode="&#x2003;" horiz-adv-x="1880" />
<glyph unicode="&#x2004;" horiz-adv-x="626" />
<glyph unicode="&#x2005;" horiz-adv-x="468" />
<glyph unicode="&#x2006;" horiz-adv-x="313" />
<glyph unicode="&#x2007;" horiz-adv-x="313" />
<glyph unicode="&#x2008;" horiz-adv-x="233" />
<glyph unicode="&#x2009;" horiz-adv-x="374" />
<glyph unicode="&#x200a;" horiz-adv-x="104" />
<glyph unicode="&#x2010;" horiz-adv-x="790" d="M565 397q41 0 67.5 31t26.5 74q0 37 -41 41q-141 2 -260.5 3t-224.5 1q-53 6 -84 -64q-23 -51 -22 -65q0 -23 28 -19q74 6 275 0q35 -2 92 -2h143z" />
<glyph unicode="&#x2011;" horiz-adv-x="790" d="M565 397q41 0 67.5 31t26.5 74q0 37 -41 41q-141 2 -260.5 3t-224.5 1q-53 6 -84 -64q-23 -51 -22 -65q0 -23 28 -19q74 6 275 0q35 -2 92 -2h143z" />
<glyph unicode="&#x2012;" horiz-adv-x="790" d="M565 397q41 0 67.5 31t26.5 74q0 37 -41 41q-141 2 -260.5 3t-224.5 1q-53 6 -84 -64q-23 -51 -22 -65q0 -23 28 -19q74 6 275 0q35 -2 92 -2h143z" />
<glyph unicode="&#x2013;" horiz-adv-x="1024" d="M1006 303l36 123h-1024l-34 -123h1022z" />
<glyph unicode="&#x2014;" horiz-adv-x="2048" d="M2030 303l36 123h-2048l-34 -123h2046z" />
<glyph unicode="&#x2018;" horiz-adv-x="540" d="M586 1360q16 16 16 35q0 23 -21.5 40t-43.5 17q-18 0 -45 -16q-98 -66 -177 -203q-70 -121 -69 -201q0 -10 1 -19t3 -20q8 -39 90 -24q31 4 54.5 13t39.5 19q23 16 25 39q14 121 37 168q57 119 90 152z" />
<glyph unicode="&#x2019;" horiz-adv-x="602" d="M557 1427q-8 39 -90 25q-31 -4 -54.5 -13t-39.5 -20q-23 -16 -25 -39q-14 -121 -37 -168q-59 -121 -90 -151q-16 -16 -16 -35q0 -23 21.5 -40t43.5 -17q18 0 45 16q98 66 177 203q70 121 69 201q0 10 -1 19t-3 19z" />
<glyph unicode="&#x201a;" horiz-adv-x="602" d="M557 205q-8 39 -90 24q-31 -4 -54.5 -13t-39.5 -19q-23 -16 -25 -39q-16 -123 -37 -166q-59 -121 -90 -152q-16 -16 -16 -35q0 -23 21.5 -40t43.5 -17q18 0 45 16q98 66 177 203q70 119 69 199q0 10 -1 19.5t-3 19.5z" />
<glyph unicode="&#x201c;" horiz-adv-x="983" d="M967 1360q16 16 16 35q0 23 -21.5 40t-43.5 17q-18 0 -46 -16q-98 -66 -176 -203q-70 -121 -69 -201q0 -10 1 -19t3 -20q8 -39 90 -24q31 4 54.5 13t39.5 19q23 16 25 39q14 121 37 168q57 119 90 152zM586 1360q16 16 16 35q0 23 -21.5 40t-43.5 17q-18 0 -45 -16 q-98 -66 -177 -203q-70 -121 -69 -201q0 -10 1 -19t3 -20q8 -39 90 -24q31 4 54.5 13t39.5 19q23 16 25 39q14 121 37 168q57 119 90 152z" />
<glyph unicode="&#x201d;" horiz-adv-x="983" d="M938 1427q-8 39 -90 25q-31 -4 -54.5 -13t-39.5 -20q-23 -16 -25 -39q-14 -121 -37 -168q-59 -121 -90 -151q-16 -16 -16 -35q0 -23 21.5 -40t43.5 -17q18 0 45 16q98 66 176 203q70 121 70 201q0 10 -1 19t-3 19zM557 1427q-8 39 -90 25q-31 -4 -54.5 -13t-39.5 -20 q-23 -16 -25 -39q-14 -121 -37 -168q-59 -121 -90 -151q-16 -16 -16 -35q0 -23 21.5 -40t43.5 -17q18 0 45 16q98 66 177 203q70 121 69 201q0 10 -1 19t-3 19z" />
<glyph unicode="&#x201e;" horiz-adv-x="983" d="M938 205q-8 39 -90 24q-31 -4 -54.5 -13t-39.5 -19q-23 -16 -25 -39q-16 -123 -37 -166q-59 -121 -90 -152q-16 -16 -16 -35q0 -23 21.5 -40t43.5 -17q18 0 45 16q98 66 176 203q70 119 70 199q0 10 -1 19.5t-3 19.5zM557 205q-8 39 -90 24q-31 -4 -54.5 -13t-39.5 -19 q-23 -16 -25 -39q-16 -123 -37 -166q-59 -121 -90 -152q-16 -16 -16 -35q0 -23 21.5 -40t43.5 -17q18 0 45 16q98 66 177 203q70 119 69 199q0 10 -1 19.5t-3 19.5z" />
<glyph unicode="&#x2022;" horiz-adv-x="1024" d="M866 713q0 150 -104 252q-102 104 -250 104q-150 0 -254 -104q-102 -102 -102 -252q0 -147 104 -252q106 -102 252 -103q147 0 250 103q104 105 104 252z" />
<glyph unicode="&#x2026;" horiz-adv-x="2617" d="M2214 45q25 31 24 70q0 51 -33.5 86t-82.5 35q-61 0 -111 -56q-41 -47 -41 -106q0 -96 96 -97q95 0 148 68zM1341 45q25 31 25 70q0 51 -34 86t-83 35q-61 0 -110 -56q-41 -47 -41 -106q0 -96 96 -97q94 0 147 68zM469 45q25 31 25 70q0 51 -34 86t-83 35q-61 0 -111 -56 q-41 -47 -41 -106q0 -96 97 -97q94 0 147 68z" />
<glyph unicode="&#x202f;" horiz-adv-x="374" />
<glyph unicode="&#x2039;" horiz-adv-x="645" d="M379 387q31 39 71 79l87 83q-53 -4 -90 -6t-58 -2h-45q-20 0 -43 2q-74 -123 -182 -244q100 -150 131 -244q16 2 35.5 3t42.5 1q-6 0 133 -6l-93 147l-67 103q29 25 78 84z" />
<glyph unicode="&#x203a;" horiz-adv-x="645" d="M258 55q55 106 240 240q-72 88 -121 250q-35 -4 -60.5 -6t-46.5 -2q-14 0 -49 4t-92 12l55 -56l25 -26q18 -23 49 -74q29 -49 53 -73q-66 -45 -141 -127q-61 -72 -154 -146q150 12 144 12q14 0 38.5 -2t59.5 -6z" />
<glyph unicode="&#x205f;" horiz-adv-x="468" />
<glyph unicode="&#x2122;" horiz-adv-x="2027" d="M799 1430h-680v-132h256v-712h168v712h256v132zM1210 1430h-239v-844h155v663h4l252 -663h115l252 663h4v-663h156v844h-238l-229 -599z" />
<glyph unicode="&#xe000;" horiz-adv-x="830" d="M0 830h830v-830h-830v830z" />
<glyph unicode="&#xfb01;" horiz-adv-x="1347" d="M1294 1186q16 29 16 67q0 70 -65 99q-18 6 -39 6q-82 0 -109 -55q-29 -53 -28 -97q0 -63 65 -92q18 -8 43 -8q68 0 117 80zM1368 150q1 10 0 19q0 33 -11 60q-6 18 -16 7q-20 -29 -49 -52.5t-64 -44.5q-61 -37 -100 -37q-106 0 -147 35q-14 12 -15 39q0 23 17 78l88 262 l79 240q4 25 -7 47t-29 26q-30 8 -63 9q-40 0 -83 -13q-35 -10 -47 -61l-40 -131l-40 -131q-35 -117 -52 -187.5t-19 -93.5q0 -37 3 -63.5t14 -48t29.5 -41t49.5 -41.5q51 -35 182 -35q29 0 54.5 2t50.5 6q115 18 200 104q11 11 15 46zM809 150q1 10 1 19q0 33 -11 60 q-6 18 -17 7q-20 -29 -48.5 -52.5t-63.5 -44.5q-61 -37 -101 -37q-80 0 -147 23q-18 6 -29 35q-18 61 -55 88q-31 20 -31 37q0 12 21 26q86 57 202 197q143 170 205 334q82 213 82 329q0 168 -147 205q-29 6 -54 6q-213 0 -411 -481q-80 -197 -172 -518l-67 -242 q-26 -90 -34 -123q-23 -98 -35 -171.5t-12 -127.5q0 -160 103 -182q33 -8 71 -8q217 0 320 301q14 39 22.5 77t12.5 75q2 18 24 14q25 -5 57 -5q43 0 99 9q70 8 137 53q33 20 64 51q10 11 14 46zM612 1217q43 -6 43 -62q0 -78 -86 -256q-131 -266 -270 -434q-23 -25 -29 -25 q-4 0 -4 6q0 12 13 43l98 275l86 240q77 213 144 213h5zM266 4q0 -57 -30 -139q-68 -184 -124 -184q-5 0 -10 2q-29 6 -28 45q0 14 43 172q39 143 47 161q8 27 20 27q6 0 13 -6q41 -39 59 -49q10 -6 10 -29z" />
<glyph unicode="&#xfb02;" horiz-adv-x="1323" d="M1343 150q1 10 1 19q0 33 -11 60q-6 18 -17 7q-20 -29 -48.5 -52.5t-63.5 -44.5q-61 -37 -101 -37q-111 0 -139 29q-14 14 -14 41q0 23 14 80q45 203 160 547q31 70 43 86q98 131 141 258q12 39 12 74q0 55 -27.5 90.5t-70.5 40.5q-7 1 -13 0q-117 0 -183 -174 q-66 -166 -142 -433q-94 -332 -110 -495q-2 -25 -3 -43.5t-1 -32.5q0 -109 81 -154q61 -29 154 -28q57 0 123 12q115 18 201 104q10 11 14 46zM809 150q1 10 1 19q0 33 -11 60q-6 18 -17 7q-20 -29 -48.5 -52.5t-63.5 -44.5q-61 -37 -101 -37q-80 0 -147 23q-18 6 -29 35 q-18 61 -55 88q-31 20 -31 37q0 12 21 26q86 57 202 197q143 170 205 334q82 213 82 329q0 168 -147 205q-29 6 -54 6q-213 0 -411 -481q-80 -197 -172 -518l-67 -242q-26 -90 -34 -123q-23 -98 -35 -171.5t-12 -127.5q0 -160 103 -182q33 -8 71 -8q217 0 320 301 q14 39 22.5 77t12.5 75q2 18 24 14q25 -5 57 -5q43 0 99 9q70 8 137 53q33 20 64 51q10 11 14 46zM612 1217q43 -6 43 -62q0 -78 -86 -256q-131 -266 -270 -434q-23 -25 -29 -25q-4 0 -4 6q0 12 13 43l98 275l86 240q77 213 144 213h5zM266 4q0 -57 -30 -139 q-68 -184 -124 -184q-5 0 -10 2q-29 6 -28 45q0 14 43 172q39 143 47 161q8 27 20 27q6 0 13 -6q41 -39 59 -49q10 -6 10 -29z" />
<glyph unicode="&#xfb03;" horiz-adv-x="2136" d="M2083 1186q16 29 16 67q0 70 -65 99q-18 6 -39 6q-82 0 -109 -55q-29 -53 -28 -97q0 -63 65 -92q18 -8 43 -8q68 0 117 80zM2157 150q1 10 0 19q0 33 -11 60q-6 18 -16 7q-20 -29 -49 -52.5t-64 -44.5q-61 -37 -100 -37q-106 0 -147 35q-14 12 -15 39q0 23 17 78l88 262 l79 240q4 25 -7 47t-29 26q-30 8 -63 9q-40 0 -83 -13q-35 -10 -47 -61l-40 -131l-40 -131q-35 -117 -52 -187.5t-19 -93.5q0 -37 3 -63.5t14 -48t29.5 -41t49.5 -41.5q51 -35 182 -35q29 0 54.5 2t50.5 6q115 18 200 104q11 11 15 46zM1597 150q1 10 1 19q0 33 -11 60 q-6 18 -17 7q-20 -29 -48.5 -52.5t-63.5 -44.5q-61 -37 -101 -37q-80 0 -147 23q-18 6 -29 35q-18 61 -55 88q-31 20 -31 37q0 12 21 26q86 57 202 197q143 170 205 334q82 213 82 329q0 168 -147 205q-29 6 -54 6q-213 0 -411 -481q-80 -197 -172 -518l-67 -242 q-26 -90 -34 -123q-23 -98 -35 -171.5t-12 -127.5q0 -160 103 -182q33 -8 71 -8q217 0 320 301q14 39 22.5 77t12.5 75q2 18 24 14q25 -5 57 -5q43 0 99 9q70 8 137 53q33 20 64 51q10 11 14 46zM1400 1217q43 -6 43 -62q0 -78 -86 -256q-131 -266 -270 -434 q-23 -25 -29 -25q-4 0 -4 6q0 12 13 43l98 275l86 240q77 213 144 213h5zM1054 4q0 -57 -30 -139q-68 -184 -124 -184q-5 0 -10 2q-29 6 -28 45q0 14 43 172q39 143 47 161q8 27 20 27q6 0 13 -6q41 -39 59 -49q10 -6 10 -29zM809 150q1 10 1 19q0 33 -11 60q-6 18 -17 7 q-20 -29 -48.5 -52.5t-63.5 -44.5q-61 -37 -101 -37q-80 0 -147 23q-18 6 -29 35q-18 61 -55 88q-31 20 -31 37q0 12 21 26q86 57 202 197q143 170 205 334q82 213 82 329q0 168 -147 205q-29 6 -54 6q-213 0 -411 -481q-80 -197 -172 -518l-67 -242q-26 -90 -34 -123 q-23 -98 -35 -171.5t-12 -127.5q0 -160 103 -182q33 -8 71 -8q217 0 320 301q14 39 22.5 77t12.5 75q2 18 24 14q25 -5 57 -5q43 0 99 9q70 8 137 53q33 20 64 51q10 11 14 46zM612 1217q43 -6 43 -62q0 -78 -86 -256q-131 -266 -270 -434q-23 -25 -29 -25q-4 0 -4 6 q0 12 13 43l98 275l86 240q77 213 144 213h5zM266 4q0 -57 -30 -139q-68 -184 -124 -184q-5 0 -10 2q-29 6 -28 45q0 14 43 172q39 143 47 161q8 27 20 27q6 0 13 -6q41 -39 59 -49q10 -6 10 -29z" />
<glyph unicode="&#xfb04;" horiz-adv-x="2111" d="M2132 150q1 10 1 19q0 33 -11 60q-6 18 -17 7q-20 -29 -48.5 -52.5t-63.5 -44.5q-61 -37 -101 -37q-111 0 -139 29q-14 14 -14 41q0 23 14 80q45 203 160 547q31 70 43 86q98 131 141 258q12 39 12 74q0 55 -27.5 90.5t-70.5 40.5q-7 1 -13 0q-117 0 -183 -174 q-66 -166 -142 -433q-94 -332 -110 -495q-2 -25 -3 -43.5t-1 -32.5q0 -109 81 -154q61 -29 154 -28q57 0 123 12q115 18 201 104q10 11 14 46zM1597 150q1 10 1 19q0 33 -11 60q-6 18 -17 7q-20 -29 -48.5 -52.5t-63.5 -44.5q-61 -37 -101 -37q-80 0 -147 23q-18 6 -29 35 q-18 61 -55 88q-31 20 -31 37q0 12 21 26q86 57 202 197q143 170 205 334q82 213 82 329q0 168 -147 205q-29 6 -54 6q-213 0 -411 -481q-80 -197 -172 -518l-67 -242q-26 -90 -34 -123q-23 -98 -35 -171.5t-12 -127.5q0 -160 103 -182q33 -8 71 -8q217 0 320 301 q14 39 22.5 77t12.5 75q2 18 24 14q25 -5 57 -5q43 0 99 9q70 8 137 53q33 20 64 51q10 11 14 46zM1400 1217q43 -6 43 -62q0 -78 -86 -256q-131 -266 -270 -434q-23 -25 -29 -25q-4 0 -4 6q0 12 13 43l98 275l86 240q77 213 144 213h5zM1054 4q0 -57 -30 -139 q-68 -184 -124 -184q-5 0 -10 2q-29 6 -28 45q0 14 43 172q39 143 47 161q8 27 20 27q6 0 13 -6q41 -39 59 -49q10 -6 10 -29zM809 150q1 10 1 19q0 33 -11 60q-6 18 -17 7q-20 -29 -48.5 -52.5t-63.5 -44.5q-61 -37 -101 -37q-80 0 -147 23q-18 6 -29 35q-18 61 -55 88 q-31 20 -31 37q0 12 21 26q86 57 202 197q143 170 205 334q82 213 82 329q0 168 -147 205q-29 6 -54 6q-213 0 -411 -481q-80 -197 -172 -518l-67 -242q-26 -90 -34 -123q-23 -98 -35 -171.5t-12 -127.5q0 -160 103 -182q33 -8 71 -8q217 0 320 301q14 39 22.5 77t12.5 75 q2 18 24 14q25 -5 57 -5q43 0 99 9q70 8 137 53q33 20 64 51q10 11 14 46zM612 1217q43 -6 43 -62q0 -78 -86 -256q-131 -266 -270 -434q-23 -25 -29 -25q-4 0 -4 6q0 12 13 43l98 275l86 240q77 213 144 213h5zM266 4q0 -57 -30 -139q-68 -184 -124 -184q-5 0 -10 2 q-29 6 -28 45q0 14 43 172q39 143 47 161q8 27 20 27q6 0 13 -6q41 -39 59 -49q10 -6 10 -29z" />
</font>
</defs>
</svg>
