<?xml version="1.0" standalone="no"?>
<!DOCTYPE svg PUBLIC "-//W3C//DTD SVG 1.1//EN" "http://www.w3.org/Graphics/SVG/1.1/DTD/svg11.dtd" >
<svg xmlns="http://www.w3.org/2000/svg">
<metadata>
This is a custom SVG webfont generated by Font Squirrel.
Designer    : Linus Romer
Foundry     : Linus Romer
Foundry URL : http://home.arcor.de/unimath/miama.html
</metadata>
<defs>
<font id="webfontkYpGafVz" horiz-adv-x="217" >
<font-face units-per-em="1000" ascent="800" descent="-200" />
<missing-glyph horiz-adv-x="350" />
<glyph unicode=" "  horiz-adv-x="350" />
<glyph unicode="&#x09;" horiz-adv-x="350" />
<glyph unicode="&#xa0;" horiz-adv-x="350" />
<glyph unicode="!" d="M80 14q0 16 14 31.5t31 15.5q19 0 19 -20q0 -16 -13.5 -31.5t-30.5 -15.5q-20 0 -20 20zM141 106q-2 -7 -11 -7q-8 0 -8 7q0 5 19.5 52t33.5 74q52 104 109 166q9 9 32 9q30 0 30 -12q0 -4 -2 -4l-2 1h-4q-45 0 -146 -169q-38 -65 -51 -117z" />
<glyph unicode="&#x22;" horiz-adv-x="833" d="M188 272q34 41 70 104q8 14 17 34l15 33q5 13 9 16q16 13 32 13q13 0 13 -9q0 -2 -13 -23q-65 -107 -135 -175q-11 -11 -14 -11q-4 0 -4 4t10 14zM264 272q34 41 70 104q8 14 17 34l15 33q5 13 9 16q16 13 32 13q13 0 13 -9q0 -2 -13 -23q-65 -107 -135 -175 q-11 -11 -14 -11q-4 0 -4 4t10 14z" />
<glyph unicode="#" horiz-adv-x="331" d="M137 99q-2 0 -19.5 -4.5t-23.5 -4.5q-3 0 -3 3l1 3q2 3 4.5 8t6.5 10t9.5 9t11.5 5q22 4 33 5l63 109q-29 -2 -43 -5q-5 0 -5 3q0 9 5 15.5t17.5 10t19.5 5t25 4.5q4 6 13 21.5t17 27.5l17 25q8 13 14.5 20.5t9.5 7.5q5 0 5 -7q0 -5 -11 -22l-26 -40l-20 -31l60 3l23 42 q19 34 30.5 50t20.5 16q4 0 4 -4q0 -2 -2 -6q-26 -34 -62 -97l42 3q4 0 4 -2q0 -7 -10.5 -22t-16.5 -15q-3 0 -15 1t-23 1q-10 -19 -66 -108q38 2 44 2q10 0 10 -4q0 -1 -2.5 -5t-3.5 -7q-7 -23 -38 -23q-6 0 -15.5 0.5t-14.5 0.5q-9 -13 -29.5 -47.5t-35 -56.5t-20.5 -22 t-6 8q0 7 4 12q23 32 72 107q-44 0 -58 -2q-2 -4 -32.5 -50t-49.5 -83q-2 -5 -10 -5q-10 0 -10 7q0 2 15 25l33 48l22 32q5 7 15 23zM174 135q16 0 59 3q47 75 66 109q-9 0 -29.5 -2t-31.5 -2z" />
<glyph unicode="$" horiz-adv-x="360" d="M140 -7q5 9 25 49l90 180q-52 28 -67 47t-15 43q0 51 45 87t99 36q21 0 44 -6q1 2 31 57q2 3 3 3l3 -1h4q3 0 1 -4q-3 -4 -31 -58q20 -8 32.5 -24t12.5 -36q0 -15 -7 -28q-4 -8 -32 -8q-13 0 -13 6l1 6q2 5 4 13t2 14q0 19 -13 29l-44 -87l-28 -52q73 -32 73 -105 q0 -69 -66.5 -129t-140.5 -60q-2 0 -6.5 0.5t-5.5 0.5l-59 -107q-3 -6 -15 -14t-17 -8q-2 0 -2 2l2 4q41 62 76 125q-68 19 -68 83q0 47 34 85q12 15 20 15q5 0 5 -12q0 -16 -4 -17q-34 -21 -34 -55q0 -32 29 -56q11 -9 32 -18zM153 -11q12 -3 23 -3q52 0 97 44t47 96 q0 56 -54 90l-89 -179zM276 264q34 60 73 141q-24 13 -49 13q-34 0 -68.5 -24.5t-34.5 -57.5q0 -23 22.5 -42.5t56.5 -29.5z" />
<glyph unicode="%" horiz-adv-x="635" d="M122 -55q-3 0 -3 2q0 4 5 7l445 484q7 9 16 9q7 0 7 -5q0 -2 -1 -2l-445 -486q-9 -9 -24 -9zM477 150q-43 -54 -43 -112q0 -39 23 -39q33 0 65.5 47t33.5 85q0 49 -32 49q-24 0 -47 -30zM533 192q23 0 38.5 -16t15.5 -40q0 -48 -48.5 -99.5t-97.5 -51.5q-20 0 -31.5 15 t-11.5 38q0 30 19 64t43 57q32 32 73 33zM263 412q-43 -54 -43 -112q0 -39 23 -39q33 0 65.5 47t33.5 85q0 49 -32 49q-24 0 -47 -30zM319 454q23 0 38.5 -16t15.5 -40q0 -48 -48.5 -99.5t-97.5 -51.5q-20 0 -31.5 15t-11.5 38q0 30 19 64t43 57q32 32 73 33z" />
<glyph unicode="&#x26;" horiz-adv-x="630" d="M348 442q32 0 55.5 -15t23.5 -44q0 -24 -34 -24q-4 0 -4 4q0 2 3 9.5t3 14.5q0 18 -14.5 30t-37.5 12q-43 0 -72.5 -34.5t-29.5 -78.5q0 -16 4 -28q19 3 38 3q72 0 72 -35q0 -14 -15 -25.5t-35 -11.5t-41.5 12.5t-32.5 42.5q-65 -19 -106.5 -72.5t-41.5 -117.5 q0 -66 46.5 -102t117.5 -36q89 0 156 96q24 34 31 71q-11 6 -29.5 17.5t-36.5 21.5t-44 21q-12 4 -17 4q-13 0 -24.5 -10t-11.5 -23q0 -17 27 -37l1 -2q0 -3 -16 -3q-21 0 -26 3.5t-11 23.5q-2 6 -2 9q0 19 20.5 32.5t49.5 13.5q11 0 20 -1t18 -3l16 -4q5 -2 15 -7 t13.5 -7.5t16 -9.5t16.5 -10q71 -44 120 -44q33 0 37 28q0 6 7 6q5 0 5 -6q0 -18 -20.5 -29.5t-39.5 -11.5q-40 0 -91 22q-23 -77 -88 -131.5t-146 -54.5q-66 0 -115 44t-49 114q0 97 87 162q51 37 92 44q-4 13 -4 31q0 59 39.5 92.5t84.5 33.5zM248 278q6 -22 24 -37.5 t34 -15.5q10 0 18.5 7t8.5 18q0 31 -49 31q-3 0 -36 -3z" />
<glyph unicode="'" horiz-adv-x="220" d="M188 272q34 41 70 104q8 14 17 34l15 33q5 13 9 16q16 13 32 13q13 0 13 -9q0 -2 -13 -23q-65 -107 -135 -175q-11 -11 -14 -11q-4 0 -4 4t10 14z" />
<glyph unicode="(" horiz-adv-x="355" d="M180 -64l2 -2q0 -1 -4 -1q-8 0 -15 3q-63 26 -63 115q0 51 34 123q63 129 158 223q75 75 187 130q2 1 7 3t9 4t5 2q3 0 3 -3t-7 -6q-50 -26 -85 -50t-49.5 -37.5t-39.5 -40.5q-90 -97 -144 -211q-44 -92 -44 -155q0 -73 46 -97z" />
<glyph unicode=")" horiz-adv-x="379" d="M372 534l-2 2q0 1 4 1q8 0 15 -3q63 -27 63 -115q0 -51 -34 -123q-63 -129 -158 -223q-79 -79 -187 -130q-18 -8 -21 -8t-3 3t7 5q59 26 93 51.5t81 76.5q70 76 144 215q44 84 44 152q0 72 -46 96z" />
<glyph unicode="*" horiz-adv-x="255" d="M209 270q-2 2 -8.5 6t-8.5 5q0 -24 4 -24q5 0 13 13zM260 344q11 18 24 43t19.5 35.5t10.5 10.5q3 0 5.5 -7.5t2.5 -11.5q0 -2 -1 -3q-37 -48 -53 -74q19 0 52 1.5t44 1.5q8 0 8 -4t-5 -9t-9 -5q-2 0 -9 0.5t-11 0.5q-9 0 -31 -0.5t-34 -0.5q22 -38 49 -77q1 -2 1 -4 q0 -5 -4.5 -9.5t-8.5 -6.5l-4 -2q-21 0 -83 37l-7 -12l-7 -14q-3 -6 -6 -6q-18 0 -18 36q0 2 0.5 10t0.5 11q-51 33 -51 45q0 6 7.5 11.5t19.5 5.5t27 -3q1 11 1 27.5t0.5 25.5t2 19t5.5 14.5t11 4.5q4 0 9 -9l17 -34q12 -25 25 -48zM246 338q-42 70 -45 70q-4 0 -7 -65 q21 -5 52 -5zM256 319q-18 -28 -30 -53q47 -33 63 -33q3 0 3 4q0 13 -36 82zM245 322q-15 0 -33 2t-19 2q-1 -13 -1 -36l21 -15q18 24 32 47zM187 293q1 8 1 33q-3 0 -7.5 0.5t-6.5 0.5q-14 0 -14 -6q0 -8 27 -28z" />
<glyph unicode="+" horiz-adv-x="421" d="M329 175q-98 -155 -203 -155q-8 0 -17 2t-17.5 9.5t-8.5 18.5q0 22 26 54.5t68 53.5q49 25 133 43l10 22l11 22q4 8 7 17.5t3 16.5q0 30 -43 30q-46 0 -83 -35q-5 -5 -11 -5q-7 0 -7 3t19 15.5t52 26t62 13.5q51 0 51 -37q0 -19 -32 -81q55 10 120 14q3 0 3 -6 q0 -5 -3.5 -14t-7.5 -16t-5 -7l-5 2q-5 3 -11 3q-43 0 -111 -10zM292 169q-85 -16 -132 -43q-29 -16 -45.5 -39t-16.5 -39q0 -19 31 -19q46 0 84 34.5t79 105.5z" />
<glyph unicode="," horiz-adv-x="208" d="M118 62q8 10 27.5 18.5t31.5 8.5q6 0 6 -2q0 -4 -8 -12q-159 -170 -196 -203q-2 -2 -3 -2q-5 0 -5 8q0 4 1 5l74 91q46 58 72 88z" />
<glyph unicode="-" horiz-adv-x="296" d="M124 179h28q10 0 36 -1t41 -1q9 0 30.5 0.5t29.5 0.5q9 0 9 -11q0 -12 -9.5 -15t-32.5 -3q-6 0 -34.5 1t-50.5 1h-43q-15 0 -15 10q0 6 4 12t7 6z" />
<glyph unicode="." horiz-adv-x="218" d="M80 14q0 16 14 31.5t31 15.5q19 0 19 -20q0 -16 -13.5 -31.5t-30.5 -15.5q-20 0 -20 20z" />
<glyph unicode="/" horiz-adv-x="366" d="M100 -163q-5 0 -5 3q0 2 2.5 6.5t4.5 8.5l311 685q6 12 18 12q8 0 8 -4q0 -2 -2 -6l-319 -693q-6 -12 -18 -12z" />
<glyph unicode="0" horiz-adv-x="348" d="M244 338q-32 -35 -73 -111t-41 -133q0 -33 21 -61t54 -28q45 0 93.5 52.5t78.5 121.5t30 118q0 104 -60 104q-42 0 -103 -63zM314 404q29 11 48 11q39 0 62 -32t23 -86q0 -71 -65 -168.5t-137 -125.5q-30 -12 -57 -12q-40 0 -69 28.5t-29 70.5q0 68 68.5 172.5 t155.5 141.5z" />
<glyph unicode="1" horiz-adv-x="283" d="M117 213q30 3 72 27.5t67 45.5l74 61q9 7 13 11t16.5 30t24.5 33q32 17 39 17t7 -9q0 -21 -44 -59q-19 -30 -118 -223q-41 -82 -60 -126q-16 -36 -56 -36q-8 0 -8 6q0 5 5 15t15.5 27t14.5 25l153 277q-135 -128 -190 -128q-29 0 -29 4q0 2 4 2z" />
<glyph unicode="2" horiz-adv-x="403" d="M197 340q24 33 62.5 55t79.5 22q31 0 55 -21t24 -54q0 -53 -51 -107.5t-151 -130.5q-59 -46 -123 -74q97 20 201 20q135 0 135 -36q0 -9 -22 -19.5t-30 -10.5q-5 0 -8 3q-36 37 -100 37q-23 0 -55 -4.5t-55 -9t-55 -11.5l-40 -9q-3 -1 -7 -1q-15 0 -15 27q0 7 4.5 10 t18.5 7t27 11q199 104 267 236q12 24 12 45q0 27 -16.5 44.5t-43.5 17.5t-62.5 -20.5t-51.5 -42.5q-3 -4 -6 -4t-3 2q0 6 9 18z" />
<glyph unicode="3" horiz-adv-x="351" d="M268 244q45 0 74.5 -30t29.5 -70q0 -73 -66 -127t-144 -54q-42 0 -73.5 26t-31.5 68q0 5 11.5 9t22.5 4q14 0 14 -5q0 -3 -0.5 -8t-0.5 -7q0 -32 24 -52.5t60 -20.5q47 0 95 46.5t48 105.5q0 49 -44 74q-11 6 -24.5 8.5t-20.5 3.5t-7 3q0 26 9 29q2 1 16 5l18 6l18 7.5 t19.5 9t17.5 11t18 14.5t14.5 17.5t13.5 22.5q5 9 5 21q0 16 -10.5 26t-30.5 10q-17 0 -42.5 -16t-29.5 -27q-1 -3 -4 -3q-4 0 -4 4q0 19 37.5 40t70.5 21q58 0 58 -43q0 -73 -161 -129z" />
<glyph unicode="4" horiz-adv-x="448" d="M287 117q-181 9 -181 52q0 12 14 24l178 152q11 10 20 22t12 21l7 16q3 7 3 8q9 13 33 13q11 0 11 -6q0 -10 -22.5 -37t-32.5 -34q-15 -12 -63.5 -48t-93.5 -79q-15 -15 -15 -26q0 -21 40 -35t103 -19l83 160q12 24 12 58q0 5 -1 9t-1 5q0 3 2 3q14 0 24 -18t10 -27 q0 -18 -17 -45q-16 -26 -44 -78.5t-37 -67.5q103 0 190 20q3 0 3 -1q0 -5 -14.5 -20t-21.5 -16q-43 -8 -109 -8q-41 0 -63 1q-9 -16 -29.5 -60.5t-37.5 -71.5q-6 -9 -24 -19t-24 -10q-1 0 -1 1t11.5 20t33.5 59t42 82z" />
<glyph unicode="5" horiz-adv-x="307" d="M261 374q3 3 10 3q5 0 5 -2q0 -5 -26 -37.5t-26 -50.5q0 -11 18 -23.5t39 -24.5t39 -37.5t18 -57.5q0 -68 -56.5 -125.5t-125.5 -57.5q-42 0 -74.5 26.5t-32.5 70.5q0 56 46.5 149t108.5 161q48 53 92 53q17 0 57 -15t64 -15q29 0 50 14.5t26 46.5q0 3 1 9q0 7 1 7 q4 0 4 -18q0 -36 -34 -60.5t-75 -24.5q-24 0 -65 13t-58 13q-29 0 -52 -23q-69 -69 -112 -153.5t-43 -138.5q0 -41 22.5 -72.5t66.5 -31.5q62 0 101.5 49t39.5 113q0 16 -5 34q-7 22 -30 42t-41.5 33.5t-18.5 21.5q0 4 14 27l31 50q18 26 21 32z" />
<glyph unicode="6" horiz-adv-x="366" d="M150 133q-15 -56 -15 -83q0 -62 63 -62q50 0 99.5 41t49.5 99q0 25 -20 38.5t-54 13.5q-53 0 -123 -47zM156 148q66 43 128 43q39 0 64.5 -16t25.5 -50q0 -45 -67 -102q-53 -44 -112 -44q-42 0 -70.5 20.5t-28.5 67.5q0 7 2 23q-14 -12 -32 -33.5t-22 -36.5q-1 -5 -3 -5 q-3 0 -3 5q0 28 62 85q23 91 162 236q32 33 54 53t61 41t75 21q38 0 63 -19.5t25 -40.5q0 -7 -6 -14.5t-11 -7.5q-3 0 -3 3q-8 72 -70 72q-46 0 -89 -32t-90 -85q-80 -91 -115 -184z" />
<glyph unicode="7" horiz-adv-x="295" d="M264 202q116 123 152 166q-68 -17 -124 -17q-130 0 -130 23q0 7 3.5 18.5t7.5 19.5t6 8t2 -7q0 -5 17.5 -11.5t47 -11.5t56.5 -5q31 0 82.5 5.5t59.5 14.5q10 10 15 10q3 0 3 -3q0 -2 -5 -9q-53 -66 -175 -199q10 0 22.5 2t24.5 5t22 6.5t17 5.5l6 2q2 0 2 -1 q0 -3 -9 -13t-16 -13q-46 -16 -91 -18q-113 -120 -113 -190q0 -7 -11.5 -11t-21.5 -4q-9 0 -9 10q0 44 84 136l54 59q-7 0 -24.5 0.5t-27.5 0.5q-6 0 -10.5 -2t-6.5 -3.5t-7 -7t-8 -8.5q-2 -2 -3 -2t-1 2t6 8l7 7q6 7 10.5 11.5t11.5 9t13 4.5q41 0 61 2z" />
<glyph unicode="8" horiz-adv-x="330" d="M374 297q-4 -3 -16 -3q-6 0 -6 4t6 4q2 0 4 -1l3 -1q11 0 26.5 24t15.5 45q0 33 -33 33q-29 0 -61 -31.5t-32 -57.5q0 -23 25 -56q11 4 35 14l13 7l16 8q8 4 10 4q1 0 1 -1t-14 -9.5t-33 -18.5t-22 -12q36 -48 36 -92q0 -53 -56 -112t-121 -59q-34 0 -56.5 19.5 t-22.5 51.5q0 59 96 130q7 5 78 46q-14 25 -14 49q0 25 14 51q16 28 58.5 56.5t72.5 28.5q42 0 42 -36q0 -25 -19 -49t-46 -36zM271 225q-36 -21 -56 -34t-43.5 -33t-34 -42t-10.5 -47q0 -22 15.5 -40t49.5 -18q56 0 91 40t35 77q0 13 -5 26.5t-11 23.5l-16 24z" />
<glyph unicode="9" horiz-adv-x="317" d="M322 256q45 71 45 123q0 28 -40 28q-51 0 -96 -34.5t-45 -80.5q0 -29 19.5 -46.5t42.5 -17.5q40 0 74 28zM175 175q6 2 8 2q5 0 5 -1t-14 -5.5t-33.5 -14t-39 -24t-33.5 -39.5t-14 -57q0 -20 11.5 -34t33.5 -14q105 0 217 250q-40 -21 -80 -21q-35 0 -61 16t-26 50 q0 45 56 91t128 46q25 0 45 -13t20 -39q0 -48 -40 -128q-5 -9 -19 -37.5t-21 -41.5t-21.5 -37.5t-26.5 -40.5t-30.5 -35.5t-38.5 -35.5q-46 -36 -99 -36q-29 0 -50 15.5t-21 44.5q0 46 44.5 83t99.5 56z" />
<glyph unicode=":" horiz-adv-x="238" d="M56 14q0 16 14 31.5t31 15.5q19 0 19 -20q0 -16 -13.5 -31.5t-30.5 -15.5q-20 0 -20 20zM143 180q0 16 14 31.5t31 15.5q19 0 19 -20q0 -16 -13.5 -31.5t-30.5 -15.5q-20 0 -20 20z" />
<glyph unicode=";" horiz-adv-x="227" d="M143 180q0 16 14 31.5t31 15.5q19 0 19 -20q0 -16 -13.5 -31.5t-30.5 -15.5q-20 0 -20 20zM96 62q8 10 27.5 18.5t31.5 8.5q6 0 6 -2q0 -4 -8 -12q-159 -170 -196 -203q-2 -2 -3 -2q-5 0 -5 8q0 4 1 5l74 91q46 58 72 88z" />
<glyph unicode="&#x3c;" horiz-adv-x="300" d="M313 297q15 11 17 11t2 -3q0 -7 -3 -8l-44 -33l-55 -44q-29 -24 -45 -36q-12 -12 -12 -19q0 -6 50 -87q17 -28 17 -31q0 -1 -9 -4l-8 -5q-8 -5 -13 -5q-1 0 -16 23q-23 42 -43 84q-3 6 -3 13q0 15 10 23q18 12 76.5 59t78.5 62z" />
<glyph unicode="=" horiz-adv-x="380" d="M137 217q33 2 186 2h18q39 0 39 -12t-9 -12h-14q-5 0 -24 -0.5t-34 -0.5q-6 0 -19 0.5t-21 0.5q-17 0 -68 -2t-62 -2q-3 0 -3 4q0 6 4 14t7 8zM125 154q54 -4 126 -4q5 0 46 1t56 1q18 0 18 -8q0 -11 -10 -13.5t-43 -2.5h-32q-47 0 -159 2q-6 0 -6 12t4 12z" />
<glyph unicode="&#x3e;" horiz-adv-x="300" d="M100 37l-8 -4q-2 0 -2 4q0 5 3 7l44 34l55 43q29 24 45 36q10 7 10 16q0 4 -3 12t-10 19l-12 22l-15 24q-9 15 -13 23q-2 3 -5 8t-5 9l-2 3q0 3 12.5 7t16.5 4q7 0 20 -24q19 -33 45 -88q2 -3 2 -8q0 -8 -14 -19q-18 -13 -80.5 -63t-83.5 -65z" />
<glyph unicode="?" horiz-adv-x="363" d="M100 14q0 16 14 31.5t31 15.5q19 0 19 -20q0 -16 -13.5 -31.5t-30.5 -15.5q-20 0 -20 20zM288 116q-44 -30 -85 -30q-25 0 -46.5 11.5t-21.5 35.5q0 18 14 37t27.5 29t35.5 24q93 60 121 90q31 32 31 58q0 23 -16 33.5t-34 10.5q-34 0 -60.5 -20t-42.5 -48q-5 -8 -10 -8 q-3 0 -3 3t2 5q5 5 18.5 21.5t19 22.5t19 18t23.5 16.5t25 9t32 4.5q25 0 45.5 -13.5t20.5 -37.5q0 -11 -3.5 -22t-11.5 -22l-16 -20q-7 -10 -22 -22l-22 -19q-9 -7 -27.5 -19t-25 -17t-26 -17t-22.5 -14q-19 -12 -28 -19t-18 -20t-9 -27q0 -20 16 -34.5t42 -14.5 q27 0 54 22q2 2 5 2t3 -4q0 -2 -4 -5z" />
<glyph unicode="@" horiz-adv-x="581" d="M479 41q12 11 25 35q6 9 20 9q4 0 4 -2t-1 -4q-9 -17 -36 -40q-54 -48 -118.5 -74.5t-123.5 -26.5q-71 0 -118 42.5t-47 114.5q0 88 57.5 176.5t149 145t183.5 56.5q70 0 124 -34.5t54 -102.5q0 -61 -41 -114q-41 -54 -95.5 -91t-95.5 -37q-39 0 -39 32q0 6 1 9 q-54 -34 -92 -34q-44 0 -44 48q0 33 22 75q21 40 69 73.5t84 33.5q49 0 65 -52h3q9 0 9 -7q0 -10 -3.5 -20t-8.5 -18t-13 -18t-13 -15l-14 -13l-11 -11q-16 -30 -16 -43q0 -22 24 -22q47 0 112.5 64t65.5 150q0 135 -155 135q-116 0 -213 -87.5t-130 -208.5q-7 -28 -7 -52 q0 -65 43.5 -107.5t129.5 -42.5q103 0 190 78zM384 145q12 40 42 81q30 42 55 51q-17 42 -58 42q-31 0 -66.5 -32.5t-52.5 -66.5q-18 -38 -18 -70q0 -33 28 -33q26 0 70 28zM442 191q50 50 50 77q0 6 -1 6t-3 -2q2 -10 2 -12l-1 -2q-2 0 -4 10q-15 -22 -22.5 -35 t-12.5 -24.5t-8 -17.5z" />
<glyph unicode="A" horiz-adv-x="644" d="M728 124q2 3 4 3t2 -2q0 -1 -1 -3q-44 -59 -102 -101t-109 -42q-26 0 -35.5 16.5t-9.5 52.5q0 34 19 140q-65 -13 -136 -13q-20 0 -31 1l-59 -54l-66 -62l-62 -54q-37 -33 -70.5 -59t-66.5 -49q-2 -2 -5 -2q-9 0 -9 23q0 3 1 4q22 13 44 29l40 27q17 12 40 32l38 31 q13 11 40 36l38 34l42 40l42 39q52 48 123 131t104 131q27 40 36.5 49.5t30.5 19.5q8 4 11 4t3 -5q0 -4 -2 -11l-6 -16q-3 -9 -4 -11q-52 -127 -79 -270q15 3 33.5 8.5t30.5 9.5t13 4q2 0 2 -3q0 -1 -10.5 -7t-30.5 -14.5t-41 -14.5q-15 -88 -15 -120q0 -69 42 -69 q19 0 52 14.5t65 42.5q34 30 54 60zM347 199q26 -1 62 -1q43 0 92 9q23 103 71 232q14 40 14 46q0 3 -1 3q-5 0 -14 -13q-41 -65 -106.5 -144.5t-117.5 -131.5z" />
<glyph unicode="B" horiz-adv-x="565" d="M209 14q0 10 3 20.5t6.5 17t5.5 6.5q4 0 9 -6.5t5 -10.5q0 -1 -1.5 -6t-1.5 -10q0 -32 26 -47t49 -15q75 0 149.5 74.5t74.5 153.5q0 67 -99 67q-20 0 -20 4q0 2 10 12q33 33 53.5 56.5t40 56.5t19.5 60q0 56 -38 56q-44 0 -99 -61q-82 -90 -393 -719q-10 -19 -11 -19 q-4 0 -4 15q0 10 4 17q112 235 232 452.5t173 272.5q63 65 122 65q26 0 41 -19.5t15 -48.5q0 -78 -110 -184q43 0 74 -22t31 -66q0 -73 -98.5 -159.5t-185.5 -86.5q-37 0 -59.5 20.5t-22.5 53.5z" />
<glyph unicode="C" horiz-adv-x="567" d="M549 137q3 4 5 4q4 0 4 -19q0 -30 -5 -35q-50 -64 -116.5 -106.5t-138.5 -42.5q-67 0 -114.5 41t-47.5 110q0 82 54 180q28 51 78 110.5t110 93.5q83 47 151 47q32 0 68.5 -9.5t36.5 -27.5q0 -7 -11 -16.5t-16 -9.5q-1 0 -2 3.5t-3 9.5t-5 9q-21 26 -76 26 q-80 0 -152 -56q-71 -55 -131.5 -156.5t-60.5 -186.5q0 -64 36 -104.5t93 -42.5q123 0 243 178z" />
<glyph unicode="D" horiz-adv-x="685" d="M309 128q25 44 81 162t102 229q-3 0 -10.5 0.5t-11.5 0.5q-80 0 -162 -41q-60 -30 -119 -102t-59 -105q0 -3 3 -7.5t3 -6.5q0 -6 -6 -6t-18 12.5t-12 19.5q0 21 61.5 92.5t117.5 100.5q93 48 200 48h16q9 25 9 35q0 41 -50 41q-28 0 -63 -20q-10 -5 -12 -5t-2 1q0 2 7 6 q51 28 87 28q68 0 68 -50q0 -17 -10 -39q179 -30 179 -230q0 -59 -14 -117.5t-41.5 -111t-75 -85.5t-108.5 -33q-63 0 -102 29.5t-84 93.5q-88 -118 -160 -118q-24 0 -40.5 11t-16.5 34q0 53 65.5 121.5t116.5 68.5q34 0 61 -57zM315 114q13 -33 22 -52t26.5 -46t39.5 -40.5 t50 -13.5q54 0 98.5 34.5t70.5 88t40 110.5t14 108q0 169 -151 210l-61 -125l-78 -153q-34 -64 -71 -121zM277 76l-15 22q-10 15 -15 21l-13 15q-7 8 -14.5 11t-15.5 3q-35 0 -70 -47t-35 -83q0 -42 49 -42q60 0 129 100z" />
<glyph unicode="E" horiz-adv-x="537" d="M623 441q-3 0 -3 2q0 1 2.5 6t2.5 8q0 15 -26 32t-68 17q-44 0 -86.5 -24t-42.5 -67q0 -23 10.5 -45.5t28.5 -33.5q21 -14 21 -16q0 -22 -25 -25q-115 -15 -189 -66q-37 -25 -55.5 -64.5t-18.5 -79.5q0 -44 26 -72.5t55.5 -37t60.5 -8.5q65 0 136 52t71 90q0 3 -1.5 7 t-1.5 5q0 4 4 4q6 0 17 -7.5t11 -12.5q0 -1 -1 -2l-27 -31q-18 -21 -33 -35.5t-35 -28.5q-93 -67 -167 -67q-60 0 -108 34.5t-48 95.5q0 65 47 116t118 83q19 9 48 18l46 14q16 6 16 9q0 2 -11 11q-37 28 -37 67q0 18 11 37q27 46 76 69t103 23q29 0 65.5 -9.5t36.5 -29.5 q0 -9 -12 -23.5t-17 -14.5z" />
<glyph unicode="F" horiz-adv-x="411" d="M196 67l-24 -41l-28 -48q-12 -20 -20 -31q-6 -9 -12 -9q-4 0 -13.5 7.5t-17.5 10.5q-2 1 -2 2t3 3t9.5 7t11.5 10q92 92 181 264q-50 0 -109 -6t-63 -6q-2 0 -2 1q0 4 18.5 18t24.5 14q11 1 40 1q14 0 48.5 -0.5t53.5 -0.5q52 107 74 169q-171 0 -259 -4q-3 0 -3 1 q0 3 12.5 10t24.5 9q67 10 235 10q10 28 10 57q0 95 -87 95q-40 0 -74 -18q-1 -1 -5 -4t-15 -8q-10 -5 -12 -5q-10 0 -10 6q0 1 2 3q49 36 120 36q56 0 88.5 -29.5t32.5 -78.5q0 -26 -9 -54q74 2 106 4t92.5 17.5t100.5 45.5q1 1 3 1q4 0 4 -7q0 -18 -11.5 -32t-34.5 -22.5 t-46 -14.5t-58 -8.5t-58.5 -3.5t-59 -1.5t-48.5 -1.5l-97 -172q85 0 132 7t87 32h1l1 1q1 -1 1 -2q0 -7 -10 -21t-23 -20q-38 -18 -142 -18h-59z" />
<glyph unicode="G" horiz-adv-x="676" d="M431 -47q-133 -17 -189 -38q-96 -36 -141 -103.5t-45 -144.5q0 -84 67 -84q78 0 145 100q46 68 163 270zM649 18q-66 -39 -179 -60q-15 -23 -51.5 -86.5t-70.5 -113.5q-62 -88 -95 -121q-65 -62 -131 -62q-47 0 -78 32t-31 82q0 84 73.5 147.5t168.5 93.5q24 8 180 34 q69 122 138 229q-33 -26 -118 -76.5t-132 -63.5q-29 -8 -58 -8q-49 0 -82 23t-33 72q0 82 89 185q68 79 178.5 140.5t208.5 61.5q62 0 62 -45q0 -14 -4 -19t-18 -5q-4 0 -4 8q0 51 -50 51q-47 0 -125.5 -44t-144.5 -103q-59 -52 -105 -119.5t-46 -119.5q0 -36 23 -56t55 -20 q30 0 74.5 17t73.5 34l80 46q50 30 77 56q39 34 158 241q10 17 16 17q5 0 15.5 -7.5t10.5 -16.5q0 -18 -24.5 -55t-56.5 -69q-32 -33 -91 -132l-125 -216q142 21 234 101q33 29 49 53q2 3 4 3t2 -2q0 -1 -1 -3q-49 -65 -116 -104z" />
<glyph unicode="H" horiz-adv-x="572" d="M531 -15q-56 -47 -104 -47q-23 0 -39.5 13.5t-16.5 35.5q0 17 9 44t18 45l26 54l22 42q8 17 21 42l19 37q-112 -46 -180 -46q-37 0 -73 17q-12 -20 -42 -78l-76 -142q0 -1 -3.5 -8.5t-9 -18t-9.5 -14.5q-7 -8 -26 -8q-20 0 -20 5q0 2 5 7q3 5 5 7q113 195 136 240l21 40 l26 52q9 19 22 49t19 53.5t6 41.5q0 59 -44 59q-42 0 -70 -29q-4 -4 -8 -4q-3 0 -3 3q0 5 12 14q41 28 70 28q32 0 56.5 -19.5t24.5 -52.5q0 -36 -32 -106q-21 -47 -42 -86q36 -31 81 -31q80 0 164 50l82 158q46 90 62 90q8 0 8 -15q0 -38 -31 -104q-36 -76 -76 -118 q-12 -17 -35 -61q-2 -4 -25.5 -47.5t-34 -64.5t-22.5 -53.5t-12 -52.5q0 -42 35 -42q23 0 50 14.5t42.5 28t49.5 45.5q53 51 67 72q2 3 4 3t2 -2q0 -1 -1 -3q-63 -83 -130 -137z" />
<glyph unicode="I" horiz-adv-x="393" d="M214 335q24 19 67.5 61t54.5 59q-28 1 -43.5 1.5t-39.5 4t-35.5 12t-11.5 21.5q0 33 50 56t88 23q49 0 49 -32q0 -21 -32 -73q11 1 36 3t36 3t29 5t34 10q52 15 59 15q4 0 4 -1q0 -4 -12 -16q-30 -36 -60 -86t-49 -87l-52 -110l-53 -109q-72 -147 -181 -147 q-32 0 -62 16.5t-30 46.5q0 25 20 25q7 0 7 -13q0 -5 -2 -12t-2 -10q0 -6 5 -12q25 -30 62 -30q80 0 143 130q93 197 150 286l64 104q-22 -7 -77 -14.5t-77 -7.5q-11 -15 -60 -64q-5 -4 -32.5 -29.5t-43.5 -37.5q-11 -8 -12 -8t-1 3q0 6 10 14zM345 467q23 38 23 52 q0 19 -14 31t-35 12q-30 0 -56 -16t-26 -46q0 -21 17.5 -27.5t50.5 -6.5q7 0 20 0.5t20 0.5z" />
<glyph unicode="J" horiz-adv-x="401" d="M286 456q38 58 38 96q0 17 -8 17q-16 0 -35.5 -34t-19.5 -47q0 -15 25 -32zM238 -29q-178 -54 -259 -146.5t-81 -229.5q0 -109 55 -109q60 0 110 84q47 80 104 225t71 176zM396 48q20 11 41.5 29t33 30.5t14.5 16.5q2 3 4 3t2 -2q0 -1 -1 -3q-44 -59 -118 -97 q-46 -24 -92 -43q-5 -11 -26 -62l-28 -66l-26 -58q-18 -42 -28 -62l-26 -52q-16 -32 -30 -56l-30 -47q-72 -107 -151 -107q-77 0 -77 126q0 89 60.5 184t181.5 152q59 27 143 52q18 38 55 123t69 149.5t69 121.5l64 104q-33 -18 -87 -31t-93 -13q-18 0 -28 3 q-74 -104 -99 -104q-1 0 -1 2l2 1q3 1 5 3q41 38 81 102q-33 17 -33 48q0 10 5 20q18 34 23 39.5t25 12.5q30 10 35 10q15 0 15 -18q0 -11 -6.5 -27t-13.5 -27l-18 -31l-15 -23q13 -4 32 -4q42 0 92 17.5t79 36.5q4 3 11 3l34 -6q0 -1 -1 -2q-37 -43 -76 -110.5 t-59.5 -111.5t-65 -147t-56.5 -129q50 17 109 50z" />
<glyph unicode="K" horiz-adv-x="470" d="M235 220q-2 4 -5 11.5t-5 12t-4.5 9.5t-5 7.5t-5.5 2.5q-2 0 -5 -0.5t-4 -0.5q-4 0 -4 2t17.5 10.5t38.5 17.5l21 10q2 3 14 29t17 38.5t11 34.5t6 39q0 61 -69 61q-83 0 -152 -88q-11 -14 -15 -14q-1 0 -1 2q0 4 7 14q77 103 193 103q71 0 71 -57q0 -17 -7 -40 t-14.5 -39.5t-20 -41t-15.5 -31.5q265 133 317 177q35 29 48 29q2 0 2 -2q0 -5 -18 -23t-51.5 -43.5t-66.5 -41.5l-238 -114q-7 -13 -15 -30l-13 -29q7 -10 30 -49.5t39 -64.5t44 -62t51.5 -59t54.5 -39t61 -17q51 0 96 33l3 2q2 0 2 -1q0 -14 -41 -31t-78 -17q-47 0 -87 21 t-73 61.5t-56.5 77.5t-52.5 90q-7 13 -10 19q-90 -183 -130 -239q-6 -7 -20 -7q-15 0 -15 6q0 2 1 3q93 137 152 258zM253 252l14 32q-2 -1 -8 -3t-10 -4l-6 -3q2 -3 4.5 -10t5.5 -12z" />
<glyph unicode="L" horiz-adv-x="467" d="M240 412q-11 -11 -17 -11q-3 0 -3 2q0 5 11 16q41 43 97 72t111 29q41 0 63.5 -21t22.5 -48q0 -31 -40 -97q-76 -128 -183 -271q28 -80 113 -145t173 -65q58 0 96 36q4 4 7.5 9.5t6 8t4.5 2.5t2 -3q0 -8 -14 -25q-44 -51 -130 -51q-41 0 -85 13t-72 33q-42 30 -69.5 68.5 t-43.5 105.5q-40 -51 -92.5 -90.5t-99.5 -39.5q-32 0 -32 25q0 28 36.5 75t90.5 88q36 28 61 28q33 0 44 -57q66 92 110 165q1 1 8 14l12 19l11 21q8 14 13 24l10 23q7 14 10.5 25t6 23.5t2.5 22.5q0 30 -23.5 46.5t-56.5 16.5q-35 0 -81 -27t-80 -60zM287 86q-7 41 -45 41 q-27 0 -61 -25q-31 -23 -58 -56.5t-27 -55.5q0 -24 27 -24q36 0 79 32q32 24 85 88z" />
<glyph unicode="M" horiz-adv-x="724" d="M147 -17q-6 -10 -6 -16q0 -4 5 -7.5t5 -6.5q0 -2 -4 -4.5t-6 -2.5t-5 2t-8 6t-9 6q-21 8 -21 21q0 3 3 8l37 55q26 36 44 64.5t40 69.5q2 4 27 48.5t36 66t23.5 57.5t12.5 62q0 40 -25.5 65.5t-64.5 25.5q-41 0 -86 -31t-72 -75q-10 -15 -14 -15q-1 0 -1 2q0 4 9 20 q25 44 74 77.5t110 33.5q55 0 81 -26t26 -67q0 -23 -8 -47q33 48 77.5 85.5t83.5 37.5q28 0 48.5 -16t20.5 -46q0 -13 -4 -26q30 38 84 75t91 37q33 0 51 -15.5t18 -40.5q0 -42 -42 -91q-82 -96 -121 -194.5t-39 -165.5q0 -58 33 -92.5t76 -34.5q21 0 40 7.5t32 18 t22.5 20.5t14.5 18l6 7q1 0 1 -2q0 -10 -12.5 -27t-25.5 -29q-47 -40 -95 -40q-57 0 -93.5 34.5t-36.5 94.5q0 29 9.5 66t19 64.5t32.5 73.5l33 64q9 18 38 67.5t31 53.5q27 46 27 76q0 16 -10 28.5t-28 12.5q-37 0 -94 -46.5t-74 -83.5q-5 -12 -18 -31t-19 -19q-8 0 -15 3 t-11 6.5t-4 5.5q0 8 14 8q3 0 11 14t15.5 34.5t7.5 36.5q-1 19 -13.5 35.5t-35.5 16.5q-34 0 -79 -43.5t-72 -88.5q-105 -208 -198 -361z" />
<glyph unicode="N" horiz-adv-x="466" d="M119 191q-20 -43 -45.5 -112t-25.5 -101q0 -19 11 -19q12 0 31.5 25t34.5 54q21 41 43 90l38 83l42 87l49 101q20 41 29 58q8 13 22 24t24 11q12 0 12 -18q-4 -61 -18.5 -212t-16.5 -222q35 86 107 241l22 48q7 15 25.5 50.5t33 54.5t35 42.5t42 34.5t43.5 11 q36 0 65.5 -26t29.5 -61q0 -8 -10 -13.5t-20 -5.5q-12 0 -12 6q0 33 -16.5 60t-43.5 27q-22 0 -47 -19q-10 -8 -21.5 -21.5t-23.5 -32.5l-22 -37q-10 -17 -23 -43l-19 -41l-20 -40l-15 -32q-22 -46 -52.5 -121t-47 -107t-29.5 -32q-17 0 -17 40q0 62 17.5 196.5t17.5 211.5 q0 23 -6 23q-2 0 -10 -12q-29 -52 -106.5 -221t-95.5 -202q-43 -80 -82 -80q-28 0 -28 41q0 66 47 184q4 9 22.5 21.5t27.5 12.5q3 0 3 -3q0 -2 -1 -4z" />
<glyph unicode="O" horiz-adv-x="444" d="M518 489q0 6 5 21t12 15q9 0 15 -42.5t6 -68.5q0 -89 -40 -177q-58 -129 -146.5 -212t-173.5 -83q-56 0 -87 38.5t-31 105.5t41 157q57 125 144.5 202.5t173.5 77.5q31 0 56.5 -26t25.5 -74q0 -18 -20 -18q-9 0 -17 4t-8 9q0 2 1.5 10.5t1.5 12.5q0 30 -17 47t-46 17 q-74 0 -142.5 -65.5t-118.5 -173.5q-36 -78 -36 -155q0 -58 24 -94t69 -36q79 0 159.5 68.5t128.5 182.5q36 84 36 160q0 49 -16 97z" />
<glyph unicode="P" horiz-adv-x="422" d="M224 135l52 100q53 100 70 144q9 23 15.5 29t27.5 6q2 0 2 -1q0 -2 -5 -13l-15 -28l-16 -35q31 65 100.5 125t128.5 60q31 0 50 -16.5t19 -46.5q0 -37 -34 -73t-71 -56.5t-80 -37.5q-46 -18 -151 -49q-3 -5 -48 -85l-69 -127q-33 -64 -60 -75l-10 -5q-4 -2 -5 -2l-1 1 q0 1 4 7l8 15q5 8 10 13q7 8 19 31l22 42l22 46q12 26 15 31zM328 261q73 19 140 44q53 20 98 59t45 75q0 22 -14.5 38.5t-40.5 16.5q-102 0 -228 -233z" />
<glyph unicode="Q" horiz-adv-x="508" d="M502 -120q18 0 34 4t28.5 10t22.5 13t17 14.5t12 13.5t8 10l2 4q1 0 1 -2q0 -30 -47 -55.5t-88 -25.5q-78 0 -144 120q-69 -42 -133 -42q-61 0 -99.5 36.5t-38.5 100.5q0 71 42 162q58 126 144 203t174 77q60 0 89 -46t29 -116q0 -54 -29 -54q-9 0 -9 6l4 20q4 20 4 31 q0 62 -29 101.5t-84 39.5q-72 0 -140.5 -65.5t-118.5 -173.5q-36 -76 -36 -149q0 -139 129 -139q44 0 93 27q-49 102 -49 205q0 4 14.5 17t21.5 13q3 0 3 -4q0 -1 -1 -15t-1 -26q0 -104 33 -175q56 42 90.5 98.5t59.5 140.5q2 5 11 22t12 17q2 0 2 -9q-8 -82 -55 -161.5 t-111 -126.5q29 -54 64 -87.5t69 -33.5z" />
<glyph unicode="R" horiz-adv-x="540" d="M342 289q107 28 132 37q137 51 137 112q0 24 -16.5 43t-47.5 19q-75 0 -136 -91q-17 -25 -69 -120zM287 253q0 1 7 12q-2 -1 -5.5 -2t-5.5 -2zM152 -29q0 23 49 121l76 144q-17 24 -17 33q0 5 42 14q43 79 62 108q36 57 102 94t119 37q31 0 49.5 -16t18.5 -46 q0 -92 -177 -149q-31 -10 -77.5 -21.5t-66.5 -17.5q-10 -20 -25 -47l108 -180q30 -53 57 -77.5t63 -24.5q48 0 78 39q5 6 14 6q7 0 7 -3q0 -1 -1 -2q-49 -49 -113 -49q-66 0 -98 48q-21 31 -65.5 115.5t-60.5 109.5q-36 -60 -81 -148q-33 -64 -43 -103q-3 -10 -8 -10 q-4 0 -6 9q0 3 -3 7.5t-3 8.5z" />
<glyph unicode="S" horiz-adv-x="523" d="M546 406q7 15 7 32q0 36 -29 52t-69 16q-48 0 -97 -29.5t-49 -74.5q0 -26 21.5 -45t51.5 -33.5t60.5 -31.5t52 -48t21.5 -74q0 -49 -25 -93.5t-62.5 -73.5t-80.5 -46t-80 -17q-45 0 -82.5 25.5t-37.5 70.5q0 62 57 132q1 1 2 1q5 0 14.5 -13t9.5 -20q0 -4 -2 -4 q-59 -21 -59 -74q0 -34 34 -63t87 -29q65 0 128 52t63 126q0 37 -19.5 64.5t-46.5 45.5l-56 34q-27 17 -46.5 42t-19.5 58q0 51 54 95t130 44q44 0 80 -22.5t36 -65.5q0 -44 -39 -44q-10 0 -10 6q0 3 1 5z" />
<glyph unicode="T" horiz-adv-x="338" d="M276 236l20 38q16 32 20 42l18 38q13 27 19.5 43t15 40t14.5 46q-193 -18 -241 -30q-2 0 -7 -2q-8 -3 -9 -3q-3 0 -3 4q0 5 5.5 11.5t15.5 8.5q117 22 242 33q2 14 2 21q0 35 -23.5 60t-60.5 25q-40 0 -76 -19q-2 -1 -5.5 -4.5t-13.5 -7.5t-13 -4q-10 0 -10 5q0 1 2 3 q49 36 117 36q117 0 117 -104v-7q115 13 170 13q18 0 36.5 -2.5t29 -6t10.5 -5.5t-6 -2l-14 -2h-4q-1 0 -2.5 0.5t-8 1t-18.5 0.5q-75 0 -198 -19q-23 -79 -113 -250q-38 -72 -104 -178l-22 -36l-22 -35q-9 -15 -13 -23q-8 -15 -18 -17q-22 0 -22 16q0 9 9 21 q106 139 164 251z" />
<glyph unicode="U" horiz-adv-x="693" d="M668 320l20 42l16 32q5 10 11.5 21t12.5 19q14 19 25 23q6 2 15 2q4 0 4 -5q-1 -21 -52.5 -111t-74.5 -122l-22 -43l-21 -42q-6 -12 -15 -35t-15 -46q-10 -35 -10 -63q0 -50 42 -50q45 0 75 40q5 6 14 6q7 0 7 -3q0 -1 -1 -2q-49 -49 -109 -49q-53 0 -53 55q0 42 31 113 q-30 -34 -53.5 -56.5t-59 -51t-72.5 -43t-75 -14.5q-30 0 -50.5 16t-20.5 46q0 15 3.5 31.5t11.5 36t13 30.5t17 34l13 27l21 44l24 50l24 48q15 32 23 52l17 44q10 23 14 39.5t4 27.5q0 21 -10 32.5t-27 11.5q-11 0 -20 -4q-17 -7 -27 -13.5t-14.5 -11t-6.5 -5.5 q-3 -1 -6 -3.5t-4 -2.5q-2 0 -2 2q0 1 3 6q14 18 43.5 33.5t57.5 15.5q25 0 39.5 -16t14.5 -40q0 -10 -3 -21q-9 -40 -79.5 -175.5t-80.5 -160.5q-25 -64 -25 -85q0 -27 18.5 -44t47.5 -17q56 0 129 60.5t116 123.5z" />
<glyph unicode="V" horiz-adv-x="395" d="M161 505q-8 0 -13 -4l-8 -4q-5 0 -5 1q0 2 2 4q17 17 39 17q27 0 47 -23q30 -35 30 -128q0 -141 -75 -319q31 56 113.5 156.5t138.5 156.5q55 55 119.5 107t87.5 52q4 0 4 -2q0 -8 -13 -12q-21 -6 -82 -56t-107 -99q-57 -61 -130 -153t-123 -169q-18 -28 -35 -60 q-20 -29 -37 -29q-9 0 -9 11t9.5 33t23 48.5t18.5 39.5q62 160 62 286q0 80 -25 120q-17 26 -32 26z" />
<glyph unicode="W" horiz-adv-x="615" d="M216 427q-6 -7 -9 -7q-5 0 -5 5q0 2 2 4q42 59 91 59q39 0 39 -33q0 -25 -41 -105.5t-81 -145.5l-121 -197q53 53 126 107.5t117 54.5q24 0 30 -22q8 -30 14 -71l8 -60q3 -21 15 -36.5t35 -15.5q83 0 123 93q42 101 42 208q0 36 -7.5 75.5t-24 79t-48 65t-72.5 25.5 q-35 0 -61 -17q-7 -4 -13 -4q-8 0 -8 5q0 6 10 12q30 15 74 15q84 0 131 -65t47 -155q0 -49 -9.5 -103t-30 -111.5t-61 -95.5t-95.5 -39q-32 0 -52.5 10.5t-30.5 32t-14.5 45t-8.5 57.5q0 9 -1 13q-3 29 -19 29q-11 0 -28.5 -8t-34 -18.5t-39 -27t-35.5 -27.5l-32 -26 q-19 -16 -22 -18l-20 -18q-14 -12 -21 -17q-12 -8 -19 -8t-7 7q0 5 11 24q69 132 116 211l32 53q25 44 34 61l25 47q16 31 22 49t6 30q0 18 -13 18q-14 0 -34.5 -14.5t-31.5 -29.5z" />
<glyph unicode="X" horiz-adv-x="422" d="M278 164q-21 -22 -69 -66q-110 -104 -152 -137q-23 -17 -29 -18q-8 0 -8 8q0 9 14 19q19 14 31 21.5t16.5 11t16.5 14.5l44 40q84 78 136 131q5 90 5 153q0 81 -14 121.5t-55 40.5q-26 0 -57.5 -25t-37.5 -59q0 -2 -2 -2q-3 0 -3 8q0 29 36 61t73 32q55 0 80 -43.5 t25 -107.5q0 -58 -6 -134q19 20 36.5 42t37.5 52l30 45l34 54l30 49l8 13q5 8 7.5 12.5t3.5 4.5q13 4 24 4q9 0 9 -3q0 -2 -6 -10l-70 -96l-76 -104q-34 -46 -70 -88q-2 -22 -2 -34q0 -67 18 -137q10 -41 33 -61t71 -20q23 0 46 15t24 15q2 0 2 -2q0 -10 -29.5 -25.5 t-60.5 -15.5q-70 0 -107.5 44t-37.5 153q0 16 1 24z" />
<glyph unicode="Y" horiz-adv-x="559" d="M461 102q-30 -34 -53.5 -56.5t-59 -51t-72.5 -43t-75 -14.5q-30 0 -50.5 16t-20.5 46q0 15 3.5 31.5t11.5 36t13 30.5l16 34l14 27l21 44l25 50l23 48q15 32 23 52l18 44q9 23 13 39.5t4 27.5q0 21 -10 32.5t-27 11.5q-11 0 -20 -4q-17 -7 -27 -13.5t-14.5 -11t-6.5 -5.5 q-3 -1 -6 -3.5t-4 -2.5q-2 0 -2 2q0 1 3 6q14 18 43.5 33.5t57.5 15.5q25 0 39.5 -16t14.5 -40q0 -10 -3 -21q-9 -40 -79.5 -175.5t-80.5 -160.5q-25 -64 -25 -85q0 -27 18.5 -44t47.5 -17q56 0 129 60.5t116 123.5l82 171l21 42l16 32q4 10 10.5 21t12.5 19q14 19 25 23 q6 2 15 2q4 0 4 -5q-1 -21 -52.5 -111t-74.5 -122q-5 -11 -39 -80.5t-53 -102.5l-42 -80q58 34 83 46q72 37 107 67q33 29 49 53q2 3 4 3t2 -2q0 -1 -1 -3q-51 -68 -140 -117l-111 -63q-62 -123 -132 -241q-25 -42 -55.5 -79t-79 -71t-94.5 -34q-41 0 -61 18.5t-20 49.5 q0 24 10 49t23 44t38.5 42t42.5 36.5t50 34t46 27.5l44 26l169 99l32 63q4 9 26.5 50t24.5 46zM370 -72l-148 -89q-35 -22 -68 -47t-70 -59.5t-59.5 -74.5t-22.5 -77q0 -49 46 -49q102 0 191 165l73 129z" />
<glyph unicode="Z" horiz-adv-x="449" d="M533 124q2 3 4 3t2 -2q0 -1 -1 -3q-39 -52 -87 -84t-121 -48q-74 -130 -181 -289q-28 -42 -48 -68t-54 -61.5t-71.5 -53.5t-78.5 -18q-60 0 -97 36.5t-37 98.5q0 64 31.5 119.5t84 95t105.5 66.5t112 47q63 21 206 31q53 106 53 141q0 41 -33.5 57.5t-74.5 16.5h-7 q-68 -60 -100 -60q-10 0 -10 6q0 15 36.5 37t59.5 25q26 18 92 83l120 119q53 55 53 56q0 3 -6 3q-4 0 -42 -7t-65 -7q-43 0 -102.5 19.5t-60.5 19.5q-35 0 -123 -148q-4 -6 -7 -6q-4 0 -4 6q0 3 1 4q4 5 26 38l36 55q16 22 38 43t37 21q19 0 67 -14t78 -14q47 0 113 19 t76 19q4 0 4 -3q0 -24 -52.5 -75.5t-136.5 -123t-116 -103.5h20q62 0 92 -15.5t30 -52.5q0 -50 -59 -154q88 19 149 72q33 29 49 53zM298 -14q-8 -1 -30 -2.5t-30 -2t-26 -2.5t-28 -3l-24 -4q-15 -3 -28 -6l-25 -8q-122 -39 -213.5 -125.5t-91.5 -193.5q0 -49 31.5 -87 t84.5 -38q30 0 58.5 15t57.5 48.5t44.5 54.5t44.5 65l29 45l28 42l25 38q16 24 25 40l22 37l23 43z" />
<glyph unicode="[" horiz-adv-x="339" d="M454 493q-24 0 -42 -1t-42 -1q-13 0 -27 -26l-106 -189l-73 -138q-55 -104 -84 -152q-9 -14 -9 -21q0 -13 27 -13q8 0 22.5 -0.5t21.5 -0.5q6 0 19 0.5t19 0.5q19 0 19 -5q0 -6 -8 -6q-18 0 -50.5 0.5t-46.5 0.5q-29 0 -41 -1q-32 -4 -37 -4q-6 0 -6 1l4 7l11 16 q6 9 8 13q29 48 85 154l74 140l108 197q3 6 8.5 18t8.5 17.5t6 5.5q1 0 5.5 -0.5t13 -1t20 -1.5t28 -1.5t33.5 -0.5q5 0 17 0.5t22 0.5q6 0 6 -1q0 -8 -14 -8z" />
<glyph unicode="\" horiz-adv-x="369" d="M413 -163q-12 0 -16 12l-219 684q-4 12 -4 14q0 5 9 5q11 0 16 -12l217 -691q2 -6 2 -8q0 -4 -5 -4z" />
<glyph unicode="]" horiz-adv-x="353" d="M87 -59q-13 0 -13 2q0 7 14 7q24 0 42 1t42 1q13 0 27 26l106 189l73 138q55 104 84 152q9 14 9 21q0 13 -27 13q-10 0 -26 0.5t-26 0.5q-6 0 -20 -0.5t-19 -0.5q-9 0 -9 7q0 4 7 4q19 0 52 -0.5t46 -0.5q28 0 40 1q32 4 38 4q5 0 5 -2l-4 -6q-5 -7 -10.5 -16t-8.5 -13 q-29 -48 -85 -153l-74 -141l-108 -197q-3 -6 -8.5 -18t-8.5 -17.5t-6 -5.5l-23 1q-24 1 -56 2t-53 1z" />
<glyph unicode="^" horiz-adv-x="387" d="M169 266q0 2 6 11q20 34 41 83q29 63 38 88q1 2 7.5 6.5t9.5 4.5q2 0 5 -5q7 -10 46.5 -73t60.5 -93q5 -6 5 -11q0 -3 -5 -7.5t-6 -6.5q-3 -5 -5 -5q-6 0 -17 18q-88 150 -92 150q-2 0 -9 -10q-38 -71 -62 -147q-2 -5 -16 -5q-7 0 -7 2z" />
<glyph unicode="_" horiz-adv-x="453" d="M29 -3q112 2 191 2q11 0 68 -1t120 -1q6 0 6 -7q0 -22 -52 -22q-4 0 -21.5 2t-67 3.5t-131.5 1.5q-19 0 -61.5 -0.5t-69.5 -0.5q-10 0 -10 5t10 11.5t18 6.5z" />
<glyph unicode="`" horiz-adv-x="230" d="M137 272q0 -1 -1 -1q-5 0 -7 4l-56 92q-1 1 -1 6q0 19 10 19q4 0 7 -5l43 -104q0 -1 3 -6z" />
<glyph unicode="a" horiz-adv-x="322" d="M406 124q2 3 4 3t2 -2q0 -1 -1 -3q-49 -65 -116 -104q-42 -24 -74 -24q-40 0 -40 32q0 6 1 9q-54 -35 -93 -35q-43 0 -43 51q0 58 58 119t117 61q47 0 65 -52q12 0 12 -7q0 -31 -45 -78q-3 -3 -8.5 -8t-9.5 -9q-16 -30 -16 -43q0 -21 32 -21q39 0 106 58q33 29 49 53z M184 45q11 39 42 81q31 44 55 52q-16 41 -58 41q-48 0 -92 -57.5t-44 -109.5q0 -35 27 -35t70 28zM242 91l9 9q41 43 41 68q0 6 -1 6t-3 -2q2 -6 2 -11q0 -1 -1 -1l-4 8q-4 -6 -9 -16l-10 -16q-5 -8 -6 -9z" />
<glyph unicode="b" horiz-adv-x="294" d="M166 267q-89 -63 -100 -70q-2 -1 -4 -1t-2 2t18 14q32 21 95 67q104 175 108 183q65 115 112 170t112 78q9 4 19 4q23 0 23 -31q0 -110 -200 -280q-27 -23 -126 -96l-65 -117q18 19 54.5 39t75.5 20q45 0 45 -41q0 -98 -110 -185q-42 -33 -85 -33q-29 0 -47 21.5 t-19 54.5q0 30 14 57q13 27 82 144zM229 321q59 45 109 89q58 51 114.5 131.5t56.5 138.5q0 16 -10 16q-45 0 -206 -264q-11 -18 -64 -111zM148 176q-2 -4 -9.5 -17.5t-10.5 -19.5t-7.5 -16.5t-6 -19.5t-1.5 -19q0 -31 14.5 -50t37.5 -19q49 0 95.5 57.5t46.5 106.5 q0 51 -38 51q-24 0 -63.5 -17t-57.5 -37z" />
<glyph unicode="c" d="M301 124q2 3 4 3t2 -2q0 -1 -1 -3q-55 -72 -134 -112q-36 -18 -74 -18q-68 0 -68 48q0 49 39.5 100.5t88.5 80.5q23 13 42 13q32 0 32 -29q0 -12 -3 -17q-12 -20 -36 -20q-9 0 -9 5q0 1 8.5 15t8.5 24q0 9 -11 9q-28 0 -54.5 -31t-44.5 -68q-16 -32 -16 -67q0 -50 50 -50 q51 0 127 66q33 29 49 53z" />
<glyph unicode="d" horiz-adv-x="341" d="M425 124q2 3 4 3t2 -2q0 -1 -1 -3q-49 -65 -116 -104q-38 -22 -68 -22q-22 0 -34.5 11.5t-12.5 31.5q0 5 2 15q-31 -24 -50 -33q-44 -21 -70 -21q-21 0 -33 14t-12 37q0 55 55.5 118t111.5 63q37 0 62 -33l98 197l13 27q12 23 16 29l14 28q11 22 16.5 30t17 27t19.5 29 l20 24q12 16 23 26l24 20q13 11 27 19q17 10 28 10q16 0 16 -25q0 -94 -110 -252q-35 -51 -119 -152.5t-126 -143.5q-10 -26 -10 -47q0 -32 35 -32q42 0 109 58q33 29 49 53zM203 64q7 27 24 58l35 71q-20 27 -52 27q-31 0 -63 -34.5t-48 -68.5q-20 -40 -20 -72 q0 -28 25 -28q15 0 44 13t55 34zM248 107q53 58 125 149t105 147q31 51 65 127.5t34 106.5q0 14 -9 14q-32 0 -83 -80t-90 -160l-116 -240l1 -4q1 -4 1 -6t-1 -2t-2 4q-1 3 -1 4q-2 -5 -13.5 -27t-15.5 -33z" />
<glyph unicode="e" d="M301 124q2 3 4 3t2 -2q0 -1 -1 -3q-55 -72 -134 -112q-38 -18 -76 -18q-66 0 -66 47q0 7 4 25q-3 -2 -8 -6t-8 -7l-4 -3q-1 0 -1 2t1 3q6 6 22 18q30 95 122 150q21 12 36 12q12 0 19 -6t7 -14q0 -4 -1.5 -8t-6.5 -9l-6 -6q-3 -3 -10 -8.5t-8 -6.5q-7 -7 -107 -78 q-6 -19 -6 -41q0 -51 46 -51q54 0 131 66q33 29 49 53zM85 108q68 49 89 70q28 28 28 42q0 6 -6 6t-14 -4q-30 -13 -57 -46t-40 -68z" />
<glyph unicode="f" horiz-adv-x="202" d="M100 79q-283 -526 -325 -576q-36 -43 -85 -72t-69 -29q-34 0 -48.5 48.5t-14.5 103.5q0 43 35.5 99t81 103t119 107t116.5 91l107 77q5 3 32 23l35 70q134 275 250 452q2 2 12.5 19t14.5 23l15 22l18 25l19 23q12 14 21 21l22 17q12 11 23 16t23.5 8.5t25.5 3.5 q23 0 33.5 -18t10.5 -41q0 -21 -16 -54t-37 -45q-2 -1 -3 -1t-1 2l3 3q3 4 9 13.5t11 22.5q7 18 7 40q0 44 -41 44q-72 0 -162 -168l-234 -457q142 99 172 117q2 1 4 1t2 -2t-18 -14q-45 -28 -168 -118zM38 33q-121 -89 -160 -124q-3 -3 -65.5 -56.5t-102.5 -93t-80 -100 t-40 -107.5q0 -36 13 -80.5t41 -44.5q22 0 63 31.5t60 61.5q41 64 135 251t136 262z" />
<glyph unicode="g" horiz-adv-x="274" d="M278 149q3 -6 3 -10q0 -3 -2 -3l-4 8l-9 -18q-84 -155 -246 -425q-48 -81 -117 -141t-144 -60q-54 0 -93 36t-39 91q0 202 398 351q7 3 14 3q8 0 8 -3l-3 -2q-42 -14 -89 -35.5t-99.5 -54t-93.5 -69t-68 -83.5t-27 -94q0 -51 32 -88.5t84 -37.5q59 0 116 56.5t95 126.5 q113 204 235 394q-44 -47 -90 -70q-44 -21 -72 -21q-42 0 -42 52q0 30 22 72q22 41 65.5 74.5t77.5 33.5q51 0 81 -66l3 6q4 7 7 9.5t7 3t7 2.5q1 1 3 1q1 0 1 -2q0 -4 -3 -7q-1 -1 -18 -30zM268 161q-33 60 -72 60q-29 0 -60 -35t-48 -69q-20 -40 -20 -76q0 -24 24 -24 q14 0 37 10q45 19 104 78q12 12 35 56z" />
<glyph unicode="h" horiz-adv-x="321" d="M229 321q59 45 109 89q79 70 137 173q34 59 34 97q0 16 -10 16q-45 0 -206 -264q-11 -18 -64 -111zM172 278q103 173 109 185q63 114 111 168.5t113 78.5q9 4 19 4q23 0 23 -31q0 -110 -200 -280q-27 -23 -126 -96l-73 -128l-4 -8q0 -1 1 -1q2 0 9 7q79 77 131 77 q16 0 26 -11.5t10 -29.5q0 -25 -41 -88t-41 -95q0 -17 15 -17q17 0 47 18t55 40q33 29 49 53q2 3 4 3t2 -2q0 -1 -1 -3q-49 -65 -116 -104q-38 -22 -62 -22q-34 0 -34 37q0 29 40 91l12 18l17 26q7 10 13 23t6 20q0 9 -6 16t-16 7q-27 0 -72.5 -40t-62.5 -66 q-56 -82 -64 -125q-1 -4 -8 -4q-12 0 -19 -2q-2 -1 -5 -1q-9 0 -9 7q0 3 1 5q36 75 59 116q33 62 79 141q-87 -62 -97 -68q-2 -1 -4 -1t-2 2t18 14q35 22 94 66z" />
<glyph unicode="i" horiz-adv-x="187" d="M175 334q0 11 10 23t21 12q6 0 10.5 -5.5t4.5 -12.5q0 -12 -9 -23.5t-21 -11.5q-16 0 -16 18zM66 197q-2 -1 -4 -1t-2 2t18 14q17 12 42 12q32 0 32 -28q0 -16 -34 -74.5t-34 -82.5q0 -26 35 -26q36 0 103 58q33 29 49 53q2 3 4 3t2 -2q0 -1 -1 -3q-49 -65 -116 -104 q-38 -22 -70 -22q-21 0 -33.5 10t-12.5 27q0 29 40 91q38 57 38 74q0 7 -6 11.5t-13 4.5q-11 0 -37 -17z" />
<glyph unicode="j" horiz-adv-x="174" d="M258 124q2 3 4 3t2 -2q0 -1 -1 -3q-55 -73 -136 -109q-29 -13 -77 -23l-170 -289q-120 -201 -261 -201q-55 0 -93.5 36.5t-38.5 91.5q0 66 31 124.5t82.5 101t106.5 72t114 48.5q61 20 197 20l36 70l30 60q32 64 32 79q0 7 -15 7q-20 0 -35 -13l-2 -1q-1 0 -1 1 q0 7 15 15q20 11 71 11q12 0 12 -10q0 -8 -12 -34q-19 -41 -43 -87l-52 -94q31 6 52 14q60 22 103 59q33 29 49 53zM13 -15h-30q-103 0 -159 -19q-72 -24 -138 -70t-112.5 -114.5t-46.5 -140.5q0 -52 32.5 -89.5t85.5 -37.5q58 0 114.5 57t94.5 126zM166 334q0 11 10 23 t21 12q6 0 10.5 -5.5t4.5 -12.5q0 -12 -9 -23.5t-21 -11.5q-16 0 -16 18z" />
<glyph unicode="k" horiz-adv-x="312" d="M166 267q-87 -62 -97 -68q-2 -1 -4 -1t-2 2t18 14q30 19 92 65q104 175 108 183q65 115 112 170t112 78q9 4 19 4q23 0 23 -31q0 -110 -200 -280q-27 -23 -126 -96l-65 -117q-6 -9 -16 -28q27 6 56.5 18t64 29.5t44.5 21.5q20 9 25 16t9 9q5 2 12 6l12 8q5 3 7 3l1 -1 q0 -12 -20 -28.5t-36 -23.5l-47 -20q-43 -18 -75 -29.5t-58 -17.5q-3 -5 -7 -11l-8 -16l-6 -12q26 -28 47 -60q31 -48 69 -48q40 1 117 65q33 29 49 53q2 3 4 3t2 -2q0 -1 -1 -3q-44 -58 -116 -104q-44 -28 -72 -28q-46 0 -79 57q-24 39 -30 48q-38 -69 -44 -85 q-4 -8 -15 -8q-2 0 -8.5 -2t-9.5 -2q-7 0 -7 8q0 2 5 10q4 10 13 26l22 40l24 42q-14 21 -18 26q-5 5 -5 7q0 1 3 1q4 0 13.5 -1.5t15.5 -1.5q1 0 4 0.5t5 0.5zM91 137q1 1 3 5t3 5q-3 0 -13 1h-3q-1 0 -1 -1t11 -10zM229 321q59 45 109 89q79 70 137 173q34 59 34 97 q0 16 -10 16q-2 0 -8 -2q-50 -22 -198 -262q-11 -18 -64 -111z" />
<glyph unicode="l" horiz-adv-x="195" d="M218 312q64 49 120 98q58 52 114.5 132t56.5 138q0 16 -10 16q-45 0 -206 -264zM279 124q2 3 4 3t2 -2q0 -1 -1 -3q-49 -65 -116 -104q-51 -29 -89 -29q-46 0 -46 48q0 7 2 15t4 13.5t6.5 15l6.5 13.5l10 16q6 11 8 14l85 135q-76 -54 -89 -62q-2 -1 -4 -1t-2 2t18 14 l84 58l58 94l61 98q70 118 115.5 171.5t108.5 76.5q9 4 19 4q23 0 23 -31q0 -110 -200 -280q-33 -27 -136 -104l-78 -126q-62 -107 -62 -139q0 -13 8 -22t21 -9q51 0 130 68q33 29 49 53z" />
<glyph unicode="m" horiz-adv-x="321" d="M66 197q-2 -1 -4 -1t-2 2t18 14q30 20 44 20q30 0 30 -25q0 -17 -19 -47q-2 -3 -2 -5q2 0 4 2q55 55 86 55q15 0 15 -26q0 -22 -11 -40q-2 -2 0 -2q1 0 3 2q50 45 93 63q17 6 29 6q26 0 26 -23q0 -20 -21 -48q-49 -64 -75 -140q-14 -40 -14 -75q0 -39 19.5 -69.5 t58.5 -30.5q23 0 54.5 16.5t56.5 37.5q33 29 49 53q2 3 4 3t2 -2q0 -1 -1 -3q-47 -62 -116 -99q-32 -17 -63 -17q-42 0 -69.5 29.5t-27.5 75.5q0 43 12 79q16 48 68 136q17 29 17 40t-12 11q-2 0 -12 -2q-17 -4 -43.5 -24.5t-42.5 -39.5q-21 -26 -43 -26q-3 0 -3 3 q0 1 0.5 3t0.5 4q0 3 3 3q4 1 6 3l4 10q17 40 17 49q0 13 -8 13q-22 0 -71 -53q-9 -10 -26 -41t-30.5 -59t-14.5 -29q-5 -7 -21 -7q-14 0 -14 9q0 6 3 9q5 6 15 25l24 45l22 40q40 70 40 82q0 5 -4 9.5t-10 4.5q-11 0 -44 -23z" />
<glyph unicode="n" horiz-adv-x="290" d="M66 197q-2 -1 -4 -1t-2 2t18 14q30 20 51 20q24 0 24 -21q0 -19 -20 -55q53 37 82 53q34 17 50 17q17 0 17 -19q0 -28 -48 -113q-34 -60 -34 -81q0 -10 11 -10q38 0 109 64q44 43 54 57q2 3 4 3t2 -2q0 -1 -1 -3q-50 -67 -123 -113q-42 -26 -65 -26q-25 0 -25 23 q0 9 4.5 23t9.5 23l12 26l8 17q4 8 15.5 28.5t19.5 38t11 33.5q0 12 -7 12q-12 0 -38 -14q-12 -6 -41.5 -26.5t-32.5 -24.5q-1 -1 -7 -13l-13 -23l-6 -12l-35 -65q-14 -24 -20 -38q-2 -5 -6 -5q-7 0 -14.5 8.5t-7.5 14.5q0 5 14 26q30 48 52 89q40 76 40 87q0 10 -11 10 q-12 0 -47 -24z" />
<glyph unicode="o" horiz-adv-x="262" d="M340 212q2 1 4 1t2 -2t-18 -14q-28 -19 -36 -23q-23 -12 -48 -13q-14 -53 -57 -108q-48 -62 -101 -62q-24 0 -39.5 13t-15.5 38q0 65 50 121.5t114 57.5q1 13 7.5 25t18.5 12q9 0 16 -13q12 -26 12 -53q0 -12 -3 -23q2 -1 10 -1q16 0 44 17q5 3 22 14.5t18 12.5zM235 162 q-26 5 -37 28q-3 8 -3 19q-39 0 -68 -32t-44 -72q-15 -43 -15 -66q0 -14 7 -25t22 -11q43 0 91 65q34 46 47 94zM238 173q3 13 3 25q0 7 -3.5 23.5t-7.5 16.5q-8 0 -8 -22q9 -2 9 -10q0 -2 -2.5 -4t-3.5 -2h-1l-2 1q0 -18 16 -28z" />
<glyph unicode="p" horiz-adv-x="262" d="M346 124q2 3 4 3t2 -2q0 -1 -1 -3q-53 -70 -116 -104q-74 -41 -142 -41q-48 0 -73 18q-3 -6 -11 -19.5t-12 -21.5l-224 -386q-18 -29 -55.5 -66.5t-49.5 -38.5q-3 0 -3 5t17 32t29 41q3 3 14 11t26.5 25t33.5 47l157 262l125 217q16 28 16 60q-1 18 -20 30q-4 1 -4 4l2 2 q6 3 13.5 10t11.5 8h2q8 0 13 -14.5t5 -29.5q0 -25 -17 -57q45 50 92 85t74 35q17 0 26 -13t9 -31q0 -15 -7 -29q-10 -19 -39.5 -45.5t-50.5 -41.5q-82 -57 -161 -65q20 -16 62 -16q49 0 101 18q59 21 102 58q33 29 49 53zM35 20q39 2 87.5 28t88.5 69q36 40 36 71 q0 9 -4.5 18t-12.5 9q-18 0 -67 -40q-28 -23 -85 -80q-8 -16 -43 -75z" />
<glyph unicode="q" horiz-adv-x="346" d="M430 124q2 3 4 3t2 -2q0 -1 -1 -3q-13 -17 -34 -39t-36 -35l-54 -48l-56 -51q-152 -138 -185 -180q-26 -32 -69.5 -95.5t-56.5 -79.5q-60 -80 -64 -80q-5 0 -10 8t-5 13q0 20 33.5 61.5t64.5 72.5q57 57 79 92l66 97l98 146q45 68 62 101q-14 -21 -44.5 -47.5 t-47.5 -36.5q-39 -22 -66 -22q-21 0 -35 14t-14 36q0 31 23 75q22 42 65.5 75t78.5 33q44 0 44 -44q0 -14 -6 -31q-2 -6 -9 -6q-5 0 -5 5q0 3 6 17.5t6 23.5q0 11 -9.5 17.5t-21.5 6.5q-29 0 -60.5 -35t-48.5 -69q-21 -41 -21 -71q0 -12 7 -20.5t20 -8.5t36 10 q25 11 55 40.5t49 68.5q2 4 4.5 12t4.5 13.5t3 5.5q8 4 22 4q25 0 25 -11q0 -4 -2 -6q-37 -47 -60 -83l-165 -251l148 136l92 82q27 24 38 35q48 48 50 51z" />
<glyph unicode="r" horiz-adv-x="203" d="M119 184q11 13 37 24q39 17 78 17q15 0 29.5 -5t14.5 -14q0 -3 -9 -9l-22 -15q-5 -3 -6 -3t-1 1q0 2 6 10q4 4 4 12q0 15 -21 15t-45 -12q-14 -7 -43 -50q-32 -47 -82 -141q-12 -21 -15 -22q-2 -1 -5 -1q-18 0 -18 10q0 3 19 41q14 28 44 82q29 54 35 60z" />
<glyph unicode="s" horiz-adv-x="230" d="M89 122q-2 -3 -4 -3t-2 2q0 1 1 3q18 23 32 39q34 36 56 50q26 15 44 15q23 0 37 -18t14 -43q0 -59 -71 -122q-68 -59 -119 -59q-20 0 -43.5 8t-24.5 21q0 7 13 24.5t18 17.5q1 0 1 -2q0 -1 -0.5 -5t-0.5 -8q0 -20 11 -34t31 -14q42 0 98 65q49 56 49 109q0 47 -26 47 q-33 0 -83 -55q-15 -16 -31 -38z" />
<glyph unicode="t" horiz-adv-x="187" d="M271 124q2 3 4 3t2 -2q0 -1 -1 -3q-49 -65 -116 -104q-40 -22 -63 -22q-19 0 -30.5 13.5t-11.5 33.5q0 30 29 81q39 70 51 90l-21 -4l-20 -5q-8 -2 -9 -2q-13 -3 -19 -3q-3 0 -3 1q0 2 10 8q4 2 5 3q10 7 66 15l87 145q20 31 41 31q7 0 7 -4t-18 -31q-55 -84 -83 -136 q15 2 35 5.5t35 6.5t16 3h4q3 0 3 -1q0 -3 -7.5 -7.5t-10.5 -4.5q-15 0 -80 -13q-26 -42 -53 -100q-27 -60 -27 -80q0 -26 31 -26q33 0 98 56q33 29 49 53z" />
<glyph unicode="u" horiz-adv-x="288" d="M263 150q30 35 30 52q-3 0 -16 -24t-14 -28zM66 197q-2 -1 -4 -1t-2 2t18 14t42 12q35 0 35 -25q0 -10 -5 -23t-9.5 -21.5t-14.5 -24t-13 -20.5q-31 -53 -31 -81q0 -19 22 -19q39 0 91 56q11 28 38 80q25 46 46 63q7 5 17 5q9 0 9 -6q0 -18 -52 -79q-40 -74 -40 -118 q0 -12 8 -12q13 0 85 58q28 22 40 36q14 15 26 31q2 3 4 3t2 -2q0 -1 -1 -3l-22 -27q-42 -46 -106 -92q-27 -20 -43 -20q-23 0 -23 28q0 14 7 40q-22 -19 -32 -27t-31.5 -18.5t-39.5 -10.5q-16 0 -26.5 11t-10.5 28q0 28 34 90l13 20q11 17 18 30.5t7 22.5q0 8 -6.5 12.5 t-11.5 4.5q-13 0 -38 -17z" />
<glyph unicode="v" horiz-adv-x="197" d="M66 197q-2 -1 -4 -1t-2 2t18 14q21 14 44 14q24 0 24 -28q0 -20 -27 -80l-32 -73q95 123 134 157q62 55 99 74q18 9 21 9q2 0 2 -3q0 -1 -20 -13q-32 -18 -87 -67q-37 -33 -86 -96l-57 -77q-33 -41 -40 -41t-7 17q0 19 38 119q27 66 27 79q0 11 -10 11q-12 0 -35 -17z " />
<glyph unicode="w" horiz-adv-x="317" d="M395 212q2 1 4 1t2 -2t-18 -14q-42 -26 -49 -26q-5 0 -11 3q8 -23 8 -58q0 -22 -3 -38q-8 -38 -35 -64t-58 -26q-26 0 -33.5 14.5t-7.5 42.5q0 66 -13 66q-9 0 -45.5 -29.5t-56.5 -47.5l-10 -10l-10 -10q-4 -4 -8.5 -8t-8 -6t-6.5 -2t-4 1q-4 3 -4 11q0 22 52 114 q4 8 18.5 29.5t25 39t10.5 24.5q0 8 -8 8q-20 0 -60 -28q-2 -1 -4 -1t-2 2t18 14q35 24 58 24q29 0 29 -30q0 -9 -6 -20.5t-19.5 -31t-20.5 -30.5q-32 -51 -49 -81q-4 -8 -4 -9l3 3q24 26 67.5 61.5t63.5 35.5q26 0 26 -81v-10q0 -42 23 -42q16 0 33.5 18t22.5 43q3 20 3 38 q0 34 -10 71q-5 15 -17.5 29.5t-14.5 25.5q0 15 25 15q11 0 13 -2l2 -8q1 -8 4.5 -18.5t10.5 -18.5q8 -11 21 -11q14 0 53 29z" />
<glyph unicode="x" horiz-adv-x="214" d="M299 124q2 3 4 3t2 -2q0 -1 -1 -3q-24 -32 -44 -52q-45 -45 -85 -67q-12 -6 -21 -6q-17 0 -30 22l-11 20q-7 -9 -23 -27q-51 -60 -110 -115q-100 -93 -118 -107q-2 -1 -6.5 -5t-8 -6.5t-6.5 -2.5q-5 0 -6 5q0 1 -4 8t-4 10q0 1 2 3q16 12 40.5 28.5t46 32.5t47.5 38 q76 65 123 121l21 27q-38 71 -55 139q-2 8 -2 11q0 6 4 11q17 20 31 20q7 0 7 -22q0 -39 14 -81q0 -1 6.5 -22.5t10.5 -32.5l73 115q14 23 15 23q12 3 17 3q3 0 3 -2t-2 -4q-7 -9 -29 -43.5t-29 -44.5q-31 -45 -42 -59q18 -42 40 -42t81 53q33 29 49 53z" />
<glyph unicode="y" horiz-adv-x="313" d="M107 -122l-136 -116q-3 -3 -25 -21l-42 -34q-18 -16 -44 -42.5t-44 -50t-31 -53.5t-13 -56q0 -20 12 -34t31 -14q25 0 69.5 60t80.5 123zM121 224q13 0 25.5 -9t12.5 -22q0 -7 -7 -21l-18 -30l-14 -23q-22 -44 -22 -72q0 -37 30 -37q44 0 70 32q12 15 34 51.5t32 58.5 q4 9 8.5 21t6.5 16.5t6.5 8t12.5 4.5q20 2 22 2q3 0 3 -1q0 -2 -1 -3l-42 -65q-19 -31 -78 -121q-19 -29 -58 -94q28 22 84 62l78 56q46 34 66 55q10 11 25 31q2 3 4 3t2 -2q0 -1 -1 -3q-18 -24 -26 -32q-28 -29 -75 -63q-145 -108 -169 -128l-164 -278q-105 -181 -163 -181 q-28 0 -46.5 17.5t-18.5 47.5q0 24 13 52t30.5 50.5t43.5 48.5t45 41l40 33q23 19 26 21l180 148l68 119q-28 -20 -68 -20q-25 0 -40.5 14t-15.5 39q0 31 22 73q5 9 17 26t20 30t8 18q0 16 -24 16q-13 0 -39 -17q-2 -1 -4 -1t-2 2t18 14q17 12 43 12z" />
<glyph unicode="z" horiz-adv-x="298" d="M382 124q2 3 4 3t2 -2q0 -1 -1 -3q-48 -63 -100 -97q-31 -19 -55 -27q-13 -43 -66 -136q-42 -75 -82 -116t-92 -76q-64 -43 -127 -43q-26 0 -44 13t-18 40q0 26 19 59q79 141 231 208q12 5 152 51q11 24 11 43q0 29 -37 29h-16q-28 -24 -39 -28q-5 -2 -11 -2q-5 0 -5 3 t4 7q20 20 44 24q110 100 121 120q2 4 2 5q0 2 -4 2q-3 0 -18 -3t-26 -3q-10 0 -30.5 3.5t-32.5 3.5q-16 0 -27 -10q-11 -9 -31 -38.5t-21 -31.5q-3 -3 -4 -3q-2 0 -2 2q0 1 1 3q36 59 50 72q16 15 41 15q6 0 22 -2t26 -2q18 0 52.5 10.5t44.5 10.5q2 0 2 -2t-9 -16 q-13 -20 -73.5 -72t-70.5 -62q49 0 62 -12q10 -10 10 -26q0 -14 -6 -30q28 10 50 25q31 22 48 39q43 43 49 52zM201 -13q-119 -37 -129 -41q-75 -31 -126.5 -74.5t-94.5 -107.5q-41 -62 -41 -91q0 -18 16 -29t35 -11q35 0 79 20q79 37 155 149q74 108 106 185z" />
<glyph unicode="{" horiz-adv-x="266" d="M132 -90q3 1 7 3q6 2 7 2t1 -1t-4 -8q-5 -8 -31 -8q-29 0 -45 16.5t-16 41.5q0 15 3 28t12.5 30.5t17.5 29.5l25 39l30 46q36 58 36 79q0 10 -6 17t-17 7q-9 0 -21.5 -3t-14.5 -3q-11 0 -11 6q0 3 6 10t10 7q1 0 4 -0.5t7 -0.5q33 0 58 23q35 33 80.5 109.5t53.5 87.5 q27 38 85 38q11 0 28.5 -4.5t17.5 -8.5q0 -3 -6 -3l-7 2q-8 2 -18.5 4t-17.5 2q-35 0 -56 -30q-16 -23 -34 -63.5t-40 -73.5t-60 -60q-24 -16 -46 -26q-4 -1 -4 -4q0 -2 6 -4q29 -11 29 -49q0 -30 -22 -62q-7 -10 -38.5 -48t-51 -70.5t-19.5 -58.5q0 -19 11 -31t29 -12 q11 0 22 4z" />
<glyph unicode="|" horiz-adv-x="228" d="M153 -257q-4 0 -4 15q0 34 4 197.5t4 249.5q0 68 -1.5 219.5t-1.5 244.5v72q0 12 6.5 19.5t15.5 7.5q5 0 5 -11q0 -54 -1 -193.5t-1 -240.5q0 -63 1 -191.5t1 -192.5q0 -29 -0.5 -86t-0.5 -85q0 -6 -12 -15.5t-15 -9.5z" />
<glyph unicode="}" horiz-adv-x="266" d="M299 495q52 0 52 -53q0 -17 -7.5 -32.5t-27 -42t-26.5 -38.5q-36 -55 -36 -79q0 -11 5 -16q7 -8 18 -8q7 0 20.5 3t15.5 3q11 0 11 -6q0 -4 -6.5 -10.5t-9.5 -6.5l-4 1h-7q-33 0 -58 -23q-35 -33 -104 -147t-71 -117q-9 -12 -28.5 -24.5t-41.5 -12.5q-10 0 -22.5 4 t-12.5 8q0 3 6 3q1 0 5 -1.5t10 -2.5t11 -1q31 0 47 27q9 15 41 79.5t63.5 111t70.5 73.5q24 16 46 26q3 1 3 4q0 2 -5 4q-26 9 -26 44q0 30 25 68q9 14 24 35l24 32q8 11 14.5 25.5t6.5 26.5q0 14 -9 24t-25 10q-6 0 -15.5 -3t-16.5 -5l-7 -3q-1 0 -1 1q0 2 4 9q7 10 44 10 z" />
<glyph unicode="~" horiz-adv-x="400" d="M160 116q39 57 86 57q26 0 51 -31t43 -31q16 0 33 15.5t17 32.5q0 1 -1 3t-1 6q0 6 6 6q5 0 5 -13q0 -24 -21 -45t-47 -21q-25 0 -43.5 16.5t-31 33t-23.5 16.5q-33 0 -66 -52q-3 -5 -8 -5q-3 0 -3 3q0 1 4 9z" />
<glyph unicode="&#xa2;" d="M45 -155q-5 -12 -12 -12q-1 0 -1 3q0 6 3 12q41 81 101 186q-70 6 -70 61q0 84 80 170t170 86l36 62q37 62 65 62q2 0 2 -1q0 -2 -7 -11l-20 -23q-12 -13 -20 -25q-5 -7 -14 -21l-15 -24l-13 -21q23 -3 37 -14.5t14 -28.5q0 -18 -16.5 -30.5t-35.5 -12.5q-13 0 -13 6l5 9 q5 10 5 19q0 15 -12 27q-65 -106 -155 -271q12 -3 25 -3q57 0 111 45q24 19 43 52q8 13 9 13q3 0 3 -2q0 -3 -5 -13q-28 -53 -95 -88q-46 -23 -102 -23zM117 107q0 -40 32 -51l101 176l55 98q-11 6 -23 6q-56 0 -110.5 -83.5t-54.5 -145.5z" />
<glyph unicode="&#xa3;" horiz-adv-x="370" d="M232 -17q-34 0 -54 12.5t-41 49.5q-70 -70 -116 -70q-21 0 -21 21q0 23 26.5 59t58.5 58q13 10 27 10q27 0 45 -38q50 69 76 132h-99q-4 0 -4 2t4 5t7 3h43q36 0 53 1q11 28 22 82.5t15 68.5q7 25 31 40.5t54 15.5q41 0 63.5 -21.5t22.5 -51.5q0 -5 -16 -8.5t-24 -3.5 q-3 0 -3 2q0 1 1.5 4.5t1.5 6.5q0 24 -16 43.5t-41 19.5q-16 0 -31.5 -12.5t-21.5 -34.5q-6 -21 -18.5 -72t-21.5 -79q12 0 38 0.5t39 0.5q7 0 20 -0.5t19 -0.5q4 0 4 -2q0 -6 -11.5 -10t-21.5 -4q-24 0 -92 4q-22 -60 -87 -143q21 -41 45 -52.5t54 -11.5q34 0 75.5 20 t67.5 42q33 29 49 53q2 3 4 3t2 -2q0 -1 -1 -3q-49 -65 -116 -104q-61 -35 -111 -35zM71 80q-18 -14 -38 -37t-20 -38t25 -15q36 0 94 65q-19 36 -35 36q-12 0 -26 -11z" />
<glyph unicode="&#xa5;" horiz-adv-x="285" d="M331 203h61q8 -1 8 -6q0 -7 -10 -7q-2 0 -7 0.5t-9 0.5q-6 0 -28 -0.5t-39 -0.5h-24l-17 -33q12 0 35 1t35 1q18 0 28 -1q8 -1 8 -6q0 -7 -6 -7q-5 0 -45 -1t-62 -1q-8 -18 -48 -127q-5 -16 -15 -23q-6 -5 -11 -5q-1 0 -5 0.5t-7 0.5q-5 0 -15 -2t-12 -2q-4 0 -4 2t8 6 t17 10t12 11l33 66l30 63h-16q-15 0 -38.5 -1t-33.5 -1q-6 0 -6 9q0 8 3 8q5 0 16.5 -1t20.5 -1q8 0 29 0.5t32 0.5q5 11 17 33q-15 0 -50.5 -2t-45.5 -2q-3 0 -3 3t4 8.5t7 5.5h95q2 2 4 6q-30 27 -68.5 78.5t-59.5 91.5q-12 24 -12 33q0 10 8 17q17 15 21 15q1 0 8 -21 q16 -53 52 -115t60 -83q90 147 155 200q5 5 22 5q11 0 11 -2q0 -3 -6 -3q-13 0 -76.5 -77.5t-101.5 -145.5z" />
<glyph unicode="&#xa9;" horiz-adv-x="566" d="M421 449q82 0 132 -50t50 -127q0 -113 -95 -205.5t-214 -92.5q-82 0 -132 50t-50 127q0 112 95 205t214 93zM156 160q0 -70 42 -122.5t114 -52.5h2q98 0 171 85t74 190q0 71 -41.5 125.5t-114.5 54.5q-99 0 -172.5 -87t-74.5 -193zM426 163q1 2 3 2q3 0 7 -9.5t4 -15.5 q0 -9 -22 -28.5t-37 -28.5q-40 -25 -79 -25q-34 0 -58.5 18.5t-24.5 53.5q0 46 32 102q39 72 98 106q46 27 79 27q22 0 38.5 -10.5t16.5 -19.5q0 -4 -7.5 -9.5t-11.5 -5.5q-2 0 -2 2q0 14 -12 23.5t-29 9.5q-34 0 -76 -31q-36 -29 -65 -78t-29 -93q0 -30 19 -55t49 -26 q35 0 63.5 26.5t43.5 64.5z" />
<glyph unicode="&#xad;" horiz-adv-x="296" d="M124 179h28q10 0 36 -1t41 -1q9 0 30.5 0.5t29.5 0.5q9 0 9 -11q0 -12 -9.5 -15t-32.5 -3q-6 0 -34.5 1t-50.5 1h-43q-15 0 -15 10q0 6 4 12t7 6z" />
<glyph unicode="&#xae;" horiz-adv-x="566" d="M421 449q82 0 132 -50t50 -127q0 -113 -95 -205.5t-214 -92.5q-82 0 -132 50t-50 127q0 112 95 205t214 93zM156 160q0 -70 42 -122.5t114 -52.5h2q98 0 171 85t74 190q0 71 -41.5 125.5t-114.5 54.5q-99 0 -172.5 -87t-74.5 -193zM274 222q-9 12 -9 16q0 8 24 12 q19 35 28 49q24 37 68 56q23 9 42 9q37 0 37 -35q-2 -21 -27.5 -39.5t-58.5 -29.5q-18 -6 -70 -20l-6 -12l-6 -12q7 -12 25.5 -49t21.5 -41q26 -48 57 -48q26 0 36 22q1 2 4 2q12 0 12 -6q0 -2 -19 -15q-26 -16 -46 -16q-30 0 -43 21q-10 15 -29.5 58.5t-27.5 57.5 q-11 -18 -37 -69q-3 -5 -12 -24l-14 -27q-3 -4 -7 -4q-5 0 -8 3q-5 3 -5 5q0 8 32 64q4 8 38 72zM316 253q45 12 57 17q60 21 60 55q0 26 -23 26q-14 0 -26 -6q-15 -7 -29 -23.5t-19 -27.5z" />
<glyph unicode="&#xb4;" horiz-adv-x="230" d="M33 277l125 73q4 3 8 3q2 0 2 -4q0 -14 -10 -18l-56 -25l-65 -31q-4 -2 -6 -2q-3 0 -3 1z" />
<glyph unicode="&#x2000;" horiz-adv-x="384" />
<glyph unicode="&#x2001;" horiz-adv-x="768" />
<glyph unicode="&#x2002;" horiz-adv-x="384" />
<glyph unicode="&#x2003;" horiz-adv-x="768" />
<glyph unicode="&#x2004;" horiz-adv-x="256" />
<glyph unicode="&#x2005;" horiz-adv-x="192" />
<glyph unicode="&#x2006;" horiz-adv-x="128" />
<glyph unicode="&#x2007;" horiz-adv-x="128" />
<glyph unicode="&#x2008;" horiz-adv-x="96" />
<glyph unicode="&#x2009;" horiz-adv-x="153" />
<glyph unicode="&#x200a;" horiz-adv-x="42" />
<glyph unicode="&#x2010;" horiz-adv-x="296" d="M124 179h28q10 0 36 -1t41 -1q9 0 30.5 0.5t29.5 0.5q9 0 9 -11q0 -12 -9.5 -15t-32.5 -3q-6 0 -34.5 1t-50.5 1h-43q-15 0 -15 10q0 6 4 12t7 6z" />
<glyph unicode="&#x2011;" horiz-adv-x="296" d="M124 179h28q10 0 36 -1t41 -1q9 0 30.5 0.5t29.5 0.5q9 0 9 -11q0 -12 -9.5 -15t-32.5 -3q-6 0 -34.5 1t-50.5 1h-43q-15 0 -15 10q0 6 4 12t7 6z" />
<glyph unicode="&#x2013;" horiz-adv-x="500" d="M74 143q22 0 66 -0.5t68 -0.5q40 0 153.5 0.5t193.5 0.5q8 0 8 -5q0 -19 -73 -19q-22 0 -107.5 3t-170.5 3h-161q-14 0 -14 4q0 3 13 8.5t24 5.5z" />
<glyph unicode="&#x2014;" horiz-adv-x="1000" d="M219 239q81 0 298.5 1.5t381.5 1.5q16 0 16 -8q0 -11 -34 -11h-68q-38 0 -137.5 1t-172.5 1q-57 0 -129 -0.5t-121.5 -1.5t-53.5 -1q-14 0 -14 4t10.5 8.5t23.5 4.5z" />
<glyph unicode="&#x2018;" horiz-adv-x="205" d="M289 449q-46 -49 -61 -75q-24 -42 -24 -84q0 -11 5 -20t9.5 -13.5t4.5 -5.5q0 -4 -4.5 -9.5t-10 -10.5t-5.5 -6q-3 -3 -6 -3q-10 0 -17 13.5t-7 27.5q0 39 25 84q23 42 83 109q5 5 6 5q3 0 3 -8q0 -3 -1 -4z" />
<glyph unicode="&#x2019;" horiz-adv-x="219" d="M181 264q36 36 77 112q7 13 16 33l15 33q6 14 10 17q16 13 32 13q13 0 13 -9q0 -12 -73 -112q-17 -24 -48.5 -60.5t-40.5 -36.5q-4 0 -4 4q0 3 3 6z" />
<glyph unicode="&#x201c;" horiz-adv-x="259" d="M342 449q-46 -49 -61 -75q-24 -42 -24 -84q0 -11 4.5 -20t9.5 -13.5t5 -5.5q0 -4 -4.5 -9.5t-10 -10.5t-5.5 -6q-3 -3 -6 -3q-10 0 -17 13.5t-7 27.5q0 39 25 84q23 42 83 109q5 5 6 5q3 0 3 -8q0 -3 -1 -4zM260 449q-46 -49 -61 -75q-24 -42 -24 -84q0 -11 4.5 -20 t9.5 -13.5t5 -5.5q0 -4 -4.5 -9.5t-10 -10.5t-5.5 -6q-3 -3 -6 -3q-10 0 -17 13.5t-7 27.5q0 39 25 84q23 42 83 109q5 5 6 5q3 0 3 -8q0 -3 -1 -4z" />
<glyph unicode="&#x201d;" horiz-adv-x="259" d="M138 234q46 49 61 75q24 42 24 84q0 11 -4.5 20t-9.5 13.5t-5 5.5q0 4 4.5 9.5t10 10.5t5.5 6q3 3 6 3q10 0 17 -13.5t7 -27.5q0 -39 -25 -84q-23 -42 -83 -109q-5 -5 -6 -5q-3 0 -3 8q0 3 1 4zM220 234q46 49 61 75q24 42 24 84q0 11 -4.5 20t-9.5 13.5t-5 5.5 q0 4 4.5 9.5t10 10.5t5.5 6q3 3 6 3q10 0 17 -13.5t7 -27.5q0 -39 -25 -84q-23 -42 -83 -109q-5 -5 -6 -5q-3 0 -3 8q0 3 1 4z" />
<glyph unicode="&#x2022;" horiz-adv-x="500" d="M239 346q0 70 50.5 119.5t121.5 49.5t121.5 -49.5t50.5 -119.5t-50.5 -119.5t-121.5 -49.5t-121.5 49.5t-50.5 119.5z" />
<glyph unicode="&#x2026;" horiz-adv-x="569" d="M80 14q0 16 14 31.5t31 15.5q19 0 19 -20q0 -16 -13.5 -31.5t-30.5 -15.5q-20 0 -20 20zM252 14q0 16 14 31.5t31 15.5q19 0 19 -20q0 -16 -13.5 -31.5t-30.5 -15.5q-20 0 -20 20zM431 14q0 16 14 31.5t31 15.5q19 0 19 -20q0 -16 -13.5 -31.5t-30.5 -15.5q-20 0 -20 20z " />
<glyph unicode="&#x202f;" horiz-adv-x="153" />
<glyph unicode="&#x205f;" horiz-adv-x="192" />
<glyph unicode="&#x20ac;" horiz-adv-x="369" d="M117 170q-10 0 -30.5 0.5t-31.5 0.5q-7 0 -7 12t5 12q17 -1 71 -3q13 37 18 48q-12 0 -30.5 -0.5t-22.5 -0.5q-3 0 -3 4q0 6 4.5 14t8.5 8q12 1 57 1q50 92 104 130t105 38q25 0 43 -10.5t18 -19.5q0 -6 -8.5 -16t-12.5 -10q-2 0 -2 3q0 18 -16 30.5t-38 12.5 q-43 0 -92 -49q-30 -31 -76 -108h131h21q45 0 45 -12t-10 -12h-16q-6 0 -28 -0.5t-39 -0.5q-7 0 -22 0.5t-24 0.5q-17 0 -71 -2q-9 -20 -19 -49q17 -1 49 -1q6 0 53 1t64 1q21 0 21 -8q0 -11 -11.5 -13.5t-49.5 -2.5h-37q-63 0 -96 1q-5 -25 -5 -53q0 -49 18.5 -82.5 t61.5 -33.5q72 0 130 92q15 23 17 43q0 6 4 6q6 0 13 -8.5t7 -15.5q0 -11 -30 -46.5t-58 -57.5q-50 -40 -99 -40q-97 0 -97 108q0 42 13 88z" />
<glyph unicode="&#x2122;" horiz-adv-x="409" d="M482 226l-1 -1q-18 -25 -42 -25q-18 0 -29.5 11t-11.5 30q0 29 30.5 84.5t30.5 64.5q0 13 -13 13q-11 0 -27 -13.5t-25 -28.5q-1 -1 -3 -5.5t-4 -8t-4 -3.5q-10 0 -10 6q14 8 14 30q0 16 -16 16q-10 0 -25.5 -14.5t-22.5 -27.5q-4 -6 -21 -38l-31 -61q-15 -28 -16 -28 q-9 0 -13 12q0 2 1 3q5 9 18.5 28t22.5 35q2 4 8 15t9.5 18t7 17t3.5 18q0 4 -2 12q0 2 5.5 5t7.5 3q4 0 4 -18q0 -5 -2 -11q30 40 51 40q22 0 22 -20q0 -5 -1 -7q7 11 25.5 22.5t30.5 11.5q23 0 23 -19q0 -14 -13 -28q-53 -59 -53 -116q0 -18 10 -28.5t25 -10.5 q10 0 18.5 5.5t12.5 11t5 5.5q2 0 2 -2q0 -1 -1 -3zM186 320q25 50 34 79q-62 -7 -75 -11q-1 0 -1 1q0 11 78 17q1 4 1 13q0 18 -22 18q-10 0 -24 -7q0 -4 -9 -4q-4 0 -4 4q0 6 15 9t23 3q16 0 26.5 -8t10.5 -20v-7q33 5 57 5q2 0 6.5 -0.5t7.5 -0.5h4q2 0 2 -2l-3 -9h-6 q-6 0 -16.5 0.5t-21.5 0.5q-25 0 -31 -1q-14 -42 -35 -80q-2 -3 -9.5 -18t-13 -25t-13.5 -23t-14.5 -19.5t-11.5 -6.5q-8 0 -8 7q0 1 9 15l22 34q14 21 22 36z" />
<glyph horiz-adv-x="500" />
</font>
</defs>
</svg>
